SplineFontDB: 3.0
FontName: NineParchments
FullName: NineParchments
FamilyName: Nine Parchments
Weight: Book
Copyright: All rights reserved by Frozenbyte co. 2018
Version: 1.020
ItalicAngle: 0
UnderlinePosition: -100
UnderlineWidth: 50
Ascent: 800
Descent: 200
InvalidEm: 0
sfntRevision: 0x00010000
LayerCount: 2
Layer: 0 1 "+BBcEMAQ0BD0EOAQ5 +BD8EOwQwBD0A" 1
Layer: 1 1 "+BB8ENQRABDUENAQ9BDgEOQAA +BD8EOwQwBD0A" 0
XUID: [1021 124 470122697 3685]
StyleMap: 0x0040
FSType: 4
OS2Version: 3
OS2_WeightWidthSlopeOnly: 0
OS2_UseTypoMetrics: 0
CreationTime: 1423037331
ModificationTime: 1539597670
PfmFamily: 81
TTFWeight: 400
TTFWidth: 5
LineGap: 36
VLineGap: 0
Panose: 0 0 0 0 0 0 0 0 0 0
OS2TypoAscent: 756
OS2TypoAOffset: 0
OS2TypoDescent: -297
OS2TypoDOffset: 0
OS2TypoLinegap: 36
OS2WinAscent: 873
OS2WinAOffset: 0
OS2WinDescent: 392
OS2WinDOffset: 0
HheadAscent: 756
HheadAOffset: 0
HheadDescent: -297
HheadDOffset: 0
OS2SubXSize: 700
OS2SubYSize: 650
OS2SubXOff: 0
OS2SubYOff: 140
OS2SupXSize: 700
OS2SupYSize: 650
OS2SupXOff: 0
OS2SupYOff: 477
OS2StrikeYSize: 50
OS2StrikeYPos: 250
OS2CapHeight: 756
OS2XHeight: 421
OS2Vendor: 'pyrs'
OS2CodePages: 00000007.00000000
OS2UnicodeRanges: 80000227.00000042.00000000.00000000
Lookup: 258 0 0 "'kern' Horizontal Kerning in Latin lookup 0" { "'kern' Horizontal Kerning in Latin lookup 0-2" [100,10,2] "'kern' Horizontal Kerning in Latin lookup 0-1" [100,10,2] } ['kern' ('DFLT' <'dflt' > 'latn' <'dflt' > ) ]
Lookup: 258 0 0 "'kern' Horizontal Kerning in Cyrillic lookup 0" { "'kern' Horizontal Kerning in Cyrillic lookup 0-2" [100,10,2] "'kern' Horizontal Kerning in Cyrillic lookup 0-1" [100,10,2] } ['kern' ('DFLT' <'dflt' > 'cyrl' <'dflt' > ) ]
MarkAttachClasses: 1
DEI: 91125
KernClass2: 23 24 "'kern' Horizontal Kerning in Cyrillic lookup 0-2"
 23 uni0430 uni043B uni043C
 31 uni0431 uni0432 uni0440 uni0444
 7 uni0433
 7 uni0434
 7 uni0435
 7 uni0436
 7 uni0437
 23 uni0438 uni0439 uni043D
 7 uni043A
 7 uni043E
 7 uni043F
 7 uni0441
 7 uni0442

StartChar: A
Encoding: 65 65 1
Width: 653
Flags: W
HStem: 1 1<317 325.901> 2 50<73.9716 134.748 549.943 611.805> 194 68<116.982 157.595 262 420> 688 64<238.34 269.912>
VStem: 38 36<54.6738 61.1211> 159 59<68.8541 164.345> 270 142<620.984 687.999> 455 158<26.5 131.5>
LayerCount: 2
Fore
SplineSet
217 706 m 1,0,1
 240 723 240 723 240 744 c 0,2,3
 239 748 239 748 239 749 c 0,4,5
 248 752 248 752 257 752 c 128,-1,6
 266 752 266 752 292.5 742.5 c 128,-1,7
 319 733 319 733 337 733 c 0,8,9
 358 733 358 733 373.5 733 c 128,-1,10
 389 733 389 733 459 749 c 1,11,12
 482 743 482 743 482 722.5 c 128,-1,13
 482 702 482 702 471 681 c 1,14,15
 457 691 457 691 441 691 c 128,-1,16
 425 691 425 691 412 685 c 1,17,-1
 412 665 l 2,18,19
 412 644 412 644 463.5 422 c 128,-1,20
 515 200 515 200 549 77 c 0,21,22
 552 65 552 65 560 61.5 c 128,-1,23
 568 58 568 58 579 55 c 0,24,25
 613 46 613 46 613 30 c 0,26,27
 613 23 613 23 607 15 c 128,-1,28
 601 7 601 7 601 4 c 0,29,30
 601 3 601 3 589 3 c 2,31,-1
 464 1 l 1,32,-1
 375 2 l 2,33,34
 367 2 367 2 367 6 c 0,35,36
 368 13 368 13 389 28 c 128,-1,37
 410 43 410 43 427 55 c 128,-1,38
 444 67 444 67 449.5 77.5 c 128,-1,39
 455 88 455 88 455 117 c 128,-1,40
 455 146 455 146 434 192 c 1,41,-1
 250 191 l 1,42,43
 218 108 218 108 218 88.5 c 128,-1,44
 218 69 218 69 223 64 c 0,45,46
 237 50 237 50 277 26 c 128,-1,47
 317 2 317 2 326 2 c 1,48,49
 323 1 323 1 299 1 c 2,50,-1
 239 1 l 1,51,-1
 90 2 l 2,52,53
 45 2 45 2 39 20 c 0,54,55
 38 23 38 23 38 24 c 2,56,-1
 38 46 l 2,57,58
 38 67 38 67 74 71 c 1,59,-1
 74 70 l 1,60,61
 73 68 73 68 83.5 60 c 128,-1,62
 94 52 94 52 102 52 c 2,63,-1
 110 52 l 1,64,65
 127 56 127 56 135 65.5 c 128,-1,66
 143 75 143 75 151 119 c 128,-1,67
 159 163 159 163 159 174.5 c 128,-1,68
 159 186 159 186 158 189 c 1,69,70
 145 194 145 194 138 194 c 0,71,72
 108 194 108 194 87 178 c 0,73,74
 82 174 82 174 81 175 c 0,75,76
 73 179 73 179 73 191 c 0,77,78
 73 217 73 217 113 238 c 0,79,80
 130 247 130 247 146 254 c 0,81,82
 168 262 168 262 172 262 c 0,83,84
 270 683 l 0,85,86
 270 684 270 684 270 685 c 0,87,88
 271 688 271 688 267 688 c 0,89,90
 261 688 261 688 257 687.5 c 128,-1,91
 253 687 253 687 240.5 690.5 c 128,-1,92
 228 694 228 694 217 706 c 1,0,1
262 257 m 1,93,-1
 420 258 l 1,94,-1
 382 440 l 2,95,96
 375 474 375 474 368 506.5 c 128,-1,97
 361 539 361 539 356 564.5 c 128,-1,98
 351 590 351 590 347 605 c 2,99,-1
 344 620 l 257,100,-1
 341 604 l 1,101,102
 319 517 319 517 302 437.5 c 128,-1,103
 285 358 285 358 262 257 c 1,93,-1
EndSplineSet
Validated: 1
EndChar

StartChar: B
Encoding: 66 66 2
Width: 593
Flags: W
HStem: 1 81<44.9281 126.526> 1 58.5<205.154 422.949> 215 98<203.741 348.642> 640 95<196.159 355.564>
VStem: 120.529 76<313.743 641> 126.529 79<68.2114 213.688> 461.529 88<92.7157 180.451> 475.529 75<406.577 556.487>
LayerCount: 2
Fore
SplineSet
194 726 m 1,0,-1
 194 729 l 1,1,2
 236 735 236 735 282 735 c 0,3,4
 325 735 325 735 369 724 c 0,5,6
 411 714 411 714 441 696 c 0,7,8
 510 656 510 656 537 572 c 0,9,10
 551 528 551 528 551 471 c 0,11,12
 551 463 551 463 551 463 c 0,13,14
 546 378 546 378 505 331 c 0,15,16
 449 267 449 267 350 267 c 1,17,18
 412 261 412 261 472 234 c 0,19,20
 523 211 523 211 543 166 c 0,21,22
 550 150 550 150 550 136 c 0,23,24
 550 119 550 119 549 113 c 0,25,26
 538 51 538 51 438 23 c 0,27,28
 385 8 385 8 260 2 c 0,29,30
 240 1 240 1 215 1 c 0,31,32
 141 1 141 1 67 1 c 0,33,34
 50 1 50 1 46 19 c 0,35,36
 46 19 46 19 43 40 c 0,37,38
 40 58 40 58 38 67 c 0,39,40
 34 82 34 82 49 82 c 0,41,42
 60 82 60 82 80 76 c 0,43,44
 97 71 97 71 112 66 c 128,-1,45
 127 61 127 61 127 67 c 0,46,47
 127 148 127 148 124 248 c 0,48,49
 122 315 122 315 121 342 c 0,50,51
 120 380 120 380 120 388 c 0,52,53
 121 406 121 406 121 430 c 2,54,-1
 121 494 l 2,55,56
 121 666 121 666 119 680 c 0,57,58
 118 686 118 686 113 682 c 0,59,60
 102 675 102 675 100 674 c 0,61,62
 96 673 96 673 93 673 c 0,63,64
 92 673 92 673 90 673 c 0,65,66
 90 673 90 673 89 673 c 128,-1,67
 88 673 88 673 87 673 c 0,68,69
 86.2058823529 672.735294118 86.2058823529 672.735294118 85.4351211073 672.735294118 c 0,70,71
 77.4705882353 672.735294118 77.4705882353 672.735294118 72 701 c 0,72,73
 71 706 71 706 71 710 c 0,74,75
 71 725 71 725 85 737 c 0,76,77
 105 754 105 754 132 754 c 128,-1,78
 159 754 159 754 194 726 c 1,0,-1
196 591 m 1,79,-1
 197 479 l 2,80,81
 198 407 198 407 200 315 c 1,82,83
 221 313 221 313 255 313 c 0,84,85
 286 313 286 313 324 322 c 0,86,87
 351 328 351 328 382 342 c 0,88,89
 407 353 407 353 427 372 c 0,90,91
 472 415 472 415 476 480 c 1,92,-1
 476 492 l 2,93,94
 476 556 476 556 408 596 c 0,95,96
 359 625 359 625 272 636 c 0,97,98
 240 640 240 640 218 640 c 0,99,100
 197 640 197 640 196 641 c 1,101,-1
 196 591 l 1,79,-1
333 60 m 0,102,103
 462 68 462 68 462 139 c 0,104,105
 462 140 462 140 462 142 c 0,106,107
 462 161 462 161 442 178 c 0,108,109
 424 193 424 193 397 201 c 128,-1,110
 370 209 370 209 337 212 c 128,-1,111
 304 215 304 215 275 215 c 128,-1,112
 246 215 246 215 237 214 c 2,113,-1
 207 213 l 2,114,115
 204 213 204 213 204 177 c 2,116,-1
 205 106 l 1,117,-1
 206 66 l 258,118,119
 206 65 206 65 225 62 c 0,120,121
 247 59 247 59 273 59 c 0,122,123
 278 59 278 59 282 59.5 c 128,-1,124
 286 60 286 60 333 60 c 0,102,103
EndSplineSet
Validated: 524289
EndChar

StartChar: C
Encoding: 67 67 3
Width: 516
Flags: W
HStem: 4 64<200.123 327.512> 673 69<204.84 304.515>
VStem: 43 74<220.363 521.033> 368 78<108.314 224.966>
LayerCount: 2
Fore
SplineSet
44 320 m 1,0,-1
 39 432 l 1,1,-1
 39 439 l 2,2,3
 39 508 39 508 56.5 566.5 c 128,-1,4
 74 625 74 625 96 657 c 0,5,6
 143 726 143 726 235 741 c 0,7,8
 241 742 241 742 262 742 c 0,9,10
 302 742 302 742 354 716 c 0,11,12
 382 702 382 702 402 684 c 1,13,14
 438 641 438 641 452 494 c 0,15,16
 456 452 456 452 456 445 c 0,17,18
 456 444 456 444 456 444 c 2,19,-1
 437 444 l 2,20,21
 431 443 431 443 421.5 442.5 c 128,-1,22
 412 442 412 442 402.5 434 c 128,-1,23
 393 426 393 426 385.5 416 c 128,-1,24
 378 406 378 406 373.5 398.5 c 128,-1,25
 369 391 369 391 368 392 c 256,26,27
 367 393 367 393 359.5 398 c 128,-1,28
 352 403 352 403 344 409 c 0,29,30
 321 425 321 425 321 426.5 c 128,-1,31
 321 428 321 428 330 436 c 0,32,33
 343 450 343 450 348 457 c 0,34,35
 368 484 368 484 368 498 c 0,36,37
 368 499 368 499 368 501 c 128,-1,38
 368 503 368 503 366 509 c 0,39,40
 366 511 366 511 352 560 c 0,41,42
 331 632 331 632 295 660 c 0,43,44
 278 673 278 673 264 673 c 0,45,46
 251 673 251 673 243 672 c 0,47,48
 200 667 200 667 168 600 c 0,49,50
 143 547 143 547 132 493 c 0,51,52
 117 417 117 417 117 392 c 2,53,-1
 117 364 l 1,54,55
 125 241 125 241 162 152 c 0,56,57
 196 68 196 68 243 68 c 2,58,-1
 250 68 l 2,59,60
 314 68 314 68 345 106 c 0,61,62
 368 135 368 135 368 182 c 0,63,64
 368 200 368 200 366 212 c 128,-1,65
 364 224 364 224 365 225 c 256,66,67
 372 232 372 232 424 236 c 0,68,69
 467 239 467 239 475 239 c 0,70,71
 477 239 477 239 477 239 c 256,72,73
 477 238 477 238 472 232 c 0,74,75
 446 201 446 201 446 167 c 0,76,77
 446 160 446 160 448 149.5 c 128,-1,78
 450 139 450 139 445 125 c 128,-1,79
 440 111 440 111 432 98 c 0,80,81
 415 72 415 72 395 55 c 1,82,83
 356 9 356 9 305 4 c 0,84,85
 284 2 284 2 264 2 c 0,86,87
 261 2 261 2 257 2 c 0,88,89
 254.3 1.9 254.3 1.9 251.54 1.9 c 0,90,91
 226.7 1.9 226.7 1.9 197 10 c 0,92,93
 149 23 149 23 122 47 c 0,94,95
 52 109 52 109 45 240 c 0,96,97
 43 277 43 277 43 290 c 2,98,-1
 43 308 l 2,99,100
 43 314 43 314 44 320 c 1,0,-1
EndSplineSet
Validated: 524289
EndChar

StartChar: D
Encoding: 68 68 4
Width: 536
Flags: W
HStem: 0 68<47.8579 115.283> 0 56<197.612 263.385> 686 56<184.286 252.848>
VStem: 109.286 78<287.863 676.694> 112.786 81.5<56.0294 323.222> 430.286 62<224.012 487.192>
LayerCount: 2
Fore
SplineSet
187 577 m 2,0,-1
 190 324 l 2,1,2
 191 299 191 299 191 288 c 0,3,4
 191 276 191 276 192 244 c 128,-1,5
 193 212 193 212 194 176 c 0,6,7
 199 56 199 56 199 56 c 0,8,9
 280 56 280 56 365 152 c 0,10,11
 430 225 430 225 430 346 c 0,12,13
 430 348 430 348 430 350 c 128,-1,14
 430.013888889 351.875 430.013888889 351.875 430.013888889 353.742091049 c 0,15,16
 430.013888889 486.305555556 430.013888889 486.305555556 360 579 c 0,17,18
 315 638 315 638 251 666 c 0,19,20
 205 686 205 686 184 686 c 1,21,22
 187 632 187 632 187 577 c 2,0,-1
103 682 m 0,23,24
 92 671 92 671 84 671 c 0,25,26
 74 671 74 671 69 691 c 0,27,28
 65 707 65 707 65 716 c 128,-1,29
 65 725 65 725 80 738 c 128,-1,30
 95 751 95 751 108 753 c 128,-1,31
 121 755 121 755 135 755 c 0,32,33
 148 755 148 755 174 742 c 1,34,35
 242 742 242 742 286 725 c 0,36,37
 329 708 329 708 366 682 c 0,38,39
 401 657 401 657 429 614 c 0,40,41
 492 517 492 517 492 355 c 0,42,43
 492 353 492 353 492 351 c 128,-1,44
 492.012820513 348.897435897 492.012820513 348.897435897 492.012820513 346.806213018 c 0,45,46
 492.012820513 185.782051282 492.012820513 185.782051282 416 92 c 0,47,48
 361 24 361 24 272 6 c 0,49,50
 267 5 267 5 266 5 c 0,51,52
 262 3 262 3 258 3 c 0,53,54
 253 3 253 3 247 2 c 2,55,-1
 233 0 l 1,56,-1
 205 0 l 1,57,58
 205 -0 205 -0 164 -0 c 0,59,60
 146 0 146 0 121 0 c 2,61,-1
 67 0 l 2,62,63
 52 0 52 0 48 9 c 128,-1,64
 44 18 44 18 42 28 c 2,65,-1
 37 53 l 2,66,67
 35 68 35 68 47 68 c 0,68,69
 56 68 56 68 74 62 c 0,70,71
 89 57 89 57 102 52 c 128,-1,72
 115 47 115 47 115 53 c 0,73,74
 117 78 117 78 117 113 c 0,75,76
 116 182 116 182 113 241 c 128,-1,77
 110 300 110 300 110 348 c 0,78,79
 109 381 109 381 109 418 c 2,80,-1
 109 494 l 2,81,82
 109 644 109 644 107 680 c 0,83,84
 107 686 107 686 103 682 c 0,23,24
EndSplineSet
Validated: 524289
EndChar

StartChar: E
Encoding: 69 69 5
Width: 512
Flags: W
HStem: 0 82<43.2179 126.526> 0 71<199.802 349.223> 344 94<296.642 344.625> 732 20G<115.779 472.529>
VStem: 120.529 75<143.745 384 424 644.672> 348.529 59.5<557.085 653.966> 367.529 47<95.2004 175.294>
LayerCount: 2
Fore
SplineSet
363 344 m 1,0,1
 274 375 274 375 210 384 c 0,2,3
 203 385 203 385 196 382 c 1,4,5
 196 88 196 88 203 72 c 1,6,7
 209 71 209 71 218 71 c 0,8,9
 236 71 236 71 244 72 c 0,10,11
 261 74 261 74 284 78 c 0,12,13
 338 86 338 86 353 95 c 0,14,15
 369 105 369 105 368 119 c 0,16,17
 367 134 367 134 360 150 c 0,18,19
 352 168 352 168 342 182 c 0,20,21
 333 195 333 195 329 208 c 0,22,23
 326 218 326 218 333 220 c 0,24,25
 338 221 338 221 352 220 c 0,26,27
 365 219 365 219 378 215 c 0,28,29
 411 205 411 205 433 197 c 1,30,-1
 429 187 l 2,31,32
 415 152 415 152 415 128 c 0,33,34
 415 105 415 105 417 92 c 0,35,36
 420 71 420 71 440 43 c 128,-1,37
 460 15 460 15 474 0 c 1,38,-1
 63 0 l 2,39,40
 46 0 46 0 44 18 c 0,41,42
 43 26 43 26 42 40 c 0,43,44
 41 56 41 56 38 67 c 0,45,46
 34 82 34 82 49 82 c 0,47,48
 60 82 60 82 80 76 c 0,49,50
 97 71 97 71 112 66 c 128,-1,51
 127 61 127 61 127 67 c 0,52,53
 127 148 127 148 124 248 c 0,54,55
 122 315 122 315 121 342 c 0,56,57
 120 380 120 380 120 388 c 0,58,59
 121 406 121 406 121 430 c 2,60,-1
 121 494 l 2,61,62
 121 666 121 666 119 680 c 0,63,64
 118 686 118 686 113 682 c 0,65,66
 106 677 106 677 100 674 c 0,67,68
 96.2790697674 672.511627907 96.2790697674 672.511627907 92.9734991888 672.511627907 c 0,69,70
 78.511627907 672.511627907 78.511627907 672.511627907 72 701 c 0,71,72
 70.9583333333 705.375 70.9583333333 705.375 70.9583333333 709.532986111 c 0,73,74
 70.9583333333 725.333333333 70.9583333333 725.333333333 86 738 c 0,75,76
 103 752 103 752 129 752 c 2,77,-1
 473 752 l 1,78,79
 445 726 445 726 430 700 c 0,80,81
 408 662 408 662 408 645 c 0,82,83
 408 635 408 635 410 614 c 0,84,85
 411 588 411 588 424 555 c 2,86,-1
 428 544 l 257,87,-1
 409 538 l 1,88,89
 358 518 358 518 330 518 c 0,90,91
 314 518 314 518 316 530 c 128,-1,92
 318 542 318 542 329 561 c 0,93,94
 349 596 349 596 349 618 c 0,95,96
 349 626 349 626 349 626 c 0,97,98
 347 649 347 649 316 660 c 0,99,100
 297 667 297 667 245 680 c 1,101,102
 195 635 195 635 195 544 c 0,103,104
 195 497 195 497 195 497 c 0,105,106
 194 487.5 194 487.5 194 477.75 c 128,-1,107
 194 468 194 468 195 458 c 0,108,109
 196 446 196 446 196 424 c 1,110,111
 202 426 202 426 208 428 c 128,-1,112
 214 430 214 430 219 432 c 0,113,114
 231 436 231 436 231 436 c 0,115,116
 236 438 236 438 298 438 c 0,117,118
 366.121621622 438 366.121621622 438 366.121621622 428.794375457 c 0,119,120
 366.121621622 421.601351351 366.121621622 421.601351351 357 414 c 0,121,122
 351 410 351 410 347.529296875 402.5 c 0,123,124
 345.385605261 397.973948728 345.385605261 397.973948728 345.385605261 391.8759765 c 0,125,126
 345.385605261 374.396108448 345.385605261 374.396108448 363 344 c 1,0,1
EndSplineSet
Validated: 524289
EndChar

StartChar: F
Encoding: 70 70 6
Width: 510
Flags: W
HStem: 0 82<43.2179 126.526> 732 20G<112.222 471.529>
VStem: 120.529 77<373 379.193 414 640.127> 348.529 59.5<557.085 653.865>
LayerCount: 2
Fore
SplineSet
362.529296875 344 m 1,0,1
 263.698838022 380.410803517 263.698838022 380.410803517 233.230608436 380.410803517 c 0,2,3
 229.994305519 380.410803517 229.994305519 380.410803517 227.529296875 380 c 0,4,5
 213.529296875 380 213.529296875 380 208.029296875 372.5 c 128,-1,6
 202.529296875 365 202.529296875 365 197.529296875 373 c 1,7,8
 197.529296875 75 197.529296875 75 205.529296875 67 c 0,9,10
 209.908017886 59.9937288538 209.908017886 59.9937288538 221.141011529 59.9937288538 c 0,11,12
 230.636323248 59.9937288538 230.636323248 59.9937288538 245.029296875 65 c 0,13,14
 256.529296875 69 256.529296875 69 265.529296875 72 c 128,-1,15
 274.529296875 75 274.529296875 75 274.529296875 71 c 0,16,17
 275.529296875 59 275.529296875 59 279.529296875 46 c 128,-1,18
 283.529296875 33 283.529296875 33 286.529296875 22.5 c 128,-1,19
 289.529296875 12 289.529296875 12 289.529296875 5.5 c 128,-1,20
 289.529296875 -1 289.529296875 -1 279.029296875 -0.5 c 128,-1,21
 268.529296875 0 268.529296875 0 242.529296875 0 c 0,22,23
 152.529296875 0 152.529296875 0 62.529296875 0 c 0,24,25
 45.7060546875 0 45.7060546875 0 43.529296875 18.5 c 0,26,27
 42.529296875 27 42.529296875 27 42.029296875 39.5 c 128,-1,28
 41.529296875 52 41.529296875 52 37.529296875 67 c 0,29,30
 34.529296875 82 34.529296875 82 48.529296875 82 c 128,-1,31
 62.529296875 82 62.529296875 82 79.529296875 76.5 c 128,-1,32
 96.529296875 71 96.529296875 71 111.529296875 66 c 128,-1,33
 126.529296875 61 126.529296875 61 126.529296875 67 c 0,34,35
 126.529296875 180 126.529296875 180 124.029296875 247.5 c 128,-1,36
 121.529296875 315 121.529296875 315 120.529296875 342 c 0,37,38
 119.862630208 360 119.862630208 360 119.862630208 374.222222222 c 0,39,40
 119.862630208 381.333333333 119.862630208 381.333333333 120.029296875 387.5 c 0,41,42
 120.529296875 406 120.529296875 406 120.529296875 430 c 2,43,-1
 120.529296875 494.5 l 2,44,45
 120.529296875 574 120.529296875 574 118.529296875 680 c 0,46,47
 118.529296875 687 118.529296875 687 113.029296875 682.5 c 128,-1,48
 107.529296875 678 107.529296875 678 100.029296875 674.5 c 0,49,50
 95.6837521137 672.472147632 95.6837521137 672.472147632 91.9048602483 672.472147632 c 0,51,52
 77.7312385645 672.472147632 77.7312385645 672.472147632 71.529296875 701 c 0,53,54
 70.1066891778 705.742104507 70.1066891778 705.742104507 70.1066891778 710.269797946 c 0,55,56
 70.1066891778 724.434085335 70.1066891778 724.434085335 84.029296875 736.5 c 0,57,58
 101.9140625 752 101.9140625 752 122.529296875 752 c 2,59,-1
 471.529296875 752 l 1,60,61
 444.958007812 725.428710938 444.958007812 725.428710938 429.244140625 698.713867188 c 0,62,63
 408.018043138 662.630646959 408.018043138 662.630646959 408.018043138 645.67125599 c 0,64,65
 408.018043138 635.157552312 408.018043138 635.157552312 409.529296875 614 c 0,66,67
 411.3515625 588.489257812 411.3515625 588.489257812 423.529296875 555 c 2,68,-1
 427.529296875 544 l 257,69,-1
 408.529296875 538 l 1,70,71
 360.634765625 519.374023438 360.634765625 519.374023438 330.029296875 518.5 c 0,72,73
 312.529296875 518 312.529296875 518 315.529296875 530 c 0,74,75
 319.529296875 544 319.529296875 544 329.029296875 561 c 0,76,77
 348.529296875 595.89453125 348.529296875 595.89453125 348.529296875 618 c 0,78,79
 348.529296875 622 348.529296875 622 348.529296875 626 c 0,80,81
 346.529296875 642 346.529296875 642 333.029296875 650.5 c 0,82,83
 303.915039062 668.831054688 303.915039062 668.831054688 250.529296875 679 c 1,84,85
 198.859375 637.171875 198.859375 637.171875 197.029296875 542 c 0,86,87
 196.529296875 516 196.529296875 516 196.529296875 493.5 c 128,-1,88
 196.529296875 471 196.529296875 471 197.029296875 452 c 128,-1,89
 197.529296875 433 197.529296875 433 197.529296875 414 c 1,90,91
 203.529296875 416 203.529296875 416 212.529296875 419.5 c 0,92,93
 237.181640625 429.086914062 237.181640625 429.086914062 251.529296875 433 c 0,94,95
 299.670156344 437.247908538 299.670156344 437.247908538 327.519985711 437.247908538 c 0,96,97
 365.74441256 437.247908538 365.74441256 437.247908538 365.74441256 429.245659841 c 128,-1,98
 365.74441256 421.411336764 365.74441256 421.411336764 356.529296875 414.5 c 0,99,100
 350.529296875 410 350.529296875 410 347.529296875 402.5 c 0,101,102
 345.69193172 397.906223373 345.69193172 397.906223373 345.69193172 391.986778814 c 0,103,104
 345.69193172 374.067509995 345.69193172 374.067509995 362.529296875 344 c 1,0,1
EndSplineSet
Validated: 524289
EndChar

StartChar: G
Encoding: 71 71 7
Width: 513
Flags: W
HStem: 4 64<200.123 313.328> 250 84<269.928 362.635> 683 69<204.481 301.938>
VStem: 39 78<223.891 520.065> 366 81<129.159 249.999>
LayerCount: 2
Fore
SplineSet
44 320 m 1,0,-1
 39 433 l 2,1,2
 39 436 39 436 39 455 c 128,-1,3
 39 474 39 474 45 513 c 128,-1,4
 51 552 51 552 62.5 591.5 c 128,-1,5
 74 631 74 631 96 664 c 0,6,7
 144.106870229 736.160305344 144.106870229 736.160305344 235 751 c 0,8,9
 243 752 243 752 261 752 c 0,10,11
 299.153846154 752 299.153846154 752 354 721 c 0,12,13
 380 705 380 705 402 684 c 0,14,15
 434.744186047 645.302325581 434.744186047 645.302325581 451.5 494.5 c 0,16,17
 457.111111111 444 457.111111111 444 455.555555556 444 c 2,18,-1
 437 444 l 2,19,20
 431 443 431 443 421.5 442.5 c 128,-1,21
 412 442 412 442 402.5 434 c 128,-1,22
 393 426 393 426 385.5 416 c 128,-1,23
 378 406 378 406 373.5 398.5 c 128,-1,24
 369 391 369 391 368 392 c 256,25,26
 367 393 367 393 359.5 398 c 128,-1,27
 352 403 352 403 343.5 409 c 0,28,29
 321 424.882352941 321 424.882352941 321 426.441176471 c 128,-1,30
 321 428 321 428 329.5 436.5 c 128,-1,31
 338 445 338 445 347.5 457 c 0,32,33
 367.815041935 482.661105602 367.815041935 482.661105602 367.815041935 500.825833672 c 0,34,35
 367.815041935 505.000577457 367.815041935 505.000577457 366.741992883 508.779359431 c 0,36,37
 361 529 361 529 352.5 561.5 c 0,38,39
 333.212464589 635.246458924 333.212464589 635.246458924 295 668 c 0,40,41
 278 683 278 683 254 683 c 0,42,43
 223.609756098 683 223.609756098 683 203.304878049 660.5 c 128,-1,44
 183 638 183 638 168.5 607.5 c 128,-1,45
 154 577 154 577 144 541 c 0,46,47
 117 443.8 117 443.8 117 374 c 0,48,49
 117 318 117 318 131 255 c 128,-1,50
 145 192 145 192 161.5 152.5 c 0,51,52
 196.797468354 68 196.797468354 68 243 68 c 0,53,54
 245 68 245 68 247 68 c 0,55,56
 314.320754717 68 314.320754717 68 344 128.5 c 0,57,58
 366 173.346153846 366 173.346153846 366 246 c 1,59,60
 360 250 360 250 351.5 250 c 0,61,62
 317.307692308 250 317.307692308 250 237 214 c 1,63,64
 252.987959255 244.74607549 252.987959255 244.74607549 252.987959255 270.212109218 c 0,65,66
 252.987959255 290.837884856 252.987959255 290.837884856 242.5 308 c 0,67,68
 237 317 237 317 234 325 c 0,69,70
 231 331 231 331 243 332.5 c 128,-1,71
 255 334 255 334 263.5 334 c 2,72,-1
 278 334 l 1,73,74
 299 333 299 333 327 330 c 0,75,76
 333 328 333 328 338.5 326 c 0,77,78
 351.333333333 321.333333333 351.333333333 321.333333333 363 318 c 1,79,80
 377.736842105 325.368421053 377.736842105 325.368421053 425.868421053 334.684210526 c 128,-1,81
 474 344 474 344 474 343 c 256,82,83
 474 342 474 342 468.5 335.5 c 0,84,85
 444 306.545454545 444 306.545454545 444 272 c 1,86,-1
 447 228 l 1,87,-1
 447 218 l 2,88,89
 447 169.714285714 447 169.714285714 430.5 123.357142857 c 128,-1,90
 414 77 414 77 395 55 c 0,91,92
 359 12 359 12 305 4 c 0,93,94
 284.593537273 1.73261525258 284.593537273 1.73261525258 265.548318078 1.73261525258 c 0,95,96
 228.791267261 1.73261525258 228.791267261 1.73261525258 197.104651163 10.1782945736 c 0,97,98
 149 23 149 23 122 47 c 0,99,100
 52.2792207792 108.974025974 52.2792207792 108.974025974 45 240 c 0,101,102
 43 276 43 276 43 290 c 2,103,-1
 43 308 l 2,104,105
 43 314 43 314 44 320 c 1,0,-1
EndSplineSet
Validated: 524321
EndChar

StartChar: w
Encoding: 119 119 8
Width: 952
Flags: W
HStem: 1 69<202.537 264.528 560.609 621.559> 1 45<338.741 392.362 696.735 751.362> 375 20G<816.036 912.5>
LayerCount: 2
Fore
SplineSet
912.5 394 m 1,0,-1
 696.5 53 l 1,1,2
 702 44 702 44 720.778036584 44.2224565244 c 0,3,4
 729 44 729 44 741 46 c 0,5,6
 748 47 748 47 747.5 43 c 0,7,8
 749 24 749 24 756.779296875 14.6513671875 c 0,9,10
 764 5 764 5 765.5 3 c 0,11,12
 766 1 766 1 758 1 c 0,13,14
 666 1 666 1 574.5 1 c 0,15,16
 564 1 564 1 561.5 13 c 0,17,18
 560 19 560 19 560 29.5 c 128,-1,19
 560 40 560 40 556.5 55 c 256,20,21
 554 70 554 70 564.5 70 c 0,22,23
 576 70 576 70 589 65 c 128,-1,24
 602 60 602 60 613 55 c 128,-1,25
 624 50 624 50 621.5 55 c 0,26,27
 596 123 596 123 563 173.5 c 128,-1,28
 530 224 530 224 494.5 267 c 1,29,-1
 338.5 53 l 1,30,31
 344 44 344 44 362.238781074 44.0676512503 c 0,32,33
 371 44 371 44 382.5 46 c 0,34,35
 388 47 388 47 388.5 43 c 0,36,37
 390 24 390 24 397.779296875 14.6513671875 c 0,38,39
 406 5 406 5 406.5 3 c 0,40,41
 408 1 408 1 399.5 1 c 0,42,43
 308 1 308 1 217.5 1 c 0,44,45
 206 1 206 1 203.5 13 c 0,46,47
 202 19 202 19 202 29.5 c 128,-1,48
 202 40 202 40 198.5 55 c 256,49,50
 196 70 196 70 206 70 c 128,-1,51
 216 70 216 70 230 65 c 128,-1,52
 244 60 244 60 254.5 55 c 0,53,54
 266 50 266 50 264.5 55 c 0,55,56
 220 173 220 173 123.5 286.5 c 0,57,58
 98 317 98 317 75.5 346 c 1,59,60
 76 353 76 353 71 348.5 c 128,-1,61
 66 344 66 344 60.5 340.5 c 0,62,63
 54 337 54 337 48 340.5 c 128,-1,64
 42 344 42 344 38.5 361 c 0,65,66
 36 378 36 378 38.5 387 c 0,67,68
 42 396 42 396 48 403 c 0,69,70
 59 415 59 415 75.9189453125 418.604492188 c 0,71,72
 92 422 92 422 105 414.5 c 128,-1,73
 118 407 118 407 127.5 396 c 0,74,75
 138 385 138 385 145.5 374.5 c 0,76,77
 156 361 156 361 159.5 361 c 0,78,79
 194 365 194 365 196.907609115 364.438163575 c 128,-1,80
 200 364 200 364 200.981445312 364.185546875 c 0,81,82
 208 363 208 363 202.5 359 c 0,83,84
 182 344 182 344 180 334.5 c 0,85,86
 178 326 178 326 177.658620843 317.625381171 c 0,87,88
 178 307 178 307 181.56640625 298.553710938 c 0,89,90
 188 283 188 283 203.5 263.5 c 0,91,92
 227 232 227 232 233.5 218 c 0,93,94
 278 122 278 122 290.5 102 c 1,95,-1
 452.5 318 l 1,96,-1
 437.5 337 l 1,97,98
 436 344 436 344 432 339.5 c 128,-1,99
 428 335 428 335 421.5 331.5 c 0,100,101
 416 328 416 328 409.5 331.5 c 0,102,103
 404 335 404 335 401 349 c 128,-1,104
 398 363 398 363 398.5 373 c 0,105,106
 398 383 398 383 411.5 395.5 c 0,107,108
 424 408 424 408 439.5 410.5 c 0,109,110
 454 413 454 413 466.5 405.5 c 0,111,112
 478 398 478 398 489 387 c 128,-1,113
 500 376 500 376 505.5 368.5 c 0,114,115
 517 353 517 353 517.5 352 c 2,116,-1
 569 272 l 2,117,118
 585 247 585 247 597.5 230 c 0,119,120
 639.498501425 152.299447376 639.498501425 152.299447376 656.5 119 c 1,121,-1
 828.5 395 l 1,122,-1
 912.5 394 l 1,0,-1
EndSplineSet
Validated: 524321
EndChar

StartChar: s
Encoding: 115 115 9
Width: 414
Flags: W
HStem: 2 46<120.285 283.675> 379 41<146.088 288.421>
VStem: 54.7976 75.5<291.274 363.017>
LayerCount: 2
Fore
SplineSet
344.297851562 310 m 1,0,1
 292.547851562 379 292.547851562 379 207.297851562 379 c 2,2,-1
 200.297851562 379 l 1,3,4
 172.297851562 376 172.297851562 376 152.797851562 363.5 c 128,-1,5
 133.297851562 351 133.297851562 351 130.297851562 334 c 1,6,-1
 130.297851562 329 l 2,7,8
 130.297851562 314 130.297851562 314 145.797851562 297 c 128,-1,9
 161.297851562 280 161.297851562 280 198.797851562 267 c 128,-1,10
 236.297851562 254 236.297851562 254 264.797851562 244.5 c 0,11,12
 368.297851562 210 368.297851562 210 368.297851562 132 c 0,13,14
 368.297851562 84.478515625 368.297851562 84.478515625 319.297851562 44 c 0,15,16
 268.455078125 2 268.455078125 2 200.297851562 2 c 0,17,18
 106.76171875 2 106.76171875 2 60.7978515625 41 c 0,19,20
 37.0002243332 61.1920592151 37.0002243332 61.1920592151 37.0002243332 89.5541841853 c 0,21,22
 37.0002243332 92.7260022506 37.0002243332 92.7260022506 37.2978515625 96 c 0,23,24
 39.0478515625 115.25 39.0478515625 115.25 47.2978515625 140 c 1,25,26
 72.2080078125 94.01171875 72.2080078125 94.01171875 128.297851562 65 c 0,27,28
 157.297851562 50 157.297851562 50 200.297851562 48 c 1,29,30
 290.666015625 55.376953125 290.666015625 55.376953125 304.297851562 94 c 0,31,32
 305.805913169 97.7707230965 305.805913169 97.7707230965 305.805913169 102.270522266 c 0,33,34
 305.805913169 113.214373454 305.805913169 113.214373454 296.885742188 128.470703125 c 0,35,36
 284.297851562 150 284.297851562 150 259.797851562 167 c 0,37,38
 201.452148438 207.484375 201.452148438 207.484375 126.297851562 215 c 0,39,40
 87.7158203125 218.5078125 87.7158203125 218.5078125 67.7978515625 256 c 0,41,42
 54.7799944196 280.50453404 54.7799944196 280.50453404 54.7799944196 308.618581344 c 0,43,44
 54.7799944196 339.256987578 54.7799944196 339.256987578 66.7978515625 356.5 c 0,45,46
 78.2978515625 373 78.2978515625 373 97.2978515625 385 c 0,47,48
 134.712890625 408.630859375 134.712890625 408.630859375 193.297851562 417 c 0,49,50
 213.297851562 420 213.297851562 420 234.797851562 420 c 0,51,52
 296.797851562 420 296.797851562 420 340.297851562 391 c 0,53,54
 368.769275961 370.964496895 368.769275961 370.964496895 368.769275961 349.911330752 c 0,55,56
 368.769275961 330.393010269 368.769275961 330.393010269 344.297851562 310 c 1,0,1
EndSplineSet
Validated: 524289
EndChar

StartChar: H
Encoding: 72 72 10
Width: 733
Flags: W
HStem: 0 81<98.1267 173 427.735 509> 191 66<125.051 171 266 507> 671.5 80<463.85 502.875>
VStem: 169 96<66.0983 191 257 639.024> 504 96.5<64 187 261 639.655>
LayerCount: 2
Fore
SplineSet
507 261 m 1,0,1
 504 321 504 321 504 386 c 2,2,-1
 504 578 l 2,3,4
 504 624 504 624 502 677 c 0,5,6
 502 684 502 684 496.5 679.5 c 128,-1,7
 491 675 491 675 483 671.5 c 128,-1,8
 475 668 475 668 467 671.5 c 128,-1,9
 459 675 459 675 455.5 692 c 128,-1,10
 452 709 452 709 456 718 c 128,-1,11
 460 727 460 727 468.5 734 c 0,12,13
 489.142857143 751 489.142857143 751 509.571428571 751.5 c 0,14,15
 510.933333333 751.533333333 510.933333333 751.533333333 512.268888889 751.533333333 c 0,16,17
 530.966666667 751.533333333 530.966666667 751.533333333 544.5 745 c 0,18,19
 559 738 559 738 572.5 727 c 128,-1,20
 586 716 586 716 596.5 705.5 c 128,-1,21
 607 695 607 695 615 692 c 0,22,23
 651.153503018 695.443190764 651.153503018 695.443190764 664.759120889 695.443190764 c 0,24,25
 668.454473891 695.443190764 668.454473891 695.443190764 670.486486486 695.189189189 c 0,26,27
 680 694 680 694 673 690 c 0,28,29
 603.720200753 652.885821832 603.720200753 652.885821832 600 545 c 0,30,31
 599.333333333 525.666666667 599.333333333 525.666666667 599.333333333 496.333333333 c 0,32,33
 599.333333333 481.666666667 599.333333333 481.666666667 599.5 464.5 c 0,34,35
 600 413 600 413 600.5 339.5 c 128,-1,36
 601 266 601 266 601.5 206 c 0,37,38
 602.623595506 71.1685393258 602.623595506 71.1685393258 607.811797753 63.5842696629 c 128,-1,39
 613 56 613 56 624.5 57 c 128,-1,40
 636 58 636 58 647.5 62 c 128,-1,41
 659 66 659 66 668 69 c 128,-1,42
 677 72 677 72 677 68 c 0,43,44
 678.353846154 51.7538461538 678.353846154 51.7538461538 685.676923077 31.8769230769 c 128,-1,45
 693 12 693 12 692.5 6 c 128,-1,46
 692 0 692 0 681 0 c 0,47,48
 564.5 0 564.5 0 448 0 c 0,49,50
 431.6875 0 431.6875 0 428.5 17 c 0,51,52
 427 25 427 25 426.5 37 c 128,-1,53
 426 49 426 49 423 64 c 0,54,55
 419 79 419 79 432 79 c 128,-1,56
 445 79 445 79 462 73.5 c 128,-1,57
 479 68 479 68 494 63 c 128,-1,58
 509 58 509 58 509 64 c 2,59,-1
 509 132 l 2,60,61
 509 162 509 162 508 187 c 1,62,-1
 266 191 l 1,63,64
 268.173076923 73.6538461538 268.173076923 73.6538461538 272.586538462 65.8269230769 c 128,-1,65
 277 58 277 58 288.5 59 c 128,-1,66
 300 60 300 60 311.5 64 c 128,-1,67
 323 68 323 68 332 71 c 128,-1,68
 341 74 341 74 341 70 c 0,69,70
 342 58 342 58 346.5 45 c 128,-1,71
 351 32 351 32 354 22 c 128,-1,72
 357 12 357 12 357 6 c 128,-1,73
 357 0 357 0 346.5 0 c 0,74,75
 229.75 0 229.75 0 113 0 c 0,76,77
 102 0 102 0 98 4.5 c 128,-1,78
 94 9 94 9 92.5 18 c 128,-1,79
 91 27 91 27 90.5 39 c 128,-1,80
 90 51 90 51 87 66 c 0,81,82
 83 81 83 81 96 81 c 128,-1,83
 109 81 109 81 126 75.5 c 128,-1,84
 143 70 143 70 158 65 c 128,-1,85
 173 60 173 60 173 66 c 2,86,-1
 173 135.5 l 2,87,88
 173 166 173 166 172 191 c 1,89,-1
 109 191 l 1,90,91
 109 192 109 192 97.5 190 c 128,-1,92
 86 188 86 188 72 186 c 128,-1,93
 58 184 58 184 46.5 182 c 128,-1,94
 35 180 35 180 35 181 c 256,95,96
 35 182 35 182 48.5 194 c 128,-1,97
 62 206 62 206 78.5 221 c 128,-1,98
 95 236 95 236 109 248.5 c 128,-1,99
 123 261 123 261 125 263 c 1,100,101
 126.290322581 259.129032258 126.290322581 259.129032258 171 257 c 1,102,-1
 170 345 l 2,103,104
 169 380 169 380 169 416.5 c 2,105,-1
 169 580 l 2,106,107
 169 626 169 626 168 679 c 0,108,109
 168 686 168 686 162.5 681.5 c 128,-1,110
 157 677 157 677 149 673.5 c 0,111,112
 144.32700827 671.455566118 144.32700827 671.455566118 140.289981528 671.455566118 c 0,113,114
 125.205311713 671.455566118 125.205311713 671.455566118 119 700 c 0,115,116
 118.345281445 703.600952052 118.345281445 703.600952052 118.345281445 707.028634737 c 0,117,118
 118.345281445 723.519643543 118.345281445 723.519643543 133.5 736 c 0,119,120
 154.142857143 753 154.142857143 753 175.071428571 753.5 c 0,121,122
 176.466666667 753.533333333 176.466666667 753.533333333 177.831111111 753.533333333 c 0,123,124
 196.933333333 753.533333333 196.933333333 753.533333333 210 747 c 0,125,126
 224 740 224 740 237.5 729 c 128,-1,127
 251 718 251 718 261.5 707.5 c 128,-1,128
 272 697 272 697 280 694 c 0,129,130
 316.224709784 697.44997236 316.224709784 697.44997236 329.509677978 697.44997236 c 0,131,132
 333.125207297 697.44997236 333.125207297 697.44997236 335.041666667 697.194444444 c 0,133,134
 344 696 344 696 337 692 c 0,135,136
 268.69140625 654.05078125 268.69140625 654.05078125 265 547 c 1,137,-1
 265 490 l 1,138,139
 266 449 266 449 266 410 c 2,140,-1
 265 331 l 2,141,142
 265 293 265 293 266 257 c 1,143,144
 303 257 303 257 507 261 c 1,0,1
EndSplineSet
Validated: 524289
EndChar

StartChar: I
Encoding: 73 73 11
Width: 349
Flags: W
HStem: 0 82<43.5433 126.526>
VStem: 120.529 96<70.145 640.024>
LayerCount: 2
Fore
SplineSet
120.529296875 342 m 2,0,1
 119.862630208 360 119.862630208 360 119.862630208 374.222222222 c 0,2,3
 119.862630208 381.333333333 119.862630208 381.333333333 120.029296875 387.5 c 0,4,5
 120.529296875 406 120.529296875 406 120.529296875 430 c 2,6,-1
 120.529296875 514 l 2,7,8
 120.529296875 574 120.529296875 574 118.529296875 680 c 0,9,10
 118.529296875 687 118.529296875 687 113.029296875 682.5 c 128,-1,11
 107.529296875 678 107.529296875 678 100.029296875 674.5 c 0,12,13
 95.6837521137 672.472147632 95.6837521137 672.472147632 91.9048602483 672.472147632 c 0,14,15
 77.7312385645 672.472147632 77.7312385645 672.472147632 71.529296875 701 c 0,16,17
 70.28030106 705.579944823 70.28030106 705.579944823 70.28030106 709.92430121 c 0,18,19
 70.28030106 724.853145205 70.28030106 724.853145205 85.029296875 737 c 0,20,21
 105.671875 754 105.671875 754 126.600585938 754 c 128,-1,22
 147.529296875 754 147.529296875 754 162.029296875 747 c 128,-1,23
 176.529296875 740 176.529296875 740 189.529296875 729.5 c 128,-1,24
 202.529296875 719 202.529296875 719 213.029296875 708.5 c 128,-1,25
 223.529296875 698 223.529296875 698 231.529296875 695 c 0,26,27
 267.686387747 698.443203296 267.686387747 698.443203296 281.291101098 698.443203296 c 0,28,29
 284.984372601 698.443203296 284.984372601 698.443203296 287.015625 698.189453125 c 0,30,31
 296.529296875 697 296.529296875 697 288.529296875 693 c 0,32,33
 220.220703125 655.05078125 220.220703125 655.05078125 216.529296875 548 c 1,34,-1
 216.529296875 491 l 1,35,36
 217.529296875 416 217.529296875 416 217.529296875 342.5 c 128,-1,37
 217.529296875 269 217.529296875 269 218.029296875 209 c 0,38,39
 219.1640625 72.8203125 219.1640625 72.8203125 223.846679688 65.91015625 c 128,-1,40
 228.529296875 59 228.529296875 59 240.029296875 60 c 128,-1,41
 251.529296875 61 251.529296875 61 263.029296875 65 c 128,-1,42
 274.529296875 69 274.529296875 69 283.529296875 72 c 128,-1,43
 292.529296875 75 292.529296875 75 292.529296875 71 c 0,44,45
 293.529296875 59 293.529296875 59 298.529296875 46 c 128,-1,46
 303.529296875 33 303.529296875 33 306.529296875 23 c 0,47,48
 313.4296875 0 313.4296875 0 300.529296875 0 c 2,49,-1
 63.529296875 0 l 2,50,51
 47.2939453125 0 47.2939453125 0 44.029296875 18.5 c 0,52,53
 42.529296875 27 42.529296875 27 42.029296875 39.5 c 128,-1,54
 41.529296875 52 41.529296875 52 37.529296875 67 c 0,55,56
 34.529296875 82 34.529296875 82 48.529296875 82 c 128,-1,57
 62.529296875 82 62.529296875 82 79.529296875 76.5 c 128,-1,58
 96.529296875 71 96.529296875 71 111.529296875 66 c 128,-1,59
 126.529296875 61 126.529296875 61 126.529296875 67 c 0,60,61
 126.529296875 180 126.529296875 180 124.029296875 247.5 c 2,62,-1
 120.529296875 342 l 2,0,1
EndSplineSet
Validated: 524289
EndChar

StartChar: J
Encoding: 74 74 12
Width: 554
Flags: W
HStem: -2 86<207.176 334.316> 669.5 79.5<319.353 360.155>
VStem: 64 98<128.909 276> 359 110.5<398.706 665.689> 377 85<191.662 649.294>
LayerCount: 2
Fore
SplineSet
514 688 m 0,0,1
 473.509881423 664.380764163 473.509881423 664.380764163 469.5 577.5 c 0,2,3
 464.106382979 460.638297872 464.106382979 460.638297872 462 448 c 1,4,-1
 462 442 l 1,5,6
 456.787878788 246.545454545 456.787878788 246.545454545 436 153 c 1,7,-1
 434 141 l 1,8,-1
 425 107 l 1,9,10
 396.542857143 21.6285714286 396.542857143 21.6285714286 349 7 c 0,11,12
 320 -2 320 -2 302.5 -2 c 2,13,-1
 283 -2 l 2,14,15
 218.5 -2 218.5 -2 161.5 26 c 0,16,17
 89.3887362637 61.4230769231 89.3887362637 61.4230769231 70 170 c 0,18,19
 64 200 64 200 64 214.5 c 2,20,-1
 64 233 l 1,21,-1
 67 276 l 1,22,23
 63.6641221374 316.030534351 63.6641221374 316.030534351 42 339.5 c 0,24,25
 36 346 36 346 36 347 c 128,-1,26
 36 348 36 348 47 347.5 c 128,-1,27
 58 347 58 347 74 346 c 128,-1,28
 90 345 90 345 109 343.5 c 128,-1,29
 128 342 128 342 144.5 340 c 128,-1,30
 161 338 161 338 172 336.5 c 128,-1,31
 183 335 183 335 184 334 c 128,-1,32
 185 333 185 333 178.5 313.5 c 128,-1,33
 172 294 172 294 167 265.5 c 128,-1,34
 162 237 162 237 162 204 c 0,35,36
 162 129.733333333 162 129.733333333 218 98 c 0,37,38
 243 84 243 84 282 84 c 0,39,40
 292.5 84 292.5 84 303 84 c 0,41,42
 344.576923077 84 344.576923077 84 365 202 c 0,43,44
 377 271.333333333 377 271.333333333 377 349.166666667 c 128,-1,45
 377 427 377 427 375.5 442 c 128,-1,46
 374 457 374 457 374 462 c 128,-1,47
 374 467 374 467 368.5 524 c 128,-1,48
 363 581 363 581 359 675 c 0,49,50
 359 682 359 682 353 677.5 c 128,-1,51
 347 673 347 673 339 669.5 c 128,-1,52
 331 666 331 666 323 669.5 c 128,-1,53
 315 673 315 673 311 690 c 128,-1,54
 307 707 307 707 311.5 716 c 128,-1,55
 316 725 316 725 324.5 732 c 0,56,57
 345.142857143 749 345.142857143 749 373 749 c 0,58,59
 374.683236145 749.120231153 374.683236145 749.120231153 376.357562351 749.120231153 c 0,60,61
 400.072517133 749.120231153 400.072517133 749.120231153 422 725 c 0,62,63
 432 714 432 714 440 703.5 c 128,-1,64
 448 693 448 693 456 690 c 0,65,66
 487.493863733 693.149386373 487.493863733 693.149386373 502.515757009 693.149386373 c 0,67,68
 516.215227769 693.149386373 516.215227769 693.149386373 516.215227769 690.530092789 c 0,69,70
 516.215227769 689.476818513 516.215227769 689.476818513 514 688 c 0,0,1
EndSplineSet
Validated: 524289
EndChar

StartChar: K
Encoding: 75 75 13
Width: 694
Flags: W
HStem: -145 3<654.941 655.941> 0 83<44.3008 123.566> 675.5 80<79.7909 119.379>
VStem: 119.941 95.5<68.2751 187 361 641.441>
LayerCount: 2
Fore
SplineSet
123.94140625 68 m 2,0,1
 120.94140625 347 l 2,2,3
 119.94140625 382 119.94140625 382 119.94140625 418.5 c 2,4,-1
 119.94140625 582 l 2,5,6
 119.94140625 628 119.94140625 628 118.94140625 681 c 0,7,8
 118.94140625 688 118.94140625 688 112.94140625 683.5 c 128,-1,9
 106.94140625 679 106.94140625 679 98.94140625 675.5 c 128,-1,10
 90.94140625 672 90.94140625 672 82.94140625 675.5 c 128,-1,11
 74.94140625 679 74.94140625 679 71.44140625 696 c 128,-1,12
 67.94140625 713 67.94140625 713 71.94140625 722 c 128,-1,13
 75.94140625 731 75.94140625 731 84.44140625 738 c 0,14,15
 105.083984375 755 105.083984375 755 126.012695312 755.5 c 0,16,17
 127.407942708 755.533333333 127.407942708 755.533333333 128.772395833 755.533333333 c 0,18,19
 147.874739583 755.533333333 147.874739583 755.533333333 160.94140625 749 c 0,20,21
 174.94140625 742 174.94140625 742 188.44140625 731 c 128,-1,22
 201.94140625 720 201.94140625 720 212.44140625 709.5 c 128,-1,23
 222.94140625 699 222.94140625 699 230.94140625 696 c 0,24,25
 267.098497122 699.443203296 267.098497122 699.443203296 280.703210473 699.443203296 c 0,26,27
 284.396481976 699.443203296 284.396481976 699.443203296 286.427734375 699.189453125 c 0,28,29
 295.94140625 698 295.94140625 698 288.94140625 694 c 0,30,31
 219.661132812 656.885742188 219.661132812 656.885742188 215.94140625 549 c 0,32,33
 214.94140625 520 214.94140625 520 214.94140625 489.5 c 128,-1,34
 214.94140625 459 214.94140625 459 215.44140625 426 c 128,-1,35
 215.94140625 393 215.94140625 393 215.94140625 361 c 1,36,37
 227.94140625 377 227.94140625 377 245.94140625 402.5 c 128,-1,38
 263.94140625 428 263.94140625 428 285.94140625 458.5 c 0,39,40
 384.5859375 595.2578125 384.5859375 595.2578125 493.94140625 752 c 1,41,-1
 581.94140625 752 l 1,42,-1
 402.94140625 475 l 1,43,-1
 416.94140625 451 l 1,44,45
 437.748046875 409.38671875 437.748046875 409.38671875 449.844726562 335.193359375 c 128,-1,46
 461.94140625 261 461.94140625 261 469.44140625 210.5 c 128,-1,47
 476.94140625 160 476.94140625 160 484.44140625 114.5 c 0,48,49
 502.747070312 3.443359375 502.747070312 3.443359375 518.84375 -27.2783203125 c 128,-1,50
 534.94140625 -58 534.94140625 -58 557.94140625 -80.5 c 128,-1,51
 580.94140625 -103 580.94140625 -103 602.44140625 -116.5 c 128,-1,52
 623.94140625 -130 623.94140625 -130 639.44140625 -136 c 128,-1,53
 654.94140625 -142 654.94140625 -142 655.94140625 -142 c 258,54,-1
 642.94140625 -145 l 2,55,56
 617.095252404 -150.538461538 617.095252404 -150.538461538 595.509453587 -150.538461538 c 0,57,58
 593.710637019 -150.538461538 593.710637019 -150.538461538 591.94140625 -150.5 c 0,59,60
 568.94140625 -150 568.94140625 -150 553.94140625 -150 c 128,-1,61
 538.94140625 -150 538.94140625 -150 518.44140625 -141.5 c 128,-1,62
 497.94140625 -133 497.94140625 -133 482.94140625 -123.5 c 128,-1,63
 467.94140625 -114 467.94140625 -114 456.94140625 -100 c 0,64,65
 437.447265625 -75.189453125 437.447265625 -75.189453125 419.94140625 -11 c 0,66,67
 419.94140625 0.3330078125 419.94140625 0.3330078125 399.94140625 93.6669921875 c 128,-1,68
 379.94140625 187 379.94140625 187 370.94140625 229.5 c 128,-1,69
 361.94140625 272 361.94140625 272 353.44140625 311 c 128,-1,70
 344.94140625 350 344.94140625 350 339.94140625 378 c 1,71,-1
 216.94140625 187 l 1,72,73
 216.94140625 76 216.94140625 76 222.44140625 68 c 128,-1,74
 227.94140625 60 227.94140625 60 239.44140625 61 c 128,-1,75
 250.94140625 62 250.94140625 62 262.44140625 66 c 128,-1,76
 273.94140625 70 273.94140625 70 282.94140625 73 c 128,-1,77
 291.94140625 76 291.94140625 76 291.94140625 72 c 0,78,79
 292.94140625 60 292.94140625 60 297.44140625 47 c 128,-1,80
 301.94140625 34 301.94140625 34 304.94140625 23.5 c 128,-1,81
 307.94140625 13 307.94140625 13 307.94140625 6.5 c 128,-1,82
 307.94140625 0 307.94140625 0 299.94140625 0 c 2,83,-1
 64.94140625 0 l 2,84,85
 47.607421875 0 47.607421875 0 44.44140625 19 c 0,86,87
 42.94140625 28 42.94140625 28 41.94140625 40.5 c 128,-1,88
 40.94140625 53 40.94140625 53 37.94140625 68 c 0,89,90
 33.94140625 83 33.94140625 83 46.94140625 83 c 128,-1,91
 59.94140625 83 59.94140625 83 76.94140625 77.5 c 128,-1,92
 93.94140625 72 93.94140625 72 108.94140625 67 c 128,-1,93
 123.94140625 62 123.94140625 62 123.94140625 68 c 2,0,1
EndSplineSet
Validated: 524289
EndChar

StartChar: L
Encoding: 76 76 14
Width: 511
Flags: W
HStem: 0 53<219.483 289.467>
VStem: 120.529 97<70.145 641.182> 360.529 56.4678<76.7169 182.849>
LayerCount: 2
Fore
SplineSet
217.529296875 340.5 m 2,0,-1
 217.529296875 163.833007812 l 2,1,2
 217.529296875 62.6669921875 217.529296875 62.6669921875 222.529296875 56 c 0,3,4
 222.529296875 55 222.529296875 55 224.529296875 53 c 0,5,6
 243.529296875 53 243.529296875 53 263.029296875 57 c 128,-1,7
 282.529296875 61 282.529296875 61 285.029296875 62 c 128,-1,8
 287.529296875 63 287.529296875 63 289.529296875 62 c 0,9,10
 333.836914062 71.845703125 333.836914062 71.845703125 341.529296875 78 c 0,11,12
 358.529296875 88 358.529296875 88 360.529296875 106 c 1,13,-1
 360.529296875 113 l 2,14,15
 360.529296875 139 360.529296875 139 346.029296875 168 c 128,-1,16
 331.529296875 197 331.529296875 197 329.029296875 207.5 c 128,-1,17
 326.529296875 218 326.529296875 218 333.529296875 220 c 128,-1,18
 340.529296875 222 340.529296875 222 352.029296875 220.5 c 128,-1,19
 363.529296875 219 363.529296875 219 377.529296875 215 c 0,20,21
 406.9296875 206.599609375 406.9296875 206.599609375 432.529296875 197 c 1,22,-1
 428.529296875 187 l 2,23,24
 418.46484375 161.838867188 418.46484375 161.838867188 416.997070312 141.418945312 c 0,25,26
 415.659265303 122.805190445 415.659265303 122.805190445 415.659265303 110.330465804 c 0,27,28
 415.659265303 98.1273311081 415.659265303 98.1273311081 416.939453125 91.798828125 c 0,29,30
 421.731445312 68.1171875 421.731445312 68.1171875 440.129882812 41.55859375 c 128,-1,31
 458.529296875 15 458.529296875 15 472.529296875 0 c 1,32,-1
 66.529296875 0 l 2,33,34
 49.8828125 0 49.8828125 0 45.529296875 18.5 c 0,35,36
 43.529296875 27 43.529296875 27 42.529296875 39.5 c 128,-1,37
 41.529296875 52 41.529296875 52 37.529296875 67 c 0,38,39
 34.529296875 82 34.529296875 82 48.529296875 82 c 128,-1,40
 62.529296875 82 62.529296875 82 79.529296875 76.5 c 128,-1,41
 96.529296875 71 96.529296875 71 111.529296875 66 c 128,-1,42
 126.529296875 61 126.529296875 61 126.529296875 67 c 0,43,44
 126.529296875 180 126.529296875 180 124.029296875 247.5 c 128,-1,45
 121.529296875 315 121.529296875 315 120.529296875 342 c 0,46,47
 119.862630208 360 119.862630208 360 119.862630208 374.222222222 c 0,48,49
 119.862630208 381.333333333 119.862630208 381.333333333 120.029296875 387.5 c 0,50,51
 120.529296875 406 120.529296875 406 120.529296875 430 c 2,52,-1
 120.529296875 494.5 l 2,53,54
 120.529296875 574 120.529296875 574 118.529296875 680 c 0,55,56
 118.529296875 687 118.529296875 687 113.029296875 682.5 c 128,-1,57
 107.529296875 678 107.529296875 678 100.029296875 674.5 c 0,58,59
 95.6837521137 672.472147632 95.6837521137 672.472147632 91.9048602483 672.472147632 c 0,60,61
 77.7312385645 672.472147632 77.7312385645 672.472147632 71.529296875 701 c 0,62,63
 70.28030106 705.579944823 70.28030106 705.579944823 70.28030106 709.92430121 c 0,64,65
 70.28030106 724.853145205 70.28030106 724.853145205 85.029296875 737 c 0,66,67
 105.671875 754 105.671875 754 126.600585938 754 c 128,-1,68
 147.529296875 754 147.529296875 754 162.029296875 747 c 128,-1,69
 176.529296875 740 176.529296875 740 189.529296875 729.5 c 128,-1,70
 202.529296875 719 202.529296875 719 213.029296875 708.5 c 128,-1,71
 223.529296875 698 223.529296875 698 231.529296875 695 c 0,72,73
 267.686387747 698.443203296 267.686387747 698.443203296 281.291101098 698.443203296 c 0,74,75
 284.984372601 698.443203296 284.984372601 698.443203296 287.015625 698.189453125 c 0,76,77
 296.529296875 697 296.529296875 697 288.529296875 693 c 0,78,79
 220.220703125 655.05078125 220.220703125 655.05078125 216.529296875 548 c 1,80,-1
 216.529296875 491 l 1,81,82
 217.529296875 416 217.529296875 416 217.529296875 340.5 c 2,0,-1
EndSplineSet
Validated: 524289
EndChar

StartChar: M
Encoding: 77 77 15
Width: 681
Flags: W
HStem: 0 21G<66.2591 272.259 328.492 405.259 549.259 643.759> 743 4.5<316.282 344.912>
VStem: 157.759 62.5<65.821 514.915> 332.259 73<1 93.9333> 510.259 62<211.676 519>
LayerCount: 2
Fore
SplineSet
228.258789062 516 m 0,0,1
 224.02734375 511.767578125 224.02734375 511.767578125 222.143554688 392.883789062 c 128,-1,2
 220.258789062 274 220.258789062 274 220.258789062 247 c 2,3,-1
 220.258789062 190 l 1,4,5
 224.891601562 74.18359375 224.891601562 74.18359375 238.075195312 67.591796875 c 0,6,7
 268.518554688 52.3701171875 268.518554688 52.3701171875 272.258789062 0 c 1,8,9
 171.758789062 0 171.758789062 0 71.2587890625 0 c 0,10,11
 61.2587890625 0 61.2587890625 0 52.7587890625 9 c 128,-1,12
 44.2587890625 18 44.2587890625 18 40.2587890625 31 c 0,13,14
 36.9996488764 41.592371718 36.9996488764 41.592371718 36.9996488764 50.3015490338 c 0,15,16
 36.9996488764 67.1925589839 36.9996488764 67.1925589839 49.2587890625 77 c 1,17,18
 44.814453125 70.3330078125 44.814453125 70.3330078125 59.037109375 59.6669921875 c 0,19,20
 82.8171439235 41.8312987726 82.8171439235 41.8312987726 99.1519181212 41.8312987726 c 0,21,22
 100.740564574 41.8312987726 100.740564574 41.8312987726 102.258789062 42 c 0,23,24
 130.258789062 46 130.258789062 46 140.758789062 63 c 128,-1,25
 151.258789062 80 151.258789062 80 153.758789062 124 c 128,-1,26
 156.258789062 168 156.258789062 168 157.758789062 204 c 128,-1,27
 159.258789062 240 159.258789062 240 160.258789062 268.5 c 128,-1,28
 161.258789062 297 161.258789062 297 161.258789062 323.5 c 128,-1,29
 161.258789062 350 161.258789062 350 159.758789062 384.5 c 128,-1,30
 158.258789062 419 158.258789062 419 156.258789062 465.5 c 128,-1,31
 154.258789062 512 154.258789062 512 151.258789062 564 c 128,-1,32
 148.258789062 616 148.258789062 616 139.258789062 646 c 128,-1,33
 130.258789062 676 130.258789062 676 120.758789062 698 c 128,-1,34
 111.258789062 720 111.258789062 720 103.758789062 733 c 128,-1,35
 96.2587890625 746 96.2587890625 746 96.2587890625 747 c 256,36,37
 96.2587890625 748 96.2587890625 748 112.258789062 745 c 0,38,39
 138.92578125 740 138.92578125 740 184.258789062 732 c 1,40,-1
 200.258789062 730 l 1,41,42
 209.951171875 751 209.951171875 751 252.258789062 751 c 0,43,44
 282.92578125 751 282.92578125 751 308.592773438 747.5 c 128,-1,45
 334.258789062 744 334.258789062 744 345.258789062 743 c 1,46,47
 316.28125 740.365234375 316.28125 740.365234375 286.258789062 697 c 1,48,49
 288.258789062 689 288.258789062 689 294.258789062 651.5 c 128,-1,50
 300.258789062 614 300.258789062 614 308.758789062 561.5 c 128,-1,51
 317.258789062 509 317.258789062 509 326.258789062 449 c 128,-1,52
 335.258789062 389 335.258789062 389 343.258789062 337 c 0,53,54
 362.258789062 213.5 362.258789062 213.5 362.258789062 204 c 1,55,56
 363.258789062 211 363.258789062 211 367.258789062 236 c 2,57,-1
 377.258789062 298.5 l 2,58,59
 389.1796875 373 389.1796875 373 403.21875 451 c 128,-1,60
 417.258789062 529 417.258789062 529 426.258789062 579.5 c 128,-1,61
 435.258789062 630 435.258789062 630 440.758789062 657 c 0,62,63
 444.792122396 676.8 444.792122396 676.8 444.792122396 688.533333333 c 0,64,65
 444.792122396 692.8 444.792122396 692.8 444.258789062 696 c 0,66,67
 441.592773438 712 441.592773438 712 431.258789062 743 c 1,68,69
 451.258789062 747 451.258789062 747 462.758789062 747 c 2,70,-1
 477.258789062 747 l 1,71,72
 525.46484375 744.462890625 525.46484375 744.462890625 544.258789062 712 c 1,73,74
 585.677298627 745.134415845 585.677298627 745.134415845 611.946425949 745.134415845 c 0,75,76
 624.962175146 745.134415845 624.962175146 745.134415845 634.258789062 737 c 1,77,78
 578.258789062 663.5 578.258789062 663.5 578.258789062 587 c 0,79,80
 575.258789062 497 575.258789062 497 572.258789062 438.5 c 128,-1,81
 569.258789062 380 569.258789062 380 568.258789062 343 c 128,-1,82
 567.258789062 306 567.258789062 306 565.758789062 271.5 c 0,83,84
 562.258789062 191 562.258789062 191 562.258789062 156 c 1,85,86
 571.900390625 90.1220703125 571.900390625 90.1220703125 612.258789062 39 c 0,87,88
 627.258789062 20 627.258789062 20 636.758789062 11 c 128,-1,89
 646.258789062 2 646.258789062 2 641.258789062 0 c 1,90,-1
 549.258789062 1 l 1,91,-1
 457.258789062 1 l 1,92,93
 467.037109375 43.3701171875 467.037109375 43.3701171875 492.258789062 77 c 0,94,95
 511.258789062 102.333007812 511.258789062 102.333007812 511.258789062 412.5 c 0,96,97
 511.258789062 459 511.258789062 459 510.258789062 489 c 2,98,-1
 510.258789062 519 l 1,99,100
 508.087890625 519 508.087890625 519 495.173828125 462.5 c 128,-1,101
 482.258789062 406 482.258789062 406 471.758789062 361 c 128,-1,102
 461.258789062 316 461.258789062 316 451.258789062 268.5 c 128,-1,103
 441.258789062 221 441.258789062 221 431.758789062 175 c 128,-1,104
 422.258789062 129 422.258789062 129 415.758789062 92 c 0,105,106
 404.373672426 27.190592004 404.373672426 27.190592004 404.373672426 8.094821844 c 0,107,108
 404.373672426 2.77044619472 404.373672426 2.77044619472 405.258789062 1 c 1,109,-1
 332.258789062 1 l 1,110,111
 324.723632812 16.0712890625 324.723632812 16.0712890625 287.991210938 210.536132812 c 128,-1,112
 251.258789062 405 251.258789062 405 244.258789062 439.5 c 128,-1,113
 237.258789062 474 237.258789062 474 233.258789062 495 c 128,-1,114
 229.258789062 516 229.258789062 516 228.258789062 516 c 0,0,1
EndSplineSet
Validated: 524289
EndChar

StartChar: N
Encoding: 78 78 16
Width: 611
Flags: W
HStem: 0 48<83.5072 141.195> 732 20G<412.5 466>
VStem: 37 62<48.0002 97.9284> 49 38<625.624 672.968> 168 55<104.898 476.165> 371 115<0 114.454> 412 69<174.109 649.39>
LayerCount: 2
Fore
SplineSet
311 1 m 1,0,-1
 210.5 0 l 2,1,2
 154.75 0 154.75 0 114.875 0 c 128,-1,3
 75 0 75 0 62.5 9 c 0,4,5
 38.8089005236 26.057591623 38.8089005236 26.057591623 37.5 47 c 2,6,-1
 37 53 l 1,7,8
 37 73 37 73 50.5 89.5 c 0,9,10
 69.7545972686 113.033396662 69.7545972686 113.033396662 90.033645112 113.033396662 c 0,11,12
 98.429032094 113.033396662 98.429032094 113.033396662 107 109 c 1,13,14
 83.4163683022 86.7265700632 83.4163683022 86.7265700632 83.4163683022 70.8176560242 c 0,15,16
 83.4163683022 66.6951406283 83.4163683022 66.6951406283 85 63 c 0,17,18
 88 56 88 56 93.5 53 c 128,-1,19
 99 50 99 50 99 49 c 256,20,21
 99 48 99 48 109 48 c 128,-1,22
 119 48 119 48 130.5 57.5 c 0,23,24
 161.620752984 83.2084481175 161.620752984 83.2084481175 165 166 c 0,25,26
 168 204 168 204 168 257.5 c 0,27,28
 168 420 168 420 147 595 c 0,29,30
 142 637 142 637 127.5 655.5 c 128,-1,31
 113 674 113 674 100 674 c 128,-1,32
 87 674 87 674 87 659.5 c 128,-1,33
 87 645 87 645 105 625 c 1,34,35
 95.3625493777 602.512615215 95.3625493777 602.512615215 82.6332385614 602.512615215 c 0,36,37
 72.9594571635 602.512615215 72.9594571635 602.512615215 61.5 615.5 c 0,38,39
 54 624 54 624 49 637 c 1,40,41
 49 681 49 681 85 718.5 c 0,42,43
 109.179104478 743.686567164 109.179104478 743.686567164 148 748 c 0,44,45
 158.103793354 749.122643706 158.103793354 749.122643706 167.313879844 749.122643706 c 0,46,47
 217.340968781 749.122643706 217.340968781 749.122643706 241 716 c 256,48,49
 261.175438596 687.754385965 261.175438596 687.754385965 281.587719298 623.377192982 c 128,-1,50
 302 559 302 559 316 512 c 128,-1,51
 330 465 330 465 343 417.5 c 128,-1,52
 356 370 356 370 367 326.5 c 0,53,54
 391.851851852 228.222222222 391.851851852 228.222222222 400 194 c 1,55,-1
 406 174 l 2,56,57
 407 173 407 173 407.5 194.5 c 128,-1,58
 408 216 408 216 409 250 c 128,-1,59
 410 284 410 284 411 325 c 128,-1,60
 412 366 412 366 412 405 c 2,61,-1
 412 521 l 2,62,63
 412 570 412 570 405 598 c 0,64,65
 394.285714286 640.857142857 394.285714286 640.857142857 382.142857143 672.428571429 c 0,66,67
 370.923913043 701.597826087 370.923913043 701.597826087 370.923913043 714.060609641 c 0,68,69
 370.923913043 752 370.923913043 752 451 752 c 0,70,71
 457 752 457 752 463 752 c 128,-1,72
 469 752 469 752 463.5 747.5 c 128,-1,73
 458 743 458 743 450 738.5 c 128,-1,74
 442 734 442 734 436 730 c 128,-1,75
 430 726 430 726 435 726 c 0,76,77
 446 726 446 726 462.5 733 c 0,78,79
 512 754 512 754 534 754 c 128,-1,80
 556 754 556 754 570 745 c 0,81,82
 578 740 578 740 564.5 736.5 c 128,-1,83
 551 733 551 733 531.5 721 c 0,84,85
 477 687.461538462 477 687.461538462 477 613 c 2,86,-1
 481 307 l 2,87,88
 482 250 482 250 482.5 194.5 c 128,-1,89
 483 139 483 139 484.5 95.5 c 128,-1,90
 486 52 486 52 486 26 c 2,91,-1
 486 0 l 1,92,-1
 371 0 l 1,93,94
 371 29.4516129032 371 29.4516129032 336.5 165.225806452 c 128,-1,95
 302 301 302 301 285 361 c 0,96,97
 228.860345361 559.13995755 228.860345361 559.13995755 215.865766987 559.13995755 c 0,98,99
 215.144554683 559.13995755 215.144554683 559.13995755 215.144554683 541.507248582 c 0,100,101
 215.144554683 510.458737149 215.144554683 510.458737149 217.380733945 424.73853211 c 0,102,103
 221 286 221 286 223 235.5 c 0,104,105
 227.657243816 117.90459364 227.657243816 117.90459364 234.828621908 104.45229682 c 128,-1,106
 242 91 242 91 254.5 73 c 128,-1,107
 267 55 267 55 279 39.5 c 0,108,109
 301.285714286 10.7142857143 301.285714286 10.7142857143 311 1 c 1,0,-1
EndSplineSet
Validated: 524289
EndChar

StartChar: O
Encoding: 79 79 17
Width: 617
Flags: W
HStem: -1 84<252.697 383.545> 656 96<237.83 381.866>
VStem: 40.2415 97<249.508 514.549> 477.241 98<225.302 534.423>
LayerCount: 2
Fore
SplineSet
319.241210938 752 m 0,0,1
 409.241210938 752 409.241210938 752 463.241210938 708.5 c 0,2,3
 575.241210938 618.27734375 575.241210938 618.27734375 575.241210938 411 c 0,4,5
 575.241210938 341 575.241210938 341 563.241210938 272 c 0,6,7
 540.241210938 140 540.241210938 140 478.741210938 69.5 c 128,-1,8
 417.241210938 -1 417.241210938 -1 323.241210938 -1 c 0,9,10
 210.09765625 1.134765625 210.09765625 1.134765625 130.741210938 82.5 c 0,11,12
 44.0693359375 171.366210938 44.0693359375 171.366210938 40.2412109375 313 c 0,13,14
 38.9997113248 341.556140925 38.9997113248 341.556140925 38.9997113248 368.15661994 c 0,15,16
 38.9997113248 530.499078249 38.9997113248 530.499078249 85.2412109375 620 c 0,17,18
 153.44140625 752 153.44140625 752 319.241210938 752 c 0,0,1
316.241210938 655 m 0,19,20
 310.241210938 656 310.241210938 656 304.241210938 656 c 0,21,22
 231.485351562 656 231.485351562 656 183.241210938 570 c 0,23,24
 137.241210938 488 137.241210938 488 137.241210938 376 c 0,25,26
 137.241210938 325.928710938 137.241210938 325.928710938 152.741210938 269.463867188 c 128,-1,27
 168.241210938 213 168.241210938 213 192.241210938 172.5 c 0,28,29
 245.278320312 83 245.278320312 83 320.241210938 83 c 0,30,31
 389.63671875 83 389.63671875 83 432.741210938 167 c 0,32,33
 470.658203125 240.888671875 470.658203125 240.888671875 477.241210938 355 c 1,34,-1
 477.241210938 372 l 1,35,36
 474.504882812 492.403320312 474.504882812 492.403320312 452.873046875 543.702148438 c 128,-1,37
 431.241210938 595 431.241210938 595 399.241210938 622 c 128,-1,38
 367.241210938 649 367.241210938 649 316.241210938 655 c 0,19,20
EndSplineSet
Validated: 524289
EndChar

StartChar: P
Encoding: 80 80 18
Width: 580
Flags: W
HStem: 0 82<47.422 125.526> 187 70<214.529 360.664> 643 105<205.527 339.547>
VStem: 119.529 88<258.489 644> 125.529 89<68.2114 187 257 450.301> 459.529 80.5<358.903 544.195>
LayerCount: 2
Fore
SplineSet
169.529296875 743 m 1,0,1
 180.529296875 744.375 180.529296875 744.375 238.529296875 748 c 0,2,3
 447.271484375 748 447.271484375 748 516.029296875 617.5 c 0,4,5
 540.039296875 571.93 540.039296875 571.93 540.039296875 498.9886 c 0,6,7
 540.039296875 422.515833333 540.039296875 422.515833333 521.529296875 367.5 c 0,8,9
 503.529296875 314 503.529296875 314 474.529296875 279 c 128,-1,10
 445.529296875 244 445.529296875 244 409.529296875 224.5 c 0,11,12
 342.671875 188.286132812 342.671875 188.286132812 269.529296875 186 c 1,13,-1
 248.529296875 186 l 2,14,15
 229.529296875 186 229.529296875 186 214.529296875 187 c 1,16,17
 219.029296875 72.25 219.029296875 72.25 223.279296875 65.625 c 128,-1,18
 227.529296875 59 227.529296875 59 239.029296875 60 c 128,-1,19
 250.529296875 61 250.529296875 61 262.029296875 65 c 128,-1,20
 273.529296875 69 273.529296875 69 282.529296875 72 c 128,-1,21
 291.529296875 75 291.529296875 75 291.529296875 71 c 0,22,23
 292.529296875 59 292.529296875 59 297.029296875 46 c 128,-1,24
 301.529296875 33 301.529296875 33 304.529296875 23 c 128,-1,25
 307.529296875 13 307.529296875 13 307.529296875 6.5 c 128,-1,26
 307.529296875 0 307.529296875 0 299.529296875 0 c 2,27,-1
 72.529296875 0 l 2,28,29
 55.05859375 0 55.05859375 0 48.529296875 18.5 c 0,30,31
 45.529296875 27 45.529296875 27 43.029296875 39.5 c 128,-1,32
 40.529296875 52 40.529296875 52 36.529296875 67 c 0,33,34
 33.529296875 82 33.529296875 82 47.529296875 82 c 128,-1,35
 61.529296875 82 61.529296875 82 78.529296875 76.5 c 128,-1,36
 95.529296875 71 95.529296875 71 110.529296875 66 c 128,-1,37
 125.529296875 61 125.529296875 61 125.529296875 67 c 0,38,39
 125.529296875 180 125.529296875 180 123.029296875 247.5 c 128,-1,40
 120.529296875 315 120.529296875 315 119.529296875 342 c 0,41,42
 118.862630208 360 118.862630208 360 118.862630208 374.222222222 c 0,43,44
 118.862630208 381.333333333 118.862630208 381.333333333 119.029296875 387.5 c 0,45,46
 119.529296875 406 119.529296875 406 119.529296875 430 c 2,47,-1
 119.529296875 494.5 l 2,48,49
 119.529296875 574 119.529296875 574 117.529296875 680 c 0,50,51
 117.529296875 687 117.529296875 687 112.029296875 682.5 c 128,-1,52
 106.529296875 678 106.529296875 678 99.029296875 674.5 c 0,53,54
 94.6837521137 672.472147632 94.6837521137 672.472147632 90.9048602483 672.472147632 c 0,55,56
 76.7312385645 672.472147632 76.7312385645 672.472147632 70.529296875 701 c 0,57,58
 69.28030106 705.579944823 69.28030106 705.579944823 69.28030106 709.92430121 c 0,59,60
 69.28030106 724.853145205 69.28030106 724.853145205 84.029296875 737 c 128,-1,61
 98.7626953125 749.133789062 98.7626953125 749.133789062 118.146484375 752.56640625 c 0,62,63
 125.0319053 753.786063044 125.0319053 753.786063044 131.705825047 753.786063044 c 0,64,65
 151.552768739 753.786063044 151.552768739 753.786063044 169.529296875 743 c 1,0,1
204.529296875 644 m 1,66,-1
 204.529296875 643 l 2,67,68
 204.529296875 602 204.529296875 602 205.529296875 554 c 128,-1,69
 206.529296875 506 206.529296875 506 207.529296875 455 c 0,70,71
 210.494140625 303.821289062 210.494140625 303.821289062 212.529296875 257 c 1,72,73
 213.479727909 257.950431034 213.479727909 257.950431034 218.330203534 257.950431034 c 0,74,75
 226.876279634 257.950431034 226.876279634 257.950431034 247.529296875 255 c 1,76,77
 359.696289062 261.59765625 359.696289062 261.59765625 409.029296875 310 c 0,78,79
 457.184570312 357.247070312 457.184570312 357.247070312 459.529296875 444 c 0,80,81
 459.529296875 517.926757812 459.529296875 517.926757812 430.029296875 557.5 c 0,82,83
 380.13671875 624.4296875 380.13671875 624.4296875 266.029296875 639.5 c 0,84,85
 239.529296875 643 239.529296875 643 222.529296875 643 c 128,-1,86
 205.529296875 643 205.529296875 643 204.529296875 644 c 1,66,-1
EndSplineSet
Validated: 524289
EndChar

StartChar: Q
Encoding: 81 81 19
Width: 719
Flags: W
HStem: -145 3<679.928 680.928> 0 84<251.178 380.83> 656 96<236.372 379.519>
VStem: 39.9275 97<249.162 515.02> 444.928 75<-20.7893 34> 476.928 97<324.87 535.02>
LayerCount: 2
Fore
SplineSet
574 407 m 2,0,1
 574 246 574 246 520 134 c 1,2,3
 523 70 523 70 525 46 c 0,4,5
 529 -0 529 -0 544 -28 c 128,-1,6
 559 -56 559 -56 583 -80 c 0,7,8
 605 -102 605 -102 627 -116 c 0,9,10
 650 -131 650 -131 664 -136 c 0,11,12
 680 -142 680 -142 681 -142 c 258,13,-1
 668 -145 l 2,14,15
 642 -151 642 -151 620 -151 c 0,16,17
 619 -151 619 -151 617 -150 c 0,18,19
 598 -150 598 -150 579 -150 c 0,20,21
 561 -150 561 -150 543 -142 c 0,22,23
 518 -131 518 -131 508 -124 c 0,24,25
 492 -114 492 -114 482 -100 c 0,26,27
 445 -51 445 -51 445 -11 c 0,28,29
 445 -9 445 -9 443 4 c 0,30,31
 442 16 442 16 440 34 c 1,32,33
 390 0 390 0 331 0 c 0,34,35
 326 0 326 0 321 0 c 0,36,37
 210 0 210 0 129 83 c 0,38,39
 44 170 44 170 40 313 c 0,40,41
 39 346 39 346 39 356 c 0,42,43
 39 418 39 418 45 475 c 0,44,45
 54 560 54 560 84 620 c 0,46,47
 150 752 150 752 321 752 c 0,48,49
 406 752 406 752 461 708 c 0,50,51
 513 667 513 667 544 592 c 0,52,53
 574 520 574 520 574 442 c 2,54,-1
 574 407 l 2,0,1
423 153 m 1,55,56
 461 235 461 235 476 356 c 0,57,58
 477 364 477 364 477 384 c 0,59,60
 477 390 477 390 477 390 c 0,61,62
 476 411 476 411 471 464 c 0,63,64
 466 514 466 514 448 554 c 0,65,66
 410 639 410 639 315 655 c 0,67,68
 309 656 309 656 303 656 c 0,69,70
 228 656 228 656 182 570 c 0,71,72
 137 486 137 486 137 376 c 0,73,74
 137 321 137 321 152 269 c 0,75,76
 169 212 169 212 191 173 c 0,77,78
 242 84 242 84 318 84 c 0,79,80
 380 84 380 84 423 153 c 1,55,56
EndSplineSet
Validated: 1
EndChar

StartChar: R
Encoding: 82 82 20
Width: 714
Flags: W
HStem: -145 3<674.529 675.529> 0 82<46.0538 126.526> 186 69<215.529 358.269> 645 103<207.869 340.547>
VStem: 120.529 88<258.439 645.994> 436.029 84<-31.9018 186.375> 460.529 81<358.915 545.337>
LayerCount: 2
Fore
SplineSet
409.529296875 224 m 1,0,1
 343.663085938 186 343.663085938 186 254.529296875 186 c 0,2,3
 231.529296875 186 231.529296875 186 215.529296875 187 c 1,4,5
 219.9375 72.3876953125 219.9375 72.3876953125 224.233398438 65.6943359375 c 128,-1,6
 228.529296875 59 228.529296875 59 240.029296875 60 c 128,-1,7
 251.529296875 61 251.529296875 61 263.029296875 65 c 128,-1,8
 274.529296875 69 274.529296875 69 283.529296875 72 c 128,-1,9
 292.529296875 75 292.529296875 75 292.529296875 71 c 0,10,11
 293.529296875 59 293.529296875 59 298.529296875 46 c 128,-1,12
 303.529296875 33 303.529296875 33 306.529296875 23 c 0,13,14
 313.4296875 0 313.4296875 0 300.529296875 0 c 2,15,-1
 67.529296875 0 l 2,16,17
 50.8828125 0 50.8828125 0 46.529296875 18.5 c 0,18,19
 44.529296875 27 44.529296875 27 43.029296875 39.5 c 128,-1,20
 41.529296875 52 41.529296875 52 37.529296875 67 c 0,21,22
 34.529296875 82 34.529296875 82 48.529296875 82 c 128,-1,23
 62.529296875 82 62.529296875 82 79.529296875 76.5 c 128,-1,24
 96.529296875 71 96.529296875 71 111.529296875 66 c 128,-1,25
 126.529296875 61 126.529296875 61 126.529296875 67 c 0,26,27
 126.529296875 180 126.529296875 180 124.029296875 247.5 c 128,-1,28
 121.529296875 315 121.529296875 315 120.529296875 342 c 0,29,30
 119.862630208 360 119.862630208 360 119.862630208 374.222222222 c 0,31,32
 119.862630208 381.333333333 119.862630208 381.333333333 120.029296875 387.5 c 0,33,34
 120.529296875 406 120.529296875 406 120.529296875 430 c 2,35,-1
 120.529296875 494.5 l 2,36,37
 120.529296875 574 120.529296875 574 118.529296875 680 c 0,38,39
 118.529296875 687 118.529296875 687 113.029296875 682.5 c 128,-1,40
 107.529296875 678 107.529296875 678 100.029296875 674.5 c 0,41,42
 95.6837521137 672.472147632 95.6837521137 672.472147632 91.9048602483 672.472147632 c 0,43,44
 77.7312385645 672.472147632 77.7312385645 672.472147632 71.529296875 701 c 0,45,46
 70.28030106 705.579944823 70.28030106 705.579944823 70.28030106 709.92430121 c 0,47,48
 70.28030106 724.853145205 70.28030106 724.853145205 85.029296875 737 c 128,-1,49
 99.7626953125 749.133789062 99.7626953125 749.133789062 119.146484375 752.56640625 c 0,50,51
 126.0319053 753.786063044 126.0319053 753.786063044 132.705825047 753.786063044 c 0,52,53
 152.552768739 753.786063044 152.552768739 753.786063044 170.529296875 743 c 1,54,55
 181.529296875 744.375 181.529296875 744.375 239.529296875 748 c 0,56,57
 448.271484375 748 448.271484375 748 517.029296875 617.5 c 0,58,59
 541.529296875 571 541.529296875 571 541.529296875 498 c 0,60,61
 539.696289062 377.0390625 539.696289062 377.0390625 492.529296875 302 c 1,62,63
 507.529296875 269 507.529296875 269 511.029296875 224.5 c 128,-1,64
 514.529296875 180 514.529296875 180 515.529296875 134.5 c 128,-1,65
 516.529296875 89 516.529296875 89 520.029296875 46.5 c 128,-1,66
 523.529296875 4 523.529296875 4 539.029296875 -27 c 128,-1,67
 554.529296875 -58 554.529296875 -58 577.529296875 -80.5 c 128,-1,68
 600.529296875 -103 600.529296875 -103 622.029296875 -116.5 c 128,-1,69
 643.529296875 -130 643.529296875 -130 659.029296875 -136 c 128,-1,70
 674.529296875 -142 674.529296875 -142 675.529296875 -142 c 258,71,-1
 662.529296875 -145 l 2,72,73
 636.683143029 -150.538461538 636.683143029 -150.538461538 615.097344212 -150.538461538 c 0,74,75
 613.298527644 -150.538461538 613.298527644 -150.538461538 611.529296875 -150.5 c 0,76,77
 588.529296875 -150 588.529296875 -150 573.529296875 -150 c 128,-1,78
 558.529296875 -150 558.529296875 -150 538.029296875 -141.5 c 128,-1,79
 517.529296875 -133 517.529296875 -133 502.529296875 -123.5 c 128,-1,80
 487.529296875 -114 487.529296875 -114 476.529296875 -100 c 0,81,82
 457.036132812 -75.189453125 457.036132812 -75.189453125 439.529296875 -11 c 0,83,84
 439.529296875 -8 439.529296875 -8 436.029296875 17.5 c 128,-1,85
 432.529296875 43 432.529296875 43 428.029296875 78 c 0,86,87
 419.029296875 148 419.029296875 148 409.529296875 224 c 1,0,1
208.529296875 491 m 1,88,-1
 208.529296875 455 l 1,89,90
 210.529296875 404 210.529296875 404 211.529296875 353.5 c 128,-1,91
 212.529296875 303 212.529296875 303 213.529296875 257 c 1,92,93
 214.537630208 258.008333333 214.537630208 258.008333333 219.646519097 258.008333333 c 0,94,95
 228.470963542 258.008333333 228.470963542 258.008333333 249.529296875 255 c 1,96,97
 298.442382812 255 298.442382812 255 341.486328125 270 c 128,-1,98
 384.529296875 285 384.529296875 285 410.529296875 311.5 c 0,99,100
 458.263671875 360.151367188 458.263671875 360.151367188 460.529296875 444 c 0,101,102
 460.529296875 517.625 460.529296875 517.625 431.529296875 557.5 c 0,103,104
 381.498046875 626.29296875 381.498046875 626.29296875 268.529296875 641.5 c 0,105,106
 242.529296875 645 242.529296875 645 225.529296875 645 c 128,-1,107
 208.529296875 645 208.529296875 645 207.529296875 646 c 0,108,109
 206.529296875 646 206.529296875 646 206.529296875 623 c 128,-1,110
 206.529296875 600 206.529296875 600 207.029296875 573.5 c 128,-1,111
 207.529296875 547 207.529296875 547 207.529296875 529 c 128,-1,112
 207.529296875 511 207.529296875 511 208.529296875 491 c 1,88,-1
EndSplineSet
Validated: 524289
EndChar

StartChar: S
Encoding: 83 83 21
Width: 514
Flags: W
HStem: 0 68<205.536 318.935> 688.5 62.5<203.83 315.77>
VStem: 76.3483 69<525.116 632.188>
LayerCount: 2
Fore
SplineSet
168 146 m 0,0,1
 168 134 168 134 190 107 c 0,2,3
 207 86 207 86 219 78 c 0,4,5
 234 68 234 68 245 68 c 2,6,-1
 258 68 l 1,7,8
 291 69 291 69 317 88 c 0,9,10
 363 121 363 121 377 192 c 0,11,12
 378 197 378 197 378 202 c 0,13,14
 378.008849558 202.566371681 378.008849558 202.566371681 378.008849558 203.134309656 c 0,15,16
 378.008849558 266.743362832 378.008849558 266.743362832 267 350 c 0,17,18
 244 367 244 367 204 396 c 0,19,20
 171 420 171 420 145 445 c 0,21,22
 75.985915493 512.042253521 75.985915493 512.042253521 75.985915493 585.888712557 c 0,23,24
 75.985915493 586.943661972 75.985915493 586.943661972 76 588 c 0,25,26
 77 703 77 703 178 738 c 0,27,28
 215 751 215 751 263 751 c 0,29,30
 270 751 270 751 277 751 c 0,31,32
 373 751 373 751 417 682 c 0,33,34
 442 643 442 643 442 582 c 1,35,36
 442 582.3 442 582.3 442.34 582.3 c 0,37,38
 445.4 582.3 445.4 582.3 476 558 c 1,39,40
 459 558 459 558 439 550 c 0,41,42
 409 538 409 538 394 538 c 0,43,44
 380 538 380 538 367 547 c 0,45,46
 353 557 353 557 350 593 c 0,47,48
 345 647 345 647 303 678 c 0,49,50
 288 689 288 689 265 689 c 0,51,52
 264 689 264 689 263 688 c 0,53,54
 220 688 220 688 181 648 c 0,55,56
 147 613 147 613 145 577 c 0,57,58
 144.884615385 575.307692308 144.884615385 575.307692308 144.884615385 573.602071006 c 0,59,60
 144.884615385 530.961538462 144.884615385 530.961538462 217 480 c 0,61,62
 239 464 239 464 276 443 c 0,63,64
 301 429 301 429 336 406 c 0,65,66
 402 363 402 363 422 317 c 0,67,68
 451 248 451 248 452 166 c 0,69,70
 452.013333333 164.56 452.013333333 164.56 452.013333333 163.132088889 c 0,71,72
 452.013333333 57.4666666667 452.013333333 57.4666666667 379 18 c 0,73,74
 346 0 346 0 307 0 c 0,75,76
 258 0 258 0 238 2 c 0,77,78
 208 5 208 5 178 15 c 0,79,80
 104 40 104 40 77 94 c 0,81,82
 71 106 71 106 71 120 c 0,83,84
 71 126 71 126 73 135 c 0,85,86
 75 143 75 143 79 177 c 0,87,88
 80 185 80 185 77 192 c 1,89,90
 36 223 36 223 36 229 c 128,-1,91
 36 235 36 235 73 246 c 0,92,93
 106 256 106 256 123 256 c 0,94,95
 139 256 139 256 141 247 c 0,96,97
 142 242 142 242 145 222 c 0,98,99
 148 201 148 201 153 188 c 0,100,101
 168 149 168 149 168 146 c 0,0,1
EndSplineSet
Validated: 524289
EndChar

StartChar: T
Encoding: 84 84 22
Width: 680
Flags: W
HStem: 0 80<212.348 291.5> 732 20G<35 642>
VStem: 96 55<563.289 654.479> 287 97<77.123 639.988>
LayerCount: 2
Fore
SplineSet
382 523 m 1,0,-1
 384 340.5 l 1,1,2
 384 73 384 73 390 65 c 128,-1,3
 396 57 396 57 407.5 58 c 128,-1,4
 419 59 419 59 430.5 63 c 128,-1,5
 442 67 442 67 451 70 c 128,-1,6
 460 73 460 73 460 69 c 0,7,8
 461.061538462 56.2615384615 461.061538462 56.2615384615 469.030769231 34.6307692308 c 128,-1,9
 477 13 477 13 477 6.5 c 128,-1,10
 477 0 477 0 466.5 0 c 0,11,12
 349.75 0 349.75 0 233 0 c 0,13,14
 217.117647059 0 217.117647059 0 213 17.5 c 0,15,16
 211 26 211 26 210 38 c 128,-1,17
 209 50 209 50 205 65 c 0,18,19
 202 80 202 80 215 80 c 128,-1,20
 228 80 228 80 245 74.5 c 128,-1,21
 262 69 262 69 277 64 c 128,-1,22
 292 59 292 59 292 65 c 2,23,-1
 288 344 l 2,24,25
 287 379 287 379 287 415.5 c 2,26,-1
 287 579 l 2,27,28
 287 625 287 625 286 678 c 1,29,30
 267 675 267 675 248 672 c 128,-1,31
 229 669 229 669 213 666 c 0,32,33
 179.4 659.7 179.4 659.7 165.7 651.85 c 128,-1,34
 152 644 152 644 151 629.5 c 128,-1,35
 150 615 150 615 156 599 c 128,-1,36
 162 583 162 583 170.5 567 c 128,-1,37
 179 551 179 551 182 538.5 c 128,-1,38
 185 526 185 526 169 527 c 0,39,40
 144.493670886 528.53164557 144.493670886 528.53164557 95 546 c 2,41,-1
 77 552 l 257,42,-1
 81 562 l 1,43,44
 96 603.25 96 603.25 96 642.767857143 c 128,-1,45
 96 682.285714286 96 682.285714286 35 752 c 1,46,-1
 642 752 l 1,47,48
 587 678.666666667 587 678.666666667 587 636 c 2,49,-1
 587 621 l 1,50,51
 590.275862069 588.24137931 590.275862069 588.24137931 602 556 c 2,52,53
 606 545 l 257,54,55
 587 538 l 1,56,57
 533.8 520.266666667 533.8 520.266666667 508.5 519.5 c 0,58,59
 492 519 492 519 495 531 c 0,60,61
 498 545 498 545 507.5 561.5 c 0,62,63
 528 597.105263158 528 597.105263158 528 620 c 0,64,65
 527 622 527 622 526 632 c 128,-1,66
 525 642 525 642 513 650 c 0,67,68
 495.9375 661.375 495.9375 661.375 435 676 c 1,69,70
 383 631.8 383 631.8 383 540 c 0,71,72
 383 531 383 531 382 523 c 1,0,-1
EndSplineSet
Validated: 524289
EndChar

StartChar: U
Encoding: 85 85 23
Width: 600
Flags: W
HStem: 0 79.9229<212.522 353.929> 682 4<228.584 230.05> 732 20G<415.875 524.375>
VStem: 42.8752 106<161.141 557.146> 435.875 92<246.36 679.046>
LayerCount: 2
Fore
SplineSet
281 80 m 0,0,1
 286 80 286 80 290 80 c 0,2,3
 296 80 296 80 296 80 c 0,4,5
 297.887931034 79.9224137931 297.887931034 79.9224137931 299.753790131 79.9224137931 c 0,6,7
 370.034482759 79.9224137931 370.034482759 79.9224137931 409 190 c 0,8,9
 436 267 436 267 436 385 c 2,10,-1
 436 422 l 1,11,12
 435 495 435 495 424 602 c 0,13,14
 414 698 414 698 412 726 c 128,-1,15
 410 754 410 754 416 752 c 1,16,-1
 521 752 l 2,17,18
 528 752 528 752 528 502 c 128,-1,19
 528 252 528 252 518 102 c 1,20,-1
 518 97 l 1,21,22
 560 57 560 57 560 46 c 2,23,-1
 560 42 l 2,24,25
 560 32 560 32 548 0 c 1,26,-1
 424 0 l 2,27,28
 411 0 411 0 411 15 c 128,-1,29
 411 30 411 30 416 47 c 1,30,31
 389 32 389 32 349 16 c 128,-1,32
 309 0 309 0 242 0 c 0,33,34
 176 0 176 0 133 38 c 0,35,36
 89 77 89 77 68 136 c 0,37,38
 45 201 45 201 44 251 c 0,39,40
 43 304 43 304 43 324 c 2,41,-1
 43 377 l 2,42,43
 43 403 43 403 51 477 c 0,44,45
 60 560 60 560 85 667 c 1,46,47
 67 656 67 656 60 657 c 0,48,49
 47 659 47 659 39 693 c 0,50,51
 37.9583333333 697.583333333 37.9583333333 697.583333333 37.9583333333 702.166666667 c 0,52,53
 37.9583333333 719.583333333 37.9583333333 719.583333333 53 737 c 0,54,55
 72 759 72 759 91 759 c 128,-1,56
 110 759 110 759 122 750 c 0,57,58
 136 739 136 739 146 728 c 128,-1,59
 156 717 156 717 167 702 c 0,60,61
 177 689 177 689 185 685 c 1,62,63
 205 686 205 686 228 686 c 128,-1,64
 251 686 251 686 235 682 c 0,65,66
 205 675 205 675 176 619 c 1,67,68
 175 590 175 590 161 476 c 0,69,70
 149 376 149 376 149 334 c 2,71,-1
 149 287 l 2,72,73
 149 165 149 165 203 110 c 0,74,75
 232 80 232 80 281 80 c 0,0,1
EndSplineSet
Validated: 524289
EndChar

StartChar: V
Encoding: 86 86 24
Width: 642
Flags: W
HStem: 0 21G<417.5 464.333> 712 41<545.937 593.333>
VStem: 420.333 122<628 702.341>
LayerCount: 2
Fore
SplineSet
452 0 m 1,0,1
 383 19 383 19 336 19 c 2,2,-1
 327 19 l 1,3,4
 310 18 310 18 290 10 c 0,5,6
 266.666666667 0.666666666667 266.666666667 0.666666666667 251.333333333 0.666666666667 c 0,7,8
 243.666666667 0.666666666667 243.666666667 0.666666666667 238 3 c 0,9,10
 215 12 215 12 213 47 c 0,11,12
 212 63 212 63 220 66 c 0,13,14
 229 69 229 69 238 68 c 0,15,16
 255 66 255 66 257 66 c 0,17,18
 265 64 265 64 265 71 c 0,19,20
 265.043478261 71.9130434783 265.043478261 71.9130434783 265.043478261 72.95463138 c 0,21,22
 265.043478261 95.8695652174 265.043478261 95.8695652174 244 181 c 0,23,24
 227 248 227 248 219 276 c 0,25,26
 212 299 212 299 206 326 c 0,27,28
 206 326 206 326 193 384 c 0,29,30
 188 408 188 408 181 440 c 0,31,32
 176 464 176 464 173 480 c 0,33,34
 173 480 173 480 167 510 c 128,-1,35
 161 540 161 540 161 540 c 0,36,37
 158 554 158 554 154 576 c 0,38,39
 151 588 151 588 148 616 c 0,40,41
 146 634 146 634 144 650 c 0,42,43
 141 681 141 681 125 704 c 0,44,45
 118 714 118 714 103 707 c 0,46,47
 77 695 77 695 68 687 c 128,-1,48
 59 679 59 679 53 684 c 0,49,50
 49 687 49 687 44 700 c 0,51,52
 40 711 40 711 38 720 c 128,-1,53
 36 729 36 729 35 732 c 128,-1,54
 34 735 34 735 36 738 c 0,55,56
 37 740 37 740 45 744 c 0,57,58
 61 753 61 753 90 753 c 2,59,-1
 320 753 l 1,60,61
 320 753 320 753 312 748 c 0,62,63
 295 738 295 738 293 736 c 0,64,65
 259 713 259 713 246 700 c 0,66,67
 241 695 241 695 241 682 c 0,68,69
 241 681 241 681 244 642 c 0,70,71
 245 629 245 629 256 562 c 0,72,73
 266 503 266 503 279 444 c 0,74,75
 293 382 293 382 306 326 c 0,76,77
 318 271 318 271 328 231 c 0,78,79
 337 191 337 191 339 181 c 1,80,81
 339 182 339 182 349 228 c 0,82,83
 357 265 357 265 368 315 c 0,84,85
 375 349 375 349 391 422 c 0,86,87
 418 549 418 549 420 628 c 1,88,-1
 420 635 l 2,89,90
 420 671 420 671 414 684 c 128,-1,91
 408 697 408 697 396 708 c 128,-1,92
 384 719 384 719 374 729 c 0,93,94
 363 739 363 739 359 746 c 128,-1,95
 355 753 355 753 368 753 c 2,96,-1
 593 753 l 1,97,-1
 599 743 l 1,98,99
 603.965517241 732.655172414 603.965517241 732.655172414 603.965517241 725.563614744 c 0,100,101
 603.965517241 715.517241379 603.965517241 715.517241379 594 712 c 0,102,103
 582 708 582 708 573 705 c 0,104,105
 542 696 542 696 542 682 c 1,106,107
 411 257 411 257 401 110 c 1,108,-1
 401 99 l 2,109,110
 401 78 401 78 408 68 c 128,-1,111
 415 58 415 58 430 58 c 0,112,113
 446 58 446 58 464 73 c 1,114,115
 476 52 476 52 476 29 c 128,-1,116
 476 6 476 6 452 0 c 1,0,1
EndSplineSet
Validated: 524289
EndChar

StartChar: W
Encoding: 87 87 25
Width: 669
Flags: W
HStem: 0 21G<186.667 223.667 411.667 437.32 566.366 567.028> 751 1<36.6667 129.667 399.729 465.604>
VStem: 107.167 59.5<231 405.354> 111.167 56<233.331 661.432> 261.667 50<426.463 547> 445.667 76.5<234 418.329> 452.667 58<235.218 682.899>
LayerCount: 2
Fore
SplineSet
261 643 m 0,0,1
 261 644 261 644 285 644 c 128,-1,2
 309 644 309 644 339 642 c 1,3,-1
 353 642 l 1,4,5
 361 500 361 500 402 362 c 0,6,7
 440 234 440 234 446 234 c 1,8,-1
 447 253 l 2,9,10
 453 367 453 367 453 420 c 2,11,-1
 453 534 l 2,12,13
 453 616 453 616 447 648 c 128,-1,14
 441 680 441 680 435 683 c 0,15,16
 406 697 406 697 401 743 c 1,17,-1
 399 752 l 1,18,19
 433 751 433 751 467 751 c 2,20,-1
 595 751 l 2,21,22
 605 751 605 751 614 742 c 128,-1,23
 623 733 623 733 627 720 c 0,24,25
 630.571428571 708.571428571 630.571428571 708.571428571 630.571428571 699.31122449 c 0,26,27
 630.571428571 682.642857143 630.571428571 682.642857143 619 673 c 1,28,29
 621 681 621 681 608 691 c 0,30,31
 586.285714286 708.19047619 586.285714286 708.19047619 571.120181406 708.19047619 c 0,32,33
 569.523809524 708.19047619 569.523809524 708.19047619 568 708 c 0,34,35
 540 705 540 705 529 687 c 0,36,37
 519 671 519 671 517 626 c 0,38,39
 511 511 511 511 511 466 c 2,40,-1
 511 426 l 2,41,42
 511 401 511 401 513 366 c 0,43,44
 513.938512472 330.942808758 513.938512472 330.942808758 517 284 c 0,45,46
 520 238 520 238 522 186 c 0,47,48
 525 129 525 129 532 104 c 0,49,50
 535 93 535 93 548 52 c 0,51,52
 562 8 562 8 571 0 c 1,53,54
 562 3 562 3 531 9 c 128,-1,55
 500 15 500 15 486 18 c 2,56,-1
 472 20 l 1,57,58
 456.210526316 0 456.210526316 0 413 0 c 4,59,60
 405 0 405 0 399 0 c 0,61,62
 386 0 386 0 366 3 c 128,-1,63
 346 6 346 6 335 7 c 1,64,65
 347 10 347 10 363 26 c 0,66,67
 378 41 378 41 386 53 c 1,68,69
 377 120 377 120 358 242 c 0,70,71
 334 395 334 395 331 416 c 0,72,73
 325 457 325 457 318 506 c 0,74,75
 313 542 313 542 312 547 c 1,76,77
 312 543 312 543 294 433 c 0,78,79
 277 329 277 329 268 278 c 0,80,-1
 250 174 l 0,81,82
 238 105 238 105 236 94 c 0,83,84
 232.4 73 232.4 73 232.4 57.04 c 0,85,86
 232.4 46.4 232.4 46.4 234 38 c 0,87,88
 238 19 238 19 243 2 c 1,89,90
 230 0 230 0 218 0 c 0,91,92
 156 0 156 0 137 38 c 1,93,94
 98 5 98 5 66 0 c 0,95,96
 53 -2 53 -2 45 4 c 1,97,98
 100 88 100 88 102 163 c 0,99,100
 107 310 107 310 107 312 c 0,101,102
 108.237861016 370.092193213 108.237861016 370.092193213 111 406 c 0,103,104
 112 419 112 419 114 478 c 0,105,106
 118 581 118 581 118 594 c 1,107,108
 107 668 107 668 67 716 c 0,109,110
 48 739 48 739 42 744 c 0,111,112
 32 753 32 753 37 751 c 1,113,-1
 130 752 l 1,114,-1
 221 752 l 1,115,116
 205 696 205 696 186 673 c 0,117,118
 168 651 168 651 168 440 c 0,119,120
 168 394 168 394 167 372 c 0,121,122
 167 326 167 326 167 326 c 2,123,-1
 167 295 l 2,124,125
 167 265 167 265 168 248 c 2,126,-1
 169 231 l 1,127,128
 170 232 170 232 186 266 c 0,129,130
 226.197934368 350.050226405 226.197934368 350.050226405 253 488 c 0,131,132
 262 533 262 533 261.833496094 581 c 0,133,134
 261.857262453 589.706990373 261.857262453 589.706990373 261.857262453 597.191540304 c 0,135,136
 261.857262453 642.142737547 261.857262453 642.142737547 261 643 c 0,0,1
EndSplineSet
Validated: 524321
EndChar

StartChar: X
Encoding: 88 88 26
Width: 645
Flags: W
HStem: 0 80<519.32 579.824> 732 20G<451.528 569.888>
VStem: 380.888 199.5<9.25195 79.5903>
LayerCount: 2
Fore
SplineSet
503.887695312 0 m 2,0,-1
 380.887695312 1 l 2,1,2
 371.887695312 1 371.887695312 1 371.887695312 4 c 128,-1,3
 371.887695312 7 371.887695312 7 373.887695312 16 c 0,4,5
 380.887695312 30 380.887695312 30 380.887695312 48 c 128,-1,6
 380.887695312 66 380.887695312 66 378.887695312 80.5 c 128,-1,7
 376.887695312 95 376.887695312 95 380.387695312 100.5 c 128,-1,8
 383.887695312 106 383.887695312 106 390.887695312 105 c 128,-1,9
 397.887695312 104 397.887695312 104 405.887695312 98.5 c 128,-1,10
 413.887695312 93 413.887695312 93 420.887695312 88 c 128,-1,11
 427.887695312 83 427.887695312 83 431.887695312 81 c 128,-1,12
 435.887695312 79 435.887695312 79 433.887695312 84 c 0,13,14
 386.387695312 182.799804688 386.387695312 182.799804688 311.887695312 302 c 1,15,-1
 138.887695312 0 l 1,16,-1
 37.8876953125 1 l 1,17,-1
 256.887695312 388 l 1,18,19
 204.887695312 469 204.887695312 469 158.387695312 538.5 c 128,-1,20
 111.887695312 608 111.887695312 608 82.8876953125 657 c 0,21,22
 81.8876953125 664 81.8876953125 664 79.3876953125 662.5 c 128,-1,23
 76.8876953125 661 76.8876953125 661 72.8876953125 656.5 c 128,-1,24
 68.8876953125 652 68.8876953125 652 63.8876953125 647.5 c 128,-1,25
 58.8876953125 643 58.8876953125 643 53.8876953125 644.5 c 0,26,27
 42.0419921875 648.053710938 42.0419921875 648.053710938 36.8876953125 691 c 0,28,29
 35.999587211 696.328818973 35.999587211 696.328818973 35.999587211 701.167903481 c 0,30,31
 35.999587211 724.067457618 35.999587211 724.067457618 55.8876953125 736 c 0,32,33
 65.8876953125 742 65.8876953125 742 78.3876953125 744.5 c 128,-1,34
 90.8876953125 747 90.8876953125 747 104.387695312 750.5 c 128,-1,35
 117.887695312 754 117.887695312 754 126.387695312 747 c 128,-1,36
 134.887695312 740 134.887695312 740 139.887695312 729.5 c 128,-1,37
 144.887695312 719 144.887695312 719 148.887695312 708 c 128,-1,38
 152.887695312 697 152.887695312 697 159.887695312 692 c 1,39,40
 188.648336883 696.313932674 188.648336883 696.313932674 202.440679909 696.313932674 c 0,41,42
 215.149454097 696.313932674 215.149454097 696.313932674 215.149454097 692.65120534 c 0,43,44
 215.149454097 690.795629633 215.149454097 690.795629633 211.887695312 688 c 0,45,46
 207.670918779 683.783223467 207.670918779 683.783223467 207.670918779 673.592568166 c 0,47,48
 207.670918779 639.492127912 207.670918779 639.492127912 254.887695312 538.5 c 0,49,50
 272.887695312 500 272.887695312 500 295.887695312 458 c 1,51,-1
 462.887695312 752 l 1,52,-1
 569.887695312 752 l 1,53,-1
 347.887695312 365 l 1,54,55
 393.541015625 286.533203125 393.541015625 286.533203125 445.21484375 207.266601562 c 0,56,57
 528.178710938 80 528.178710938 80 541.887695312 80 c 0,58,59
 542.887695312 80 542.887695312 80 552.387695312 81.5 c 128,-1,60
 561.887695312 83 561.887695312 83 569.887695312 84 c 128,-1,61
 577.887695312 85 577.887695312 85 579.887695312 84 c 128,-1,62
 581.887695312 83 581.887695312 83 580.887695312 79.5 c 128,-1,63
 579.887695312 76 579.887695312 76 580.387695312 62 c 128,-1,64
 580.887695312 48 580.887695312 48 586.887695312 34.5 c 128,-1,65
 592.887695312 21 592.887695312 21 598.887695312 13.5 c 128,-1,66
 604.887695312 6 604.887695312 6 606.887695312 3 c 128,-1,67
 608.887695312 0 608.887695312 0 601.887695312 0 c 0,68,69
 552.887695312 0 552.887695312 0 503.887695312 0 c 2,0,-1
EndSplineSet
Validated: 524289
EndChar

StartChar: Y
Encoding: 89 89 27
Width: 653
Flags: W
HStem: 0 71<178.221 288.915> 732 20G<93.8204 339.154 383.154 615.154>
VStem: 284.154 109<58.8948 339.504>
LayerCount: 2
Fore
SplineSet
289.154296875 58 m 0,0,1
 289.154296875 126 289.154296875 126 284.154296875 281 c 1,2,-1
 284.154296875 282 l 1,3,4
 255.154296875 360 255.154296875 360 235.154296875 415.5 c 128,-1,5
 215.154296875 471 215.154296875 471 198.654296875 516.5 c 0,6,7
 165.78515625 607.137695312 165.78515625 607.137695312 125.154296875 699 c 0,8,9
 121.798828125 709.064453125 121.798828125 709.064453125 105.9765625 702.032226562 c 0,10,11
 75.75390625 688.599609375 75.75390625 688.599609375 67.4541015625 681.299804688 c 128,-1,12
 59.154296875 674 59.154296875 674 53.154296875 679 c 128,-1,13
 47.154296875 684 47.154296875 684 43.654296875 694.5 c 128,-1,14
 40.154296875 705 40.154296875 705 38.154296875 715.5 c 128,-1,15
 36.154296875 726 36.154296875 726 35.154296875 727.5 c 128,-1,16
 34.154296875 729 34.154296875 729 39.654296875 733 c 128,-1,17
 45.154296875 737 45.154296875 737 55.154296875 741.5 c 0,18,19
 78.4873046875 752 78.4873046875 752 109.154296875 752 c 2,20,-1
 339.154296875 752 l 1,21,22
 337.154296875 751 337.154296875 751 325.654296875 745.5 c 128,-1,23
 314.154296875 740 314.154296875 740 300.154296875 731.5 c 0,24,25
 258.836914062 706.415039062 258.836914062 706.415039062 249.995117188 698.20703125 c 128,-1,26
 241.154296875 690 241.154296875 690 241.154296875 681 c 128,-1,27
 241.154296875 672 241.154296875 672 243.654296875 656 c 128,-1,28
 246.154296875 640 246.154296875 640 255.654296875 607 c 128,-1,29
 265.154296875 574 265.154296875 574 279.154296875 537 c 128,-1,30
 293.154296875 500 293.154296875 500 305.654296875 467 c 128,-1,31
 318.154296875 434 318.154296875 434 328.154296875 409.5 c 128,-1,32
 338.154296875 385 338.154296875 385 339.154296875 378 c 1,33,34
 340.154296875 388 340.154296875 388 348.654296875 409 c 128,-1,35
 357.154296875 430 357.154296875 430 368.154296875 457.5 c 0,36,37
 400.971679688 539.545898438 400.971679688 539.545898438 410.5625 576.772460938 c 128,-1,38
 420.154296875 614 420.154296875 614 420.154296875 640.5 c 128,-1,39
 420.154296875 667 420.154296875 667 414.154296875 679.5 c 128,-1,40
 408.154296875 692 408.154296875 692 399.154296875 703.5 c 128,-1,41
 390.154296875 715 390.154296875 715 383.654296875 726 c 128,-1,42
 377.154296875 737 377.154296875 737 376.654296875 744.5 c 128,-1,43
 376.154296875 752 376.154296875 752 390.154296875 752 c 2,44,-1
 615.154296875 752 l 1,45,46
 613.154296875 745 613.154296875 745 610.654296875 740 c 0,47,48
 604.154296875 727 604.154296875 727 603.654296875 719 c 128,-1,49
 603.154296875 711 603.154296875 711 594.654296875 706.5 c 128,-1,50
 586.154296875 702 586.154296875 702 575.154296875 698.5 c 0,51,52
 546.255859375 689.3046875 546.255859375 689.3046875 542.154296875 677 c 0,53,54
 459.044921875 475.7890625 459.044921875 475.7890625 435.099609375 409.39453125 c 128,-1,55
 411.154296875 343 411.154296875 343 402.654296875 319.5 c 128,-1,56
 394.154296875 296 394.154296875 296 391.154296875 283 c 0,57,58
 392.154296875 249 392.154296875 249 393.154296875 211.5 c 128,-1,59
 394.154296875 174 394.154296875 174 395.654296875 141.5 c 0,60,61
 399.186523438 64.9677734375 399.186523438 64.9677734375 406.169921875 57.4833984375 c 128,-1,62
 413.154296875 50 413.154296875 50 428.654296875 51 c 128,-1,63
 444.154296875 52 444.154296875 52 460.654296875 56 c 128,-1,64
 477.154296875 60 477.154296875 60 489.654296875 63 c 128,-1,65
 502.154296875 66 502.154296875 66 503.154296875 62 c 0,66,67
 504.154296875 50 504.154296875 50 510.154296875 38.5 c 128,-1,68
 516.154296875 27 516.154296875 27 520.154296875 19 c 128,-1,69
 524.154296875 11 524.154296875 11 524.154296875 5.5 c 128,-1,70
 524.154296875 0 524.154296875 0 509.654296875 0 c 0,71,72
 355.904296875 0 355.904296875 0 202.154296875 0 c 0,73,74
 180.154296875 0 180.154296875 0 178.154296875 14 c 0,75,76
 177.154296875 21 177.154296875 21 177.154296875 32 c 128,-1,77
 177.154296875 43 177.154296875 43 172.654296875 55.5 c 128,-1,78
 168.154296875 68 168.154296875 68 175.654296875 71 c 128,-1,79
 183.154296875 74 183.154296875 74 196.154296875 72 c 128,-1,80
 209.154296875 70 209.154296875 70 225.154296875 67 c 128,-1,81
 241.154296875 64 241.154296875 64 255.654296875 60.5 c 0,82,83
 275.467154018 55.7177455357 275.467154018 55.7177455357 283.562121365 55.7177455357 c 0,84,85
 289.154296875 55.7177455357 289.154296875 55.7177455357 289.154296875 58 c 0,0,1
EndSplineSet
Validated: 524289
EndChar

StartChar: Z
Encoding: 90 90 28
Width: 563
Flags: W
HStem: 0 58<150.313 376.704> 332 56<119 187 308 389.667> 680 72<191.901 344.684>
VStem: 124 51<567.681 660.896>
LayerCount: 2
Fore
SplineSet
411 337 m 1,0,-1
 281 334 l 1,1,-1
 150 60 l 1,2,3
 160 58 160 58 172.5 58 c 128,-1,4
 185 58 185 58 190 57.5 c 0,5,6
 197.079124579 56.7920875421 197.079124579 56.7920875421 204.994872972 56.7920875421 c 0,7,8
 215.094276094 56.7920875421 215.094276094 56.7920875421 226.555555556 57.9444444444 c 0,9,10
 247 60 247 60 272.5 62.5 c 128,-1,11
 298 65 298 65 319.5 67.5 c 0,12,13
 367.825688073 73.119266055 367.825688073 73.119266055 377 80 c 0,14,15
 399 93.8947368421 399 93.8947368421 399 114.947368421 c 128,-1,16
 399 136 399 136 393.5 154 c 128,-1,17
 388 172 388 172 378.5 192.5 c 128,-1,18
 369 213 369 213 366 224 c 128,-1,19
 363 235 363 235 371 237 c 128,-1,20
 379 239 379 239 391.5 237.5 c 128,-1,21
 404 236 404 236 419.5 231.5 c 128,-1,22
 435 227 435 227 448 223 c 128,-1,23
 461 219 461 219 468.5 216.5 c 2,24,-1
 479 213 l 257,25,-1
 475 202 l 2,26,27
 464.793103448 173.931034483 464.793103448 173.931034483 462.396551724 150.465517241 c 0,28,29
 460.224049592 129.193751763 460.224049592 129.193751763 460.224049592 115.281816127 c 0,30,31
 460.224049592 103.765327717 460.224049592 103.765327717 461.712811477 97.2923483514 c 0,32,33
 466.79730989 75.1854865139 466.79730989 75.1854865139 488.398654945 45.5927432569 c 128,-1,34
 510 16 510 16 525 0 c 1,35,-1
 35 0 l 1,36,-1
 187 332 l 1,37,-1
 115 331 l 1,38,-1
 119 386 l 1,39,-1
 213 388 l 1,40,-1
 345 676 l 1,41,42
 335 680 335 680 312.5 680 c 128,-1,43
 290 680 290 680 266 677.5 c 0,44,45
 207.757961783 671.433121019 207.757961783 671.433121019 191.378980892 661.21656051 c 128,-1,46
 175 651 175 651 175 634 c 128,-1,47
 175 617 175 617 182.5 598 c 128,-1,48
 190 579 190 579 200.5 560.5 c 0,49,50
 215.455899009 534.149130318 215.455899009 534.149130318 215.455899009 525.627466104 c 0,51,52
 215.455899009 516.892213693 215.455899009 516.892213693 200.95644745 516.892213693 c 0,53,54
 187.877252076 516.892213693 187.877252076 516.892213693 163 524 c 0,55,56
 142 530 142 530 123 536 c 2,57,-1
 105 543 l 257,58,-1
 109 554 l 2,59,60
 124 595.25 124 595.25 124 619.625 c 128,-1,61
 124 644 124 644 121 656.5 c 0,62,63
 114.701570681 682.743455497 114.701570681 682.743455497 94.3507853403 708.871727749 c 128,-1,64
 74 735 74 735 59 752 c 1,65,-1
 479 752 l 1,66,-1
 308 391 l 1,67,-1
 406 394 l 1,68,-1
 411 337 l 1,0,-1
EndSplineSet
Validated: 524289
EndChar

StartChar: underscore
Encoding: 95 95 29
Width: 881
Flags: W
HStem: -226 55<61 817>
LayerCount: 2
Fore
SplineSet
823 -224 m 1,0,-1
 57 -226 l 1,1,-1
 61 -171 l 1,2,-1
 817 -167 l 1,3,-1
 823 -224 l 1,0,-1
EndSplineSet
Validated: 1
EndChar

StartChar: grave
Encoding: 96 96 30
Width: 304
Flags: W
HStem: 538 126<62.6227 186.077>
VStem: 192.692 67<465.412 553.273>
LayerCount: 2
Fore
SplineSet
187.692382812 554 m 1,0,1
 135.692382812 538 135.692382812 538 126.192382812 538 c 2,2,-1
 114.692382812 538 l 2,3,4
 64.8916015625 538 64.8916015625 538 43.6923828125 591 c 0,5,6
 42.0004870108 596.639652672 42.0004870108 596.639652672 42.0004870108 602.337022519 c 0,7,8
 42.0004870108 619.409383809 42.0004870108 619.409383809 57.1923828125 637 c 0,9,10
 80.509765625 664 80.509765625 664 113.692382812 664 c 0,11,12
 117.692382812 664 117.692382812 664 121.192382812 664.5 c 0,13,14
 126.096303803 665.200560142 126.096303803 665.200560142 131.425848125 665.200560142 c 0,15,16
 157.834039652 665.200560142 157.834039652 665.200560142 194.692382812 648 c 1,17,18
 235.056640625 624.630859375 235.056640625 624.630859375 242.692382812 596 c 0,19,20
 259.692382812 525 259.692382812 525 259.692382812 505.5 c 2,21,-1
 259.692382812 484 l 1,22,23
 257.692382812 459 257.692382812 459 240.692382812 458 c 0,24,25
 234.692382812 458 234.692382812 458 216.192382812 464.5 c 128,-1,26
 197.692382812 471 197.692382812 471 192.692382812 481.5 c 128,-1,27
 187.692382812 492 187.692382812 492 190.692382812 503.5 c 128,-1,28
 193.692382812 515 193.692382812 515 197.192382812 527.5 c 128,-1,29
 200.692382812 540 200.692382812 540 187.692382812 554 c 1,0,1
EndSplineSet
Validated: 524289
EndChar

StartChar: a
Encoding: 97 97 31
Width: 501
Flags: W
HStem: 4 56<155.879 270.064> 363 57<164.663 301.198>
VStem: 37 98<93.1723 149.145> 323 68<182 194 245.332 298.996 299 340.966> 334 60<97.0605 182> 338.5 114.5<4 58.4318>
LayerCount: 2
Fore
SplineSet
351 62 m 1,0,1
 235 4 235 4 182.5 4 c 128,-1,2
 130 4 130 4 95.5 30.5 c 128,-1,3
 61 57 61 57 42 92 c 0,4,5
 37 102 37 102 37 113.5 c 128,-1,6
 37 125 37 125 49.5 141.5 c 128,-1,7
 62 158 62 158 93 175 c 128,-1,8
 124 192 124 192 163.5 206 c 128,-1,9
 203 220 203 220 238.5 229.5 c 128,-1,10
 274 239 274 239 298 244.5 c 128,-1,11
 322 250 322 250 323 251 c 0,12,13
 323 252 323 252 323.5 260.5 c 128,-1,14
 324 269 324 269 324 276.5 c 128,-1,15
 324 284 324 284 320.5 300.5 c 0,16,17
 307.242424242 363 307.242424242 363 246 363 c 0,18,19
 183.692307692 363 183.692307692 363 86.5 296.5 c 0,20,21
 77 290 77 290 77 291 c 256,22,23
 77 292 77 292 69.5 298 c 128,-1,24
 62 304 62 304 56.5 313 c 128,-1,25
 51 322 51 322 51.5 334 c 128,-1,26
 52 346 52 346 69 359.5 c 0,27,28
 107 389.676470588 107 389.676470588 230 415 c 0,29,30
 256 420 256 420 272.5 420 c 128,-1,31
 289 420 289 420 309 416.5 c 128,-1,32
 329 413 329 413 347.5 400 c 128,-1,33
 366 387 366 387 375 369.5 c 0,34,35
 391 338.388888889 391 338.388888889 391 310 c 2,36,-1
 391 299 l 1,37,38
 390 299 390 299 390.5 283.5 c 128,-1,39
 391 268 391 268 391 244 c 2,40,-1
 394 80 l 1,41,42
 398 77 398 77 408.5 71.5 c 128,-1,43
 419 66 419 66 429.5 59.5 c 0,44,45
 457.283185841 42.3008849558 457.283185841 42.3008849558 459 32 c 1,46,-1
 453 4 l 1,47,-1
 350 4 l 2,48,49
 334.789473684 4 334.789473684 4 338.5 27.5 c 0,50,51
 341.428571429 46.0476190476 341.428571429 46.0476190476 351 62 c 1,0,1
334 114 m 258,52,-1
 329 182 l 1,53,-1
 328 194 l 257,54,55
 290 194 290 194 246 183 c 128,-1,56
 202 172 202 172 180.5 162.5 c 0,57,58
 135 142.395348837 135 142.395348837 135 113 c 0,59,60
 135 110 135 110 136 106 c 1,61,62
 161.169491525 62.3728813559 161.169491525 62.3728813559 211 60 c 0,63,64
 212 60 212 60 223.5 60 c 128,-1,65
 235 60 235 60 256.5 68.5 c 128,-1,66
 278 77 278 77 295.5 87 c 128,-1,67
 313 97 313 97 323.5 105 c 128,-1,68
 334 113 334 113 334 114 c 258,52,-1
EndSplineSet
Validated: 524289
EndChar

StartChar: b
Encoding: 98 98 32
Width: 577
Flags: W
HStem: 0 51<153.414 393.731> 1 75<40.7595 94.0997> 1 68<152.596 280.706> 320 64<159.547 392.526>
VStem: 91.381 58<69 309.685 359 631.035> 457.381 75<109.139 262.047>
LayerCount: 2
Fore
SplineSet
148.380859375 359 m 1,0,1
 219.838867188 380.748046875 219.838867188 380.748046875 291.380859375 384 c 1,2,-1
 310.380859375 384 l 2,3,4
 464.079101562 384 464.079101562 384 514.380859375 281 c 0,5,6
 532.380859375 243 532.380859375 243 532.380859375 185 c 2,7,-1
 532.380859375 168 l 1,8,9
 528.765625 68.56640625 528.765625 68.56640625 426.880859375 28.5 c 0,10,11
 354.409179688 0 354.409179688 0 232.380859375 0 c 0,12,13
 222.880859375 0 222.880859375 0 216.130859375 0 c 128,-1,14
 209.380859375 0 209.380859375 0 199.380859375 0.5 c 128,-1,15
 189.380859375 1 189.380859375 1 169.380859375 1 c 0,16,17
 108.380859375 1 108.380859375 1 47.380859375 1 c 0,18,19
 40.380859375 1 40.380859375 1 39.380859375 4.5 c 128,-1,20
 38.380859375 8 38.380859375 8 38.880859375 15.5 c 128,-1,21
 39.380859375 23 39.380859375 23 40.380859375 34 c 128,-1,22
 41.380859375 45 41.380859375 45 38.380859375 60 c 0,23,24
 36.380859375 75 36.380859375 75 44.880859375 76 c 128,-1,25
 53.380859375 77 53.380859375 77 64.380859375 73.5 c 128,-1,26
 75.380859375 70 75.380859375 70 84.880859375 66.5 c 128,-1,27
 94.380859375 63 94.380859375 63 94.380859375 69 c 2,28,-1
 91.380859375 348 l 1,29,-1
 91.380859375 583 l 2,30,31
 91.380859375 629 91.380859375 629 90.380859375 682 c 0,32,33
 89.380859375 689 89.380859375 689 84.880859375 684.5 c 128,-1,34
 80.380859375 680 80.380859375 680 74.380859375 676.5 c 128,-1,35
 68.380859375 673 68.380859375 673 62.380859375 676.5 c 128,-1,36
 56.380859375 680 56.380859375 680 53.880859375 694 c 128,-1,37
 51.380859375 708 51.380859375 708 51.380859375 718 c 128,-1,38
 51.380859375 728 51.380859375 728 63.380859375 736 c 0,39,40
 82.9195863782 751.630493379 82.9195863782 751.630493379 100.298174925 751.630493379 c 0,41,42
 110.728585012 751.630493379 110.728585012 751.630493379 120.380859375 746 c 0,43,44
 136.784179688 736.431640625 136.784179688 736.431640625 153.083007812 718.215820312 c 128,-1,45
 169.380859375 700 169.380859375 700 175.380859375 697 c 0,46,47
 202.445937957 700.383423905 202.445937957 700.383423905 212.418640521 700.383423905 c 0,48,49
 215.079391194 700.383423905 215.079391194 700.383423905 216.5234375 700.142578125 c 0,50,51
 223.380859375 699 223.380859375 699 218.380859375 695 c 0,52,53
 180.37109375 667.850585938 180.37109375 667.850585938 160.880859375 602.5 c 0,54,55
 146.380859375 553.8828125 146.380859375 553.8828125 146.380859375 485 c 1,56,-1
 148.380859375 359 l 1,0,1
152.380859375 116 m 2,57,58
 152.380859375 69 152.380859375 69 154.380859375 69 c 256,59,60
 158.380859375 69 158.380859375 69 179.880859375 63.5 c 0,61,62
 228.744140625 51 228.744140625 51 282.380859375 51 c 0,63,64
 294.880859375 51 294.880859375 51 320.630859375 51.5 c 128,-1,65
 346.380859375 52 346.380859375 52 379.880859375 65.5 c 0,66,67
 457.380859375 96.7314453125 457.380859375 96.7314453125 457.380859375 192 c 0,68,69
 455.583984375 272.884765625 455.583984375 272.884765625 381.880859375 303.5 c 0,70,71
 349.380859375 317 349.380859375 317 321.880859375 318.5 c 128,-1,72
 294.380859375 320 294.380859375 320 276.380859375 320 c 128,-1,73
 258.380859375 320 258.380859375 320 231.880859375 318 c 0,74,75
 179.52734375 314.048828125 179.52734375 314.048828125 149.380859375 304 c 1,76,-1
 149.380859375 294 l 1,77,78
 151.380859375 270 151.380859375 270 151.380859375 215 c 2,79,-1
 152.380859375 116 l 2,57,58
EndSplineSet
Validated: 524289
EndChar

StartChar: c
Encoding: 99 99 33
Width: 453
Flags: W
HStem: 1 51<169 263> 374 47<171.246 377.964>
VStem: 38 63<129.398 305.094>
LayerCount: 2
Fore
SplineSet
268.5 374 m 0,0,1
 104.265306122 374 104.265306122 374 101 214 c 0,2,3
 101 203 101 203 102 192 c 1,4,5
 128.286764706 68.4522058824 128.286764706 68.4522058824 215 54 c 0,6,7
 226 52 226 52 237 52 c 2,8,-1
 263 54 l 1,9,10
 318 63 318 63 383 105 c 1,11,12
 397 105 397 105 400 97 c 128,-1,13
 403 89 403 89 409 80.5 c 128,-1,14
 415 72 415 72 402.5 59 c 128,-1,15
 390 46 390 46 365.5 34 c 0,16,17
 305.689295039 4.70496083551 305.689295039 4.70496083551 239 1 c 0,18,19
 232 1 232 1 225 1 c 2,20,-1
 169 6 l 1,21,22
 94.5137318255 22.5525040388 94.5137318255 22.5525040388 58.5 97.5 c 0,23,24
 40 136 40 136 38 196 c 256,25,26
 38 202 38 202 38 208 c 0,27,28
 38 310.533333333 38 310.533333333 102 366 c 0,29,30
 167.576923077 421 167.576923077 421 273 421 c 2,31,-1
 283 421 l 2,32,33
 293 421 293 421 327 417.5 c 0,34,35
 399.434782609 410.043478261 399.434782609 410.043478261 400.5 393 c 0,36,37
 401 385 401 385 392.5 371 c 128,-1,38
 384 357 384 357 378 357 c 0,39,40
 377 357 377 357 355.5 362.5 c 0,41,42
 310.545454545 374 310.545454545 374 268.5 374 c 0,0,1
EndSplineSet
Validated: 524289
EndChar

StartChar: d
Encoding: 100 100 34
Width: 586
Flags: W
HStem: 0 61<199.363 426> 0 47<179.752 425.957 490.642 544> 0.5 0.5<359.485 359.5> 318 68<238.615 415>
VStem: 37 78<98.8619 233.07> 416 70<64.6025 318 386 653.789> 426 60<61 317.609>
LayerCount: 2
Fore
SplineSet
368 1 m 1,0,-1
 362 0 l 1,1,-1
 362 1 l 1,2,-1
 360 1 l 2,3,4
 359 1 359 1 359.5 0.5 c 2,5,-1
 344 0 l 1,6,7
 236.8 0 236.8 0 177.9 19 c 128,-1,8
 119 38 119 38 84.5 66.5 c 0,9,10
 37 105.739130435 37 105.739130435 37 182 c 0,11,12
 37 250.0625 37 250.0625 95 299 c 0,13,14
 188.869507324 378.202396804 188.869507324 378.202396804 415 386 c 1,15,16
 415 508 415 508 413 678 c 0,17,18
 413 685 413 685 408 680.5 c 128,-1,19
 403 676 403 676 397 672.5 c 128,-1,20
 391 669 391 669 385 672.5 c 128,-1,21
 379 676 379 676 376.5 690 c 128,-1,22
 374 704 374 704 374 714 c 128,-1,23
 374 724 374 724 386.5 736.5 c 128,-1,24
 399 749 399 749 414.5 751.5 c 128,-1,25
 430 754 430 754 442.5 746.5 c 128,-1,26
 455 739 455 739 465 728 c 128,-1,27
 475 717 475 717 483.5 706.5 c 128,-1,28
 492 696 492 696 498 693 c 0,29,30
 525.122197027 696.390274628 525.122197027 696.390274628 534.774101326 696.390274628 c 0,31,32
 537.353489544 696.390274628 537.353489544 696.390274628 538.685185185 696.148148148 c 0,33,34
 545 695 545 695 539 691 c 0,35,36
 488.762626263 655.116161616 488.762626263 655.116161616 485 546 c 0,37,38
 484.5 531.5 484.5 531.5 484.5 502 c 128,-1,39
 484.5 472.5 484.5 472.5 485 428 c 0,40,41
 486 339 486 339 486 243 c 0,42,43
 486 71.6666666667 486 71.6666666667 490.5 64.3333333333 c 128,-1,44
 495 57 495 57 503.5 54 c 128,-1,45
 512 51 512 51 520.5 49.5 c 128,-1,46
 529 48 529 48 535.5 47 c 128,-1,47
 542 46 542 46 542 42 c 2,48,-1
 546 9 l 1,49,50
 546 0 546 0 535 0 c 0,51,52
 493.25 0 493.25 0 451.5 0 c 2,53,-1
 369 1 l 1,54,-1
 368 1 l 1,0,-1
426 89.5 m 2,55,56
 426 103 426 103 425 119.5 c 128,-1,57
 424 136 424 136 423 160.5 c 128,-1,58
 422 185 422 185 420.5 209.5 c 128,-1,59
 419 234 419 234 418 256 c 128,-1,60
 417 278 417 278 416 293 c 1,61,-1
 416 318 l 1,62,-1
 392 318 l 2,63,64
 205.642857143 318 205.642857143 318 135 232 c 0,65,66
 115 208 115 208 115 164.5 c 128,-1,67
 115 121 115 121 137.5 97.5 c 0,68,69
 178.653631285 54.5173184358 178.653631285 54.5173184358 269 50 c 0,70,71
 287.480522876 48.7679651416 287.480522876 48.7679651416 305.409094135 48.7679651416 c 0,72,73
 341.123189542 48.7679651416 341.123189542 48.7679651416 374.647058824 53.6568627451 c 0,74,75
 425 61 425 61 426 61 c 1,76,-1
 426 89.5 l 2,55,56
EndSplineSet
Validated: 524289
EndChar

StartChar: e
Encoding: 101 101 35
Width: 494
Flags: W
HStem: 3 47<166.345 293.316> 45 67<327.213 446.939> 217 42<113.234 315.545> 379 40<184.126 343.809>
VStem: 38 69<125.679 216.44>
LayerCount: 2
Fore
SplineSet
393 112 m 2,0,-1
 409 112 l 1,1,2
 427 110 427 110 437.5 101 c 128,-1,3
 448 92 448 92 451 81 c 128,-1,4
 454 70 454 70 451 59.5 c 128,-1,5
 448 49 448 49 441 45 c 1,6,7
 433.507606225 48.7461968876 433.507606225 48.7461968876 422.722961085 48.7461968876 c 0,8,9
 412.224864487 48.7461968876 412.224864487 48.7461968876 398.607142857 45.1964285714 c 0,10,11
 371 38 371 38 318.5 20.5 c 128,-1,12
 266 3 266 3 225 3 c 2,13,-1
 218 3 l 1,14,-1
 163 10 l 1,15,16
 133 18 133 18 99.5 55.5 c 128,-1,17
 66 93 66 93 48 162 c 0,18,19
 38 200 38 200 38 232 c 2,20,-1
 38 242 l 2,21,22
 38 260 38 260 45 282 c 0,23,24
 75 375 75 375 173 406 c 0,25,26
 214 419 214 419 234.5 419 c 128,-1,27
 255 419 255 419 267.5 419.5 c 128,-1,28
 280 420 280 420 293 420 c 128,-1,29
 306 420 306 420 336.5 410.5 c 128,-1,30
 367 401 367 401 385 388 c 128,-1,31
 403 375 403 375 414 356.5 c 128,-1,32
 425 338 425 338 430 320 c 128,-1,33
 435 302 435 302 436.5 285 c 128,-1,34
 438 268 438 268 439.5 258 c 128,-1,35
 441 248 441 248 427 242.5 c 0,36,37
 362.090909091 217 362.090909091 217 111 217 c 1,38,39
 107 199 107 199 107 190.5 c 0,40,41
 107 117.793103448 107 117.793103448 144.5 86.8965517241 c 128,-1,42
 182 56 182 56 229 50 c 1,43,44
 261 50 261 50 309.5 81 c 128,-1,45
 358 112 358 112 393 112 c 2,0,-1
379 302 m 0,46,47
 374 347 374 347 328 368 c 0,48,49
 304 379 304 379 260 379 c 128,-1,50
 216 379 216 379 184 359 c 0,51,52
 132 326 132 326 118 286 c 2,53,-1
 113 271 l 1,54,-1
 128 270 l 1,55,56
 211 259 211 259 279 259 c 128,-1,57
 347 259 347 259 376 271 c 1,58,59
 380 280 380 280 379.5 289 c 128,-1,60
 379 298 379 298 379 302 c 0,46,47
EndSplineSet
Validated: 524289
EndChar

StartChar: f
Encoding: 102 102 36
Width: 479
Flags: W
HStem: 0 69<81.3223 137.625> 330 55<39 134 207 284.556>
VStem: 136 70<54 332 390 680.587> 365 75<699.251 742.295>
LayerCount: 2
Fore
SplineSet
205 490 m 1,0,-1
 206 390 l 1,1,-1
 307 394 l 1,2,-1
 312 337 l 1,3,-1
 207 334 l 1,4,5
 208 280 208 280 208.5 230.5 c 128,-1,6
 209 181 209 181 209.5 143 c 0,7,8
 210.604026846 59.0939597315 210.604026846 59.0939597315 214.302013423 52.5469798658 c 128,-1,9
 218 46 218 46 226.5 44.5 c 128,-1,10
 235 43 235 43 243.5 44 c 0,11,12
 265 46.5294117647 265 46.5294117647 265 42 c 0,13,14
 266 30 266 30 269.5 22 c 128,-1,15
 273 14 273 14 275 9 c 128,-1,16
 277 4 277 4 277 2 c 128,-1,17
 277 0 277 0 268.5 0 c 0,18,19
 181.25 0 181.25 0 94 0 c 0,20,21
 83.5 0 83.5 0 81.25 9 c 128,-1,22
 79 18 79 18 78.5 28.5 c 128,-1,23
 78 39 78 39 75 54 c 256,24,25
 72 69 72 69 81.5 69 c 128,-1,26
 91 69 91 69 103.5 63.5 c 128,-1,27
 116 58 116 58 127 53 c 128,-1,28
 138 48 138 48 138 54 c 2,29,-1
 135 332 l 1,30,-1
 37 330 l 1,31,-1
 39 385 l 1,32,-1
 134 388 l 1,33,-1
 136 584 l 2,34,35
 137.455635492 665.51558753 137.455635492 665.51558753 173.5 723.5 c 0,36,37
 197.788381743 762.572614108 197.788381743 762.572614108 241.5 782 c 0,38,39
 264 792 264 792 301 792.5 c 0,40,41
 305.111111111 792.555555556 305.111111111 792.555555556 309.104938272 792.555555556 c 0,42,43
 341.055555556 792.555555556 341.055555556 792.555555556 365.5 789 c 0,44,45
 393 785 393 785 409.5 777 c 128,-1,46
 426 769 426 769 432.5 759 c 128,-1,47
 439 749 439 749 440 738.5 c 128,-1,48
 441 728 441 728 439 717.5 c 128,-1,49
 437 707 437 707 436 699 c 1,50,51
 424.4 693.2 424.4 693.2 397.7 689.1 c 128,-1,52
 371 685 371 685 352 682 c 1,53,54
 365 708 365 708 365 722 c 128,-1,55
 365 736 365 736 360.5 742.5 c 128,-1,56
 356 749 356 749 346 752 c 0,57,58
 340.070175439 753.778947368 340.070175439 753.778947368 332.058323587 753.778947368 c 0,59,60
 312.336842105 753.778947368 312.336842105 753.778947368 280 743 c 1,61,62
 224.424892704 716.420600858 224.424892704 716.420600858 210.5 609 c 0,63,64
 207 582 207 582 205 562 c 0,65,66
 206 544 206 544 206 526 c 128,-1,67
 206 508 206 508 205 490 c 1,0,-1
EndSplineSet
Validated: 524289
EndChar

StartChar: g
Encoding: 103 103 37
Width: 568
Flags: W
HStem: -297.37 25.3698<216.96 357.991> -20 25<258.123 366.656> 96 25<227.597 339.237> 318 88<456.614 506.91> 368 24<223.556 341.884>
VStem: 36 75.0908<-201.738 -86.6392> 72.0479 85.043<174.339 314.034> 404.091 78<170.944 314.932> 464.182 64.9092<-207.368 -82.7918>
LayerCount: 2
Fore
SplineSet
254.215820312 96 m 0,0,1
 229.340820312 96 229.340820312 96 187.090820312 109 c 1,2,3
 170.090820312 105 170.090820312 105 157.090820312 97 c 128,-1,4
 144.090820312 89 144.090820312 89 148.590820312 75 c 128,-1,5
 153.090820312 61 153.090820312 61 175.590820312 49.5 c 128,-1,6
 198.090820312 38 198.090820312 38 224.590820312 28.5 c 128,-1,7
 251.090820312 19 251.090820312 19 273.590820312 12.5 c 128,-1,8
 296.090820312 6 296.090820312 6 299.090820312 5 c 1,9,-1
 302.090820312 5 l 1,10,11
 433.132837119 1.20168067227 433.132837119 1.20168067227 492.590820312 -60.5 c 0,12,13
 529.090820312 -98.3773584906 529.090820312 -98.3773584906 529.090820312 -148 c 0,14,15
 529.090820312 -205.08 529.090820312 -205.08 487.090820312 -237 c 0,16,17
 438.056781674 -274.265869365 438.056781674 -274.265869365 360.590820312 -287 c 0,18,19
 293.470171849 -298.033531254 293.470171849 -298.033531254 258.673591605 -298.033531254 c 0,20,21
 250.139288225 -298.033531254 250.139288225 -298.033531254 243.549400194 -297.369822485 c 0,22,23
 210.090820312 -294 210.090820312 -294 181.090820312 -286.5 c 128,-1,24
 152.090820312 -279 152.090820312 -279 125.090820312 -266.5 c 0,25,26
 68.1099285926 -240.119957537 68.1099285926 -240.119957537 45.0908203125 -196 c 0,27,28
 36 -177.818359375 36 -177.818359375 36 -156.331054688 c 2,29,-1
 36.0908203125 -144 l 1,30,31
 41.3600510817 -50.9102564101 41.3600510817 -50.9102564101 152.090820312 -14 c 1,32,33
 106.636274859 20.0909090896 106.636274859 20.0909090896 85.3635475858 42.5454545448 c 128,-1,34
 63.9885654699 65.1079356672 63.9885654699 65.1079356672 63.9885654699 68.8413623138 c 0,35,36
 63.9885654699 90.7023529644 63.9885654699 90.7023529644 121.590820312 113 c 0,37,38
 137.090820312 119 137.090820312 119 152.090820312 123 c 1,39,40
 117.090820312 141 117.090820312 141 94.5693359373 169.391113281 c 128,-1,41
 72.0478515625 197.782226562 72.0478515625 197.782226562 72.0478515625 235.543945312 c 2,42,-1
 72.0908203125 246 l 1,43,44
 77.537468468 324.068623562 77.537468468 324.068623562 145.590820312 362 c 0,45,46
 199.414349724 392 199.414349724 392 293.090820312 392 c 0,47,48
 362.082086688 390.135371179 362.082086688 390.135371179 410.090820312 363 c 1,49,50
 447.357486979 406 447.357486979 406 469.090820312 406 c 0,51,52
 488.662248883 406 488.662248883 406 504.090820312 388 c 0,53,54
 515.494413126 374.695808383 515.494413126 374.695808383 515.494413126 360.128344509 c 0,55,56
 515.494413126 357.067065868 515.494413126 357.067065868 514.990820312 353.95 c 0,57,58
 512.090820312 336 512.090820312 336 505.590820312 328 c 128,-1,59
 499.090820312 320 499.090820312 320 490.590820312 318 c 0,60,61
 484.059555759 316.46323187 484.059555759 316.46323187 477.664493064 316.46323187 c 0,62,63
 466.676612615 316.46323187 466.676612615 316.46323187 456.090820312 321 c 1,64,65
 482.587962153 286.932246204 482.587962153 286.932246204 482.587962153 250.906093159 c 0,66,67
 482.587962153 245.971418414 482.587962153 245.971418414 482.090820312 241 c 1,68,69
 482.090820312 159.888888889 482.090820312 159.888888889 399.090820312 123 c 0,70,71
 338.340820312 96 338.340820312 96 254.215820312 96 c 0,0,1
288.090820312 -20 m 1,72,-1
 281.090820312 -20 l 2,73,74
 212.757486979 -20 212.757486979 -20 162.090820312 -58 c 0,75,76
 111.090820312 -96.25 111.090820312 -96.25 111.090820312 -147 c 256,77,78
 111.090820312 -194.117647059 111.090820312 -194.117647059 167.590820312 -234 c 0,79,80
 221.424153645 -272 221.424153645 -272 287.090820312 -272 c 0,81,82
 352.403320312 -272 352.403320312 -272 410.590820312 -234 c 0,83,84
 464.181640625 -199.001913265 464.181640625 -199.001913265 464.181640625 -156.090820312 c 0,85,86
 464.181640625 -66.8086520524 464.181640625 -66.8086520524 372.590820312 -34 c 0,87,88
 339.090820312 -22 339.090820312 -22 288.090820312 -20 c 1,72,-1
281.090820312 368 m 1,89,-1
 276.090820312 368 l 2,90,91
 222.252982474 368 222.252982474 368 188.090820312 328.5 c 0,92,93
 157.090820312 292.65625 157.090820312 292.65625 157.090820312 241 c 256,94,95
 157.090820312 192.457142857 157.090820312 192.457142857 193.590820312 157 c 0,96,97
 230.649643841 121 230.649643841 121 283.090820312 121 c 2,98,-1
 288.090820312 121 l 1,99,100
 337.18894441 122.963924964 337.18894441 122.963924964 373.090820312 155.5 c 0,101,102
 404.090820312 183.59375 404.090820312 183.59375 404.090820312 220 c 0,103,104
 404.090820312 290.625 404.090820312 290.625 388.590820312 315.8125 c 128,-1,105
 373.090820312 341 373.090820312 341 348.590820312 353.5 c 128,-1,106
 324.090820312 366 324.090820312 366 281.090820312 368 c 1,89,-1
394.090820312 345 m 1,107,108
 390.090820312 345 390.090820312 345 390.590820312 343.5 c 128,-1,109
 391.090820312 342 391.090820312 342 394.090820312 345 c 1,107,108
EndSplineSet
Validated: 524289
EndChar

StartChar: h
Encoding: 104 104 38
Width: 591
Flags: W
HStem: 0 78<42.3898 102.407> 0 54.5<175.534 231.003> 351 44<256.767 396.607>
VStem: 100.407 71<63 289 352 649.791> 428.407 74<70.6297 311.079>
LayerCount: 2
Fore
SplineSet
423.407226562 52 m 1,0,-1
 428.407226562 130 l 1,1,-1
 428.407226562 202 l 1,2,3
 423.963867188 286.426757812 423.963867188 286.426757812 398.407226562 327.5 c 0,4,5
 384.407226562 350 384.407226562 350 360.407226562 351 c 1,6,-1
 353.407226562 351 l 2,7,8
 295.407226562 351 295.407226562 351 210.407226562 308.5 c 2,9,-1
 171.407226562 289 l 1,10,-1
 171.407226562 204 l 2,11,12
 171.407226562 69 171.407226562 69 175.407226562 62 c 128,-1,13
 179.407226562 55 179.407226562 55 187.907226562 53.5 c 128,-1,14
 196.407226562 52 196.407226562 52 205.407226562 53 c 128,-1,15
 214.407226562 54 214.407226562 54 220.907226562 54.5 c 128,-1,16
 227.407226562 55 227.407226562 55 227.407226562 51 c 0,17,18
 228.815429688 34.0986328125 228.815429688 34.0986328125 236.111328125 20.548828125 c 128,-1,19
 243.407226562 7 243.407226562 7 243.907226562 3.5 c 128,-1,20
 244.407226562 0 244.407226562 0 238.407226562 0 c 2,21,-1
 58.4072265625 0 l 2,22,23
 44.4072265625 0 44.4072265625 0 42.9072265625 16.5 c 128,-1,24
 41.4072265625 33 41.4072265625 33 37.9072265625 55.5 c 128,-1,25
 34.4072265625 78 34.4072265625 78 44.4072265625 78 c 128,-1,26
 54.4072265625 78 54.4072265625 78 66.9072265625 72.5 c 128,-1,27
 79.4072265625 67 79.4072265625 67 90.9072265625 62 c 128,-1,28
 102.407226562 57 102.407226562 57 102.407226562 63 c 2,29,-1
 102.407226562 156 l 1,30,-1
 100.407226562 342 l 1,31,-1
 100.407226562 577 l 2,32,33
 100.407226562 623 100.407226562 623 99.4072265625 676 c 0,34,35
 98.4072265625 683 98.4072265625 683 93.9072265625 678.5 c 128,-1,36
 89.4072265625 674 89.4072265625 674 83.4072265625 670.5 c 128,-1,37
 77.4072265625 667 77.4072265625 667 71.4072265625 670.5 c 128,-1,38
 65.4072265625 674 65.4072265625 674 62.9072265625 688.5 c 128,-1,39
 60.4072265625 703 60.4072265625 703 60.4072265625 713 c 128,-1,40
 60.4072265625 723 60.4072265625 723 72.4072265625 735 c 128,-1,41
 84.4072265625 747 84.4072265625 747 100.407226562 749.5 c 128,-1,42
 116.407226562 752 116.407226562 752 128.407226562 744.5 c 128,-1,43
 140.407226562 737 140.407226562 737 150.907226562 726 c 128,-1,44
 161.407226562 715 161.407226562 715 169.407226562 704.5 c 128,-1,45
 177.407226562 694 177.407226562 694 183.407226562 691 c 0,46,47
 210.532118114 694.39032243 210.532118114 694.39032243 220.183528722 694.39032243 c 0,48,49
 222.761479953 694.39032243 222.761479953 694.39032243 224.092773438 694.1484375 c 0,50,51
 230.407226562 693 230.407226562 693 225.407226562 689 c 0,52,53
 175.169921875 653.116210938 175.169921875 653.116210938 171.407226562 544 c 0,54,55
 170.407226562 515 170.407226562 515 170.407226562 484 c 128,-1,56
 170.407226562 453 170.407226562 453 170.907226562 419 c 128,-1,57
 171.407226562 385 171.407226562 385 171.407226562 352 c 1,58,59
 281.978515625 395 281.978515625 395 365.407226562 395 c 0,60,61
 370.407226562 395 370.407226562 395 375.407226562 395 c 0,62,63
 446.270507812 391.45703125 446.270507812 391.45703125 478.407226562 318 c 0,64,65
 502.407226562 263.142578125 502.407226562 263.142578125 502.407226562 192.071289062 c 128,-1,66
 502.407226562 121 502.407226562 121 494.407226562 69 c 1,67,68
 549.052734375 37.7744140625 549.052734375 37.7744140625 551.407226562 26 c 1,69,-1
 544.407226562 0 l 1,70,-1
 422.407226562 0 l 2,71,72
 409.903194948 0 409.903194948 0 409.903194948 12.8862183569 c 0,73,74
 409.903194948 18.6528254063 409.903194948 18.6528254063 412.407226562 27 c 0,75,76
 416.0390625 39.10546875 416.0390625 39.10546875 423.407226562 52 c 1,0,-1
EndSplineSet
Validated: 524289
EndChar

StartChar: i
Encoding: 105 105 39
Width: 270
Flags: W
HStem: 2 53<166.973 220.268> 4 64<42.5709 90.6307>
VStem: 88.8182 71<65.2023 310 314.5 358.99>
LayerCount: 2
Fore
SplineSet
173.318359375 359 m 0,0,1
 159.818359375 359 159.818359375 359 159.818359375 317 c 0,2,3
 160.818359375 242 160.818359375 242 160.818359375 195 c 128,-1,4
 160.818359375 148 160.818359375 148 161.318359375 120.5 c 0,5,6
 162.215820312 71.13671875 162.215820312 71.13671875 166.818359375 65 c 0,7,8
 171.614257812 52.2109375 171.614257812 52.2109375 195.318359375 55 c 0,9,10
 216.818359375 57.529296875 216.818359375 57.529296875 216.818359375 53 c 0,11,12
 218.309570312 35.1015625 218.309570312 35.1015625 224.563476562 21.55078125 c 128,-1,13
 230.818359375 8 230.818359375 8 230.818359375 5 c 128,-1,14
 230.818359375 2 230.818359375 2 222.318359375 2 c 0,15,16
 140.568359375 2 140.568359375 2 96.193359375 2 c 128,-1,17
 51.818359375 2 51.818359375 2 49.318359375 4 c 128,-1,18
 46.818359375 6 46.818359375 6 45.318359375 11.5 c 128,-1,19
 43.818359375 17 43.818359375 17 42.318359375 26.5 c 128,-1,20
 40.818359375 36 40.818359375 36 37.818359375 51 c 256,21,22
 34.818359375 66 34.818359375 66 42.818359375 68 c 128,-1,23
 50.818359375 70 50.818359375 70 61.318359375 67.5 c 128,-1,24
 71.818359375 65 71.818359375 65 81.318359375 62 c 128,-1,25
 90.818359375 59 90.818359375 59 90.818359375 65 c 2,26,-1
 89.818359375 197 l 1,27,-1
 89.818359375 221 l 1,28,29
 88.818359375 265 88.818359375 265 88.818359375 284.5 c 2,30,-1
 88.818359375 310 l 1,31,-1
 89.318359375 314.5 l 2,32,33
 89.818359375 313 89.818359375 313 89.818359375 316 c 2,34,-1
 89.818359375 332.5 l 2,35,36
 89.818359375 346 89.818359375 346 88.818359375 381 c 0,37,38
 88.818359375 388 88.818359375 388 84.318359375 383.5 c 128,-1,39
 79.818359375 379 79.818359375 379 73.818359375 375.5 c 128,-1,40
 67.818359375 372 67.818359375 372 61.318359375 375.5 c 128,-1,41
 54.818359375 379 54.818359375 379 52.318359375 392.5 c 128,-1,42
 49.818359375 406 49.818359375 406 49.818359375 416.5 c 128,-1,43
 49.818359375 427 49.818359375 427 62.818359375 439.5 c 128,-1,44
 75.818359375 452 75.818359375 452 89.818359375 454.5 c 128,-1,45
 103.818359375 457 103.818359375 457 119.818359375 447 c 128,-1,46
 135.818359375 437 135.818359375 437 150.818359375 422 c 0,47,48
 186.818359375 386 186.818359375 386 186.818359375 371 c 128,-1,49
 186.818359375 356 186.818359375 356 182.818359375 357.5 c 128,-1,50
 178.818359375 359 178.818359375 359 173.318359375 359 c 0,0,1
108.818359375 632 m 1,51,-1
 178.818359375 579 l 1,52,-1
 110.818359375 531 l 1,53,-1
 50.818359375 579 l 1,54,-1
 108.818359375 632 l 1,51,-1
EndSplineSet
Validated: 524289
EndChar

StartChar: j
Encoding: 106 106 40
Width: 410
Flags: W
HStem: -306 48<114.683 229.586>
VStem: 41.8077 83.5<-226.592 -197.034> 267.308 71<-53.4552 354.843> 275.308 66<-75 63.2792>
LayerCount: 2
Fore
SplineSet
268.307617188 83 m 1,0,-1
 268.307617188 119 l 2,1,2
 268.307617188 138 268.307617188 138 267.307617188 174 c 1,3,-1
 267.307617188 238 l 1,4,5
 266.307617188 282 266.307617188 282 266.307617188 294 c 2,6,-1
 266.307617188 309 l 2,7,8
 266.307617188 312 266.307617188 312 265.807617188 334.5 c 128,-1,9
 265.307617188 357 265.307617188 357 265.307617188 368 c 0,10,11
 265.307617188 376 265.307617188 376 260.307617188 371 c 0,12,13
 246.640625 357.333007812 246.640625 357.333007812 237.307617188 362 c 0,14,15
 232.307617188 365 232.307617188 365 228.807617188 379 c 128,-1,16
 225.307617188 393 225.307617188 393 225.307617188 403 c 128,-1,17
 225.307617188 413 225.307617188 413 238.307617188 426 c 128,-1,18
 251.307617188 439 251.307617188 439 266.807617188 441.5 c 128,-1,19
 282.307617188 444 282.307617188 444 294.807617188 436.5 c 0,20,21
 314.404296875 424.7421875 314.404296875 424.7421875 335.307617188 396 c 0,22,23
 346.307617188 384 346.307617188 384 351.307617188 383 c 128,-1,24
 356.307617188 382 356.307617188 382 364.307617188 382 c 0,25,26
 376.307617188 381 376.307617188 381 367.807617188 371.5 c 128,-1,27
 359.307617188 362 359.307617188 362 353.307617188 360 c 128,-1,28
 347.307617188 358 347.307617188 358 343.807617188 355 c 0,29,30
 338.307617188 350.286132812 338.307617188 350.286132812 338.307617188 304 c 0,31,32
 340.307617188 154 340.307617188 154 340.307617188 53 c 2,33,-1
 341.307617188 -59 l 257,34,-1
 342.307617188 -75 l 2,35,36
 343.341978694 -92.5842787106 343.341978694 -92.5842787106 343.341978694 -108.737642896 c 0,37,38
 343.341978694 -211.097714007 343.341978694 -211.097714007 301.807617188 -256 c 0,39,40
 283.307617188 -276 283.307617188 -276 251.307617188 -291 c 128,-1,41
 219.307617188 -306 219.307617188 -306 182.307617188 -306 c 0,42,43
 176.307617188 -306 176.307617188 -306 145.307617188 -306 c 128,-1,44
 114.307617188 -306 114.307617188 -306 84.8076171875 -296.5 c 128,-1,45
 55.3076171875 -287 55.3076171875 -287 44.3076171875 -271 c 128,-1,46
 33.3076171875 -255 33.3076171875 -255 35.3076171875 -249.5 c 128,-1,47
 37.3076171875 -244 37.3076171875 -244 38.8076171875 -231 c 128,-1,48
 40.3076171875 -218 40.3076171875 -218 41.8076171875 -210.5 c 0,49,50
 44.537109375 -196.8515625 44.537109375 -196.8515625 87.3076171875 -194 c 1,51,-1
 99.3076171875 -194 l 2,52,53
 111.307617188 -194 111.307617188 -194 125.307617188 -195 c 1,54,55
 112.307617188 -214 112.307617188 -214 112.307617188 -227 c 0,56,57
 112.307617188 -255.6953125 112.307617188 -255.6953125 165.307617188 -258 c 0,58,59
 179.307617188 -258 179.307617188 -258 197.307617188 -256 c 1,60,61
 275.307617188 -233.25 275.307617188 -233.25 275.307617188 -53.5 c 0,62,63
 275.307617188 -53 275.307617188 -53 270.307617188 67 c 1,64,-1
 269.307617188 71 l 1,65,-1
 268.307617188 83 l 1,0,-1
282.307617188 625 m 1,66,-1
 352.307617188 572 l 1,67,-1
 284.307617188 524 l 1,68,-1
 224.307617188 572 l 1,69,-1
 282.307617188 625 l 1,66,-1
EndSplineSet
Validated: 524289
EndChar

StartChar: k
Encoding: 107 107 41
Width: 614
Flags: W
HStem: 2 81<41.3993 102.692> 2 57.5<176.787 230.804>
VStem: 98.6923 73<68 186 256 654.791>
LayerCount: 2
Fore
SplineSet
497.692382812 450 m 1,0,1
 302.692382812 290 302.692382812 290 264.692382812 260 c 1,2,3
 265.692382812 259 265.692382812 259 278.692382812 254 c 128,-1,4
 291.692382812 249 291.692382812 249 309.692382812 241 c 128,-1,5
 327.692382812 233 327.692382812 233 349.192382812 223 c 128,-1,6
 370.692382812 213 370.692382812 213 389.192382812 203.5 c 0,7,8
 434.286132812 180.34375 434.286132812 180.34375 438.692382812 173 c 0,9,10
 452.692382812 153 452.692382812 153 456.692382812 118.5 c 128,-1,11
 460.692382812 84 460.692382812 84 462.192382812 47 c 128,-1,12
 463.692382812 10 463.692382812 10 467.192382812 -24 c 128,-1,13
 470.692382812 -58 470.692382812 -58 483.192382812 -77.5 c 128,-1,14
 495.692382812 -97 495.692382812 -97 512.192382812 -112 c 0,15,16
 546.1484375 -142.869140625 546.1484375 -142.869140625 575.692382812 -156 c 1,17,-1
 565.692382812 -158 l 2,18,19
 543.692382812 -162 543.692382812 -162 526.192382812 -162 c 2,20,-1
 502.692382812 -162 l 2,21,22
 475.692382812 -162 475.692382812 -162 450.692382812 -150 c 128,-1,23
 425.692382812 -138 425.692382812 -138 416.692382812 -129.5 c 0,24,25
 401.854492188 -115.486328125 401.854492188 -115.486328125 387.692382812 -73 c 0,26,27
 382.845703125 -66.5380859375 382.845703125 -66.5380859375 376.76953125 -5.76953125 c 128,-1,28
 370.692382812 55 370.692382812 55 368.192382812 77 c 0,29,30
 362.438476562 127.634765625 362.438476562 127.634765625 359.065429688 135.317382812 c 128,-1,31
 355.692382812 143 355.692382812 143 338.192382812 154 c 128,-1,32
 320.692382812 165 320.692382812 165 297.192382812 176.5 c 0,33,34
 250.739257812 199.232421875 250.739257812 199.232421875 208.692382812 215 c 1,35,-1
 171.692382812 186 l 1,36,37
 172.692382812 136 172.692382812 136 173.192382812 104 c 128,-1,38
 173.692382812 72 173.692382812 72 176.692382812 66 c 128,-1,39
 179.692382812 60 179.692382812 60 188.192382812 58.5 c 128,-1,40
 196.692382812 57 196.692382812 57 205.692382812 58 c 128,-1,41
 214.692382812 59 214.692382812 59 221.192382812 59.5 c 128,-1,42
 227.692382812 60 227.692382812 60 227.692382812 56 c 0,43,44
 229.071289062 39.4482421875 229.071289062 39.4482421875 235.381835938 24.724609375 c 128,-1,45
 241.692382812 10 241.692382812 10 241.692382812 6 c 128,-1,46
 241.692382812 2 241.692382812 2 233.192382812 2 c 0,47,48
 143.442382812 2 143.442382812 2 53.6923828125 2 c 0,49,50
 43.6923828125 2 43.6923828125 2 42.1923828125 15.5 c 128,-1,51
 40.6923828125 29 40.6923828125 29 40.1923828125 41 c 128,-1,52
 39.6923828125 53 39.6923828125 53 37.6923828125 68 c 0,53,54
 34.6923828125 83 34.6923828125 83 44.6923828125 83 c 128,-1,55
 54.6923828125 83 54.6923828125 83 67.1923828125 77.5 c 128,-1,56
 79.6923828125 72 79.6923828125 72 91.1923828125 67 c 128,-1,57
 102.692382812 62 102.692382812 62 102.692382812 68 c 2,58,-1
 102.692382812 161 l 2,59,60
 102.692382812 235 102.692382812 235 100.692382812 289 c 128,-1,61
 98.6923828125 343 98.6923828125 343 98.6923828125 362.5 c 2,62,-1
 98.6923828125 582 l 2,63,64
 98.6923828125 628 98.6923828125 628 97.6923828125 681 c 0,65,66
 97.6923828125 688 97.6923828125 688 93.1923828125 683.5 c 128,-1,67
 88.6923828125 679 88.6923828125 679 83.1923828125 675.5 c 128,-1,68
 77.6923828125 672 77.6923828125 672 71.6923828125 675.5 c 128,-1,69
 65.6923828125 679 65.6923828125 679 62.6923828125 696 c 128,-1,70
 59.6923828125 713 59.6923828125 713 62.6923828125 722 c 128,-1,71
 65.6923828125 731 65.6923828125 731 71.6923828125 738 c 0,72,73
 81.783203125 749.772460938 81.783203125 749.772460938 98.7373046875 753.38671875 c 128,-1,74
 115.692382812 757 115.692382812 757 128.192382812 749.5 c 128,-1,75
 140.692382812 742 140.692382812 742 151.192382812 731 c 128,-1,76
 161.692382812 720 161.692382812 720 169.692382812 709.5 c 128,-1,77
 177.692382812 699 177.692382812 699 183.692382812 696 c 0,78,79
 210.817274364 699.39032243 210.817274364 699.39032243 220.468684972 699.39032243 c 0,80,81
 223.046636203 699.39032243 223.046636203 699.39032243 224.377929688 699.1484375 c 0,82,83
 230.692382812 698 230.692382812 698 225.692382812 694 c 0,84,85
 175.455078125 658.116210938 175.455078125 658.116210938 171.692382812 549 c 0,86,87
 171.025716146 529.666666667 171.025716146 529.666666667 171.025716146 503.444444444 c 0,88,89
 171.025716146 490.333333333 171.025716146 490.333333333 171.192382812 475.5 c 0,90,91
 171.692382812 431 171.692382812 431 171.692382812 370.5 c 2,92,-1
 171.692382812 256 l 1,93,94
 232.192382812 316.5 232.192382812 316.5 272.942382812 357.25 c 128,-1,95
 313.692382812 398 313.692382812 398 330.192382812 414 c 128,-1,96
 346.692382812 430 346.692382812 430 356.692382812 440 c 2,97,-1
 366.692382812 450 l 2,98,99
 366.692382812 449 366.692382812 449 386.692382812 449 c 2,100,-1
 431.692382812 449 l 2,101,102
 460.692382812 449 460.692382812 449 497.692382812 450 c 1,0,1
EndSplineSet
Validated: 524289
EndChar

StartChar: l
Encoding: 108 108 42
Width: 270
Flags: W
HStem: 1 66.5<42.8653 91.3187> 5 46<182.502 220.86>
VStem: 88.6 70.5<61 642.975>
LayerCount: 2
Fore
SplineSet
144.599609375 0 m 2,0,-1
 45.599609375 1 l 2,1,2
 37.599609375 1 37.599609375 1 37.099609375 3 c 128,-1,3
 36.599609375 5 36.599609375 5 38.599609375 11 c 0,4,5
 42.7662760417 23.5 42.7662760417 23.5 42.7662760417 35.7222222222 c 0,6,7
 42.7662760417 41.8333333333 42.7662760417 41.8333333333 41.724609375 47.875 c 0,8,9
 38.599609375 66 38.599609375 66 46.099609375 67.5 c 128,-1,10
 53.599609375 69 53.599609375 69 63.599609375 65.5 c 128,-1,11
 73.599609375 62 73.599609375 62 82.599609375 58.5 c 128,-1,12
 91.599609375 55 91.599609375 55 91.599609375 61 c 2,13,-1
 88.599609375 340 l 1,14,-1
 88.599609375 575 l 2,15,16
 88.599609375 621 88.599609375 621 87.599609375 674 c 0,17,18
 87.599609375 681 87.599609375 681 83.099609375 676.5 c 128,-1,19
 78.599609375 672 78.599609375 672 72.599609375 668.5 c 128,-1,20
 66.599609375 665 66.599609375 665 60.099609375 668.5 c 128,-1,21
 53.599609375 672 53.599609375 672 51.099609375 685.5 c 128,-1,22
 48.599609375 699 48.599609375 699 48.599609375 709.5 c 128,-1,23
 48.599609375 720 48.599609375 720 61.599609375 732.5 c 128,-1,24
 74.599609375 745 74.599609375 745 90.099609375 747.5 c 128,-1,25
 105.599609375 750 105.599609375 750 118.099609375 742.5 c 128,-1,26
 130.599609375 735 130.599609375 735 140.599609375 724 c 128,-1,27
 150.599609375 713 150.599609375 713 158.599609375 702.5 c 128,-1,28
 166.599609375 692 166.599609375 692 172.599609375 689 c 0,29,30
 199.664687957 692.383423905 199.664687957 692.383423905 209.637999051 692.383423905 c 0,31,32
 212.298912081 692.383423905 212.298912081 692.383423905 213.743164062 692.142578125 c 0,33,34
 220.599609375 691 220.599609375 691 215.599609375 687 c 0,35,36
 163.3125 649.651367188 163.3125 649.651367188 159.599609375 542 c 0,37,38
 158.932942708 522.666666667 158.932942708 522.666666667 158.932942708 493.333333333 c 0,39,40
 158.932942708 478.666666667 158.932942708 478.666666667 159.099609375 461.5 c 0,41,42
 159.599609375 410 159.599609375 410 160.099609375 336.5 c 128,-1,43
 160.599609375 263 160.599609375 263 161.099609375 203 c 0,44,45
 162.234375 66.8203125 162.234375 66.8203125 166.416992188 59.91015625 c 128,-1,46
 170.599609375 53 170.599609375 53 178.599609375 51.5 c 128,-1,47
 186.599609375 50 186.599609375 50 195.099609375 51 c 0,48,49
 216.599609375 53.529296875 216.599609375 53.529296875 216.599609375 49 c 0,50,51
 218.028320312 31.857421875 218.028320312 31.857421875 224.314453125 22.4287109375 c 128,-1,52
 230.599609375 13 230.599609375 13 230.599609375 11 c 128,-1,53
 230.599609375 9 230.599609375 9 222.599609375 5 c 0,54,55
 211.522686298 -0.538461538462 211.522686298 -0.538461538462 185.960556121 -0.538461538462 c 0,56,57
 183.830378606 -0.538461538462 183.830378606 -0.538461538462 181.599609375 -0.5 c 0,58,59
 152.599609375 0 152.599609375 0 144.599609375 0 c 2,0,-1
EndSplineSet
Validated: 524289
EndChar

StartChar: m
Encoding: 109 109 43
Width: 769
Flags: W
HStem: 0 21G<46.5 212.5 326.4 462.5 583.5 716.5> 341 55<201.953 325.56 508 586.021>
VStem: 41 166<3.61011 52.2644> 42 174.5<0 52.2644> 81 70<62.9062 301.845> 342 127<0.806641 50.662> 352.333 71.667<71.687 292.36> 610 71<74.6838 303.245>
LayerCount: 2
Fore
SplineSet
82 63 m 2,0,-1
 81 195 l 1,1,-1
 81 272 l 1,2,3
 80 287 80 287 80 293 c 128,-1,4
 80 299 80 299 79 334 c 0,5,6
 79 337 79 337 75.5 339 c 128,-1,7
 72 341 72 341 64 335 c 128,-1,8
 56 329 56 329 50.5 332.5 c 128,-1,9
 45 336 45 336 42.5 350.5 c 128,-1,10
 40 365 40 365 40.5 375 c 128,-1,11
 41 385 41 385 53 397 c 128,-1,12
 65 409 65 409 79.5 411.5 c 128,-1,13
 94 414 94 414 105 408 c 128,-1,14
 116 402 116 402 125 393 c 128,-1,15
 134 384 134 384 142 374 c 128,-1,16
 150 364 150 364 156 358 c 1,17,18
 219.333007812 396 219.333007812 396 265 396 c 2,19,-1
 274 396 l 2,20,21
 311 396 311 396 338 378 c 128,-1,22
 365 360 365 360 378 344 c 1,23,24
 461.286132812 397 461.286132812 397 523 397 c 0,25,26
 583 397 583 397 624 356 c 0,27,28
 667.697265625 312.302734375 667.697265625 312.302734375 678 234 c 0,29,30
 683 194 683 194 683 180 c 1,31,-1
 681 166 l 1,32,33
 681 127 681 127 672 73 c 1,34,35
 679 69 679 69 688.5 64 c 128,-1,36
 698 59 698 59 706 53 c 0,37,38
 726.706054688 37.470703125 726.706054688 37.470703125 728 31 c 0,39,40
 728 27 728 27 725.5 22 c 128,-1,41
 723 17 723 17 720.5 11.5 c 128,-1,42
 718 6 718 6 715 0 c 1,43,-1
 592 0 l 2,44,45
 575 0 575 0 585 30 c 0,46,47
 591 46 591 46 595.5 54 c 0,48,49
 602.28515625 66.0625 602.28515625 66.0625 604.642578125 95.03125 c 0,50,51
 610 160.86328125 610 160.86328125 610 183.431640625 c 2,52,-1
 610 219 l 1,53,54
 607.875976562 289.099609375 607.875976562 289.099609375 583 324.5 c 0,55,56
 570 343 570 343 548 344 c 0,57,58
 544 344 544 344 540 344 c 2,59,-1
 508 341 l 1,60,61
 470.301757812 333.459960938 470.301757812 333.459960938 444.650390625 318.23046875 c 128,-1,62
 419 303 419 303 406 294 c 1,63,64
 424 241.63671875 424 241.63671875 424 176 c 0,65,66
 424 124 424 124 415 70 c 1,67,68
 429 62 429 62 449 49.5 c 128,-1,69
 469 37 469 37 469 28 c 0,70,71
 469 26 469 26 456 0 c 1,72,-1
 334 0 l 2,73,74
 318.799804688 0 318.799804688 0 324.400390625 18.5 c 128,-1,75
 330 37 330 37 336 44.5 c 128,-1,76
 342 52 342 52 342 57 c 2,77,-1
 346 89 l 2,78,79
 352.333007812 141.775390625 352.333007812 141.775390625 352.333007812 162.387695312 c 128,-1,80
 352.333007812 183 352.333007812 183 352.166015625 187 c 128,-1,81
 352 191 352 191 351.5 196 c 128,-1,82
 351 201 351 201 351 222.5 c 128,-1,83
 351 244 351 244 344.5 272.5 c 0,84,85
 329.276367188 339.249023438 329.276367188 339.249023438 289 341 c 0,86,87
 282 341 282 341 275 341 c 0,88,89
 223.333007812 341 223.333007812 341 150 286 c 1,90,-1
 150 274 l 1,91,92
 151 199 151 199 151 158.5 c 128,-1,93
 151 118 151 118 151.5 98.5 c 0,94,95
 152.270507812 68.458984375 152.270507812 68.458984375 155.634765625 61.7294921875 c 128,-1,96
 159 55 159 55 167.5 53.5 c 128,-1,97
 176 52 176 52 185 53 c 128,-1,98
 194 54 194 54 200.5 54.5 c 128,-1,99
 207 55 207 55 207 51 c 0,100,101
 208 39 208 39 211 29.5 c 128,-1,102
 214 20 214 20 215.5 13.5 c 128,-1,103
 217 7 217 7 216.5 3.5 c 128,-1,104
 216 0 216 0 209 0 c 2,105,-1
 50 0 l 2,106,107
 43 0 43 0 42 2 c 128,-1,108
 41 4 41 4 41.5 10 c 128,-1,109
 42 16 42 16 43 25.5 c 128,-1,110
 44 35 44 35 41 50 c 256,111,112
 38 65 38 65 44 67 c 128,-1,113
 50 69 50 69 58.5 66 c 128,-1,114
 67 63 67 63 74.5 60 c 128,-1,115
 82 57 82 57 82 63 c 2,0,-1
EndSplineSet
Validated: 524289
EndChar

StartChar: n
Encoding: 110 110 44
Width: 523
Flags: W
HStem: 0 56<41.7435 86.7478 160.087 214.387> 341 51<225.459 352.814>
VStem: 85.8571 68<63.0323 293.023> 371.857 76<75.7188 322.664>
LayerCount: 2
Fore
SplineSet
217.857421875 1 m 2,0,-1
 145.857421875 0 l 2,1,2
 95.357421875 0 95.357421875 0 44.857421875 0 c 0,3,4
 42.857421875 0 42.857421875 0 42.857421875 3.5 c 0,5,6
 42.857421875 17 42.857421875 17 39.857421875 34.5 c 128,-1,7
 36.857421875 52 36.857421875 52 44.357421875 56 c 128,-1,8
 51.857421875 60 51.857421875 60 61.357421875 59.5 c 128,-1,9
 70.857421875 59 70.857421875 59 78.857421875 58 c 128,-1,10
 86.857421875 57 86.857421875 57 86.857421875 63 c 2,11,-1
 85.857421875 195 l 1,12,-1
 85.857421875 219 l 1,13,-1
 84.857421875 247.5 l 2,14,15
 84.857421875 249 84.857421875 249 84.357421875 250 c 128,-1,16
 83.857421875 251 83.857421875 251 83.357421875 258.5 c 128,-1,17
 82.857421875 266 82.857421875 266 82.357421875 284.5 c 128,-1,18
 81.857421875 303 81.857421875 303 80.857421875 338 c 0,19,20
 80.857421875 345 80.857421875 345 76.357421875 340.5 c 128,-1,21
 71.857421875 336 71.857421875 336 66.357421875 332.5 c 128,-1,22
 60.857421875 329 60.857421875 329 54.857421875 332.5 c 128,-1,23
 48.857421875 336 48.857421875 336 46.357421875 350.5 c 128,-1,24
 43.857421875 365 43.857421875 365 43.857421875 375 c 128,-1,25
 43.857421875 385 43.857421875 385 55.857421875 397 c 128,-1,26
 67.857421875 409 67.857421875 409 83.357421875 411.5 c 128,-1,27
 98.857421875 414 98.857421875 414 111.357421875 406.5 c 128,-1,28
 123.857421875 399 123.857421875 399 134.357421875 388 c 128,-1,29
 144.857421875 377 144.857421875 377 152.857421875 366.5 c 128,-1,30
 160.857421875 356 160.857421875 356 166.857421875 353 c 1,31,32
 233.857421875 386.5 233.857421875 386.5 299.857421875 392 c 0,33,34
 304.857421875 392 304.857421875 392 316.357421875 392.5 c 0,35,36
 317.033892463 392.529411765 317.033892463 392.529411765 317.765726373 392.529411765 c 0,37,38
 329.475068934 392.529411765 329.475068934 392.529411765 355.357421875 385 c 0,39,40
 382.857421875 377 382.857421875 377 404.857421875 353 c 0,41,42
 447.857421875 306.090820312 447.857421875 306.090820312 447.857421875 231 c 2,43,-1
 447.857421875 222 l 2,44,45
 447.857421875 162 447.857421875 162 424.857421875 70 c 1,46,47
 431.857421875 66 431.857421875 66 441.357421875 61 c 128,-1,48
 450.857421875 56 450.857421875 56 459.357421875 50 c 0,49,50
 479.268554688 35.9453125 479.268554688 35.9453125 480.857421875 28 c 0,51,52
 480.857421875 23.5 480.857421875 23.5 475.857421875 11 c 1,53,-1
 470.857421875 1 l 1,54,55
 443.857421875 0 443.857421875 0 418.857421875 0 c 2,56,-1
 346.857421875 0 l 2,57,58
 334.620605469 0 334.620605469 0 334.620605469 11.625 c 128,-1,59
 334.620605469 23.25 334.620605469 23.25 346.857421875 46.5 c 0,60,61
 351.857421875 56 351.857421875 56 353.857421875 60 c 0,62,63
 355.857421875 71 355.857421875 71 360.357421875 95.5 c 0,64,65
 371.857421875 158.111328125 371.857421875 158.111328125 371.857421875 206.055664062 c 128,-1,66
 371.857421875 254 371.857421875 254 367.357421875 279 c 0,67,68
 356.521484375 339.197265625 356.521484375 339.197265625 316.857421875 341 c 0,69,70
 280.328125 341 280.328125 341 244.092773438 327 c 0,71,72
 205.984375 312.276367188 205.984375 312.276367188 153.857421875 281 c 1,73,-1
 153.857421875 274 l 1,74,75
 154.857421875 199 154.857421875 199 154.857421875 158.5 c 128,-1,76
 154.857421875 118 154.857421875 118 155.357421875 98.5 c 0,77,78
 156.073242188 70.5673828125 156.073242188 70.5673828125 159.96484375 62.7841796875 c 128,-1,79
 163.857421875 55 163.857421875 55 172.357421875 53.5 c 128,-1,80
 180.857421875 52 180.857421875 52 189.857421875 53 c 128,-1,81
 198.857421875 54 198.857421875 54 205.357421875 54.5 c 128,-1,82
 211.857421875 55 211.857421875 55 211.857421875 51 c 0,83,84
 213.3359375 33.25 213.3359375 33.25 218.596679688 20.625 c 128,-1,85
 223.857421875 8 223.857421875 8 223.857421875 4.5 c 128,-1,86
 223.857421875 1 223.857421875 1 217.857421875 1 c 2,0,-1
EndSplineSet
Validated: 524289
EndChar

StartChar: o
Encoding: 111 111 45
Width: 496
Flags: W
HStem: 0 66<183.501 312.935> 365 56<172.063 318.432>
VStem: 40.0694 74<141.936 303.042> 373.069 77.5<134.075 310.092>
LayerCount: 2
Fore
SplineSet
253.069335938 421 m 0,0,1
 322.069335938 421 322.069335938 421 364.069335938 398 c 0,2,3
 445.836914062 353.22265625 445.836914062 353.22265625 450.069335938 258 c 2,4,5
 450.595651727 224.545706371 l 2,6,7
 450.595651727 202.157894737 450.595651727 202.157894737 442.069335938 169 c 0,8,9
 433.069335938 134 433.069335938 134 415.569335938 103 c 0,10,11
 357.423828125 0 357.423828125 0 257.069335938 0 c 2,12,-1
 252.069335938 0 l 1,13,14
 167.9921875 2.05078125 167.9921875 2.05078125 106.069335938 56.5 c 0,15,16
 42.048828125 112.793945312 42.048828125 112.793945312 40.0693359375 190 c 0,17,18
 38.9999293798 206.03977557 38.9999293798 206.03977557 38.9999293798 220.90967204 c 0,19,20
 38.9999293798 304.839978284 38.9999293798 304.839978284 73.0693359375 351.5 c 0,21,22
 123.815429688 421 123.815429688 421 253.069335938 421 c 0,0,1
373.069335938 228 m 0,23,24
 373.069335938 313.280273438 373.069335938 313.280273438 308.390625 349.5 c 0,25,26
 280.711914062 365 280.711914062 365 246.390625 365 c 128,-1,27
 212.069335938 365 212.069335938 365 189.069335938 354 c 128,-1,28
 166.069335938 343 166.069335938 343 148.569335938 322.5 c 0,29,30
 114.069335938 282.0859375 114.069335938 282.0859375 114.069335938 219 c 0,31,32
 116.20703125 161.275390625 116.20703125 161.275390625 154.069335938 115 c 0,33,34
 194.16015625 66 194.16015625 66 250.069335938 66 c 0,35,36
 302.411132812 66 302.411132812 66 337.569335938 112.5 c 0,37,38
 373.069335938 159.451171875 373.069335938 159.451171875 373.069335938 228 c 0,23,24
EndSplineSet
Validated: 524289
EndChar

StartChar: p
Encoding: 112 112 46
Width: 591
Flags: W
HStem: -296.5 50.6807<178.54 230.551> -295 75<45.1601 100.578> -291 45.1807<178.54 230.742> -1 67<171.571 404.226> -1 52<171.595 408.854> 357 63<176.274 381.375>
VStem: 97.5711 72.3076<-233.316 3 61.7507 352.251> 468.879 76.6924<109.517 288.273>
LayerCount: 2
Fore
SplineSet
154.571289062 -296 m 2,0,-1
 55.5712890625 -295 l 2,1,2
 47.87890625 -295 47.87890625 -295 45.0712890625 -291.5 c 0,3,4
 42.87890625 -288 42.87890625 -288 41.5712890625 -280.5 c 0,5,6
 38.6669921875 -249.038085938 38.6669921875 -249.038085938 35.5712890625 -235 c 256,7,8
 32.87890625 -220 32.87890625 -220 42.87890625 -220 c 0,9,10
 55.35546875 -220 55.35546875 -220 89.5712890625 -236 c 0,11,12
 100.87890625 -241 100.87890625 -241 100.571289062 -235 c 0,13,14
 100.725097656 -208 100.725097656 -208 100.725097656 -184.75 c 128,-1,15
 100.725097656 -161.5 100.725097656 -161.5 100.571289062 -142 c 2,16,-1
 97.5712890625 44 l 2,17,18
 97.7250976562 61.5 97.7250976562 61.5 97.7250976562 78.25 c 128,-1,19
 97.7250976562 95 97.7250976562 95 97.5712890625 111 c 0,20,21
 97.87890625 143 97.87890625 143 97.87890625 188 c 128,-1,22
 97.87890625 233 97.87890625 233 96.87890625 295 c 0,23,24
 96.2880233879 331.63473745 96.2880233879 331.63473745 96.2880233879 350.11406195 c 0,25,26
 96.2880233879 362.908828621 96.2880233879 362.908828621 96.5712890625 367 c 0,27,28
 96.87890625 374 96.87890625 374 92.37890625 369.5 c 0,29,30
 79.0947265625 356.215820312 79.0947265625 356.215820312 69.5712890625 361.5 c 0,31,32
 60.68359375 368.525390625 60.68359375 368.525390625 58.5712890625 396 c 0,33,34
 58.87890625 413 58.87890625 413 71.87890625 425.5 c 0,35,36
 88.7466057434 441.718859798 88.7466057434 441.718859798 108.713882387 441.718859798 c 0,37,38
 125.32057074 441.718859798 125.32057074 441.718859798 144.071289062 430.5 c 0,39,40
 153.87890625 425 153.87890625 425 161.37890625 418.5 c 128,-1,41
 168.87890625 412 168.87890625 412 174.571289062 408 c 1,42,43
 229.186523438 420 229.186523438 420 268.032226562 420 c 2,44,-1
 321.571289062 420 l 1,45,46
 479.922851562 412.514648438 479.922851562 412.514648438 528.571289062 298 c 0,47,48
 545.621797648 258.280002081 545.621797648 258.280002081 545.621797648 176.07426852 c 0,49,50
 545.621797648 171.600061838 545.621797648 171.600061838 545.571289062 167 c 0,51,52
 542.443359375 85.6796875 542.443359375 85.6796875 471.571289062 44 c 0,53,54
 396.509765625 -1 396.509765625 -1 253.571289062 -1 c 2,55,-1
 238.571289062 -1 l 1,56,57
 200.87890625 0 200.87890625 0 171.571289062 3 c 1,58,59
 172.234375 -98.2666015625 172.234375 -98.2666015625 173.556640625 -146.633789062 c 128,-1,60
 174.87890625 -195 174.87890625 -195 175.37890625 -214.5 c 128,-1,61
 175.87890625 -234 175.87890625 -234 178.37890625 -238.5 c 0,62,63
 183.456054688 -247.638671875 183.456054688 -247.638671875 198.666992188 -245.819335938 c 128,-1,64
 213.87890625 -244 213.87890625 -244 219.87890625 -243.5 c 128,-1,65
 225.87890625 -243 225.87890625 -243 225.571289062 -247 c 0,66,67
 227.318359375 -263.03515625 227.318359375 -263.03515625 233.598632812 -273.017578125 c 128,-1,68
 239.87890625 -283 239.87890625 -283 239.87890625 -285 c 128,-1,69
 239.87890625 -287 239.87890625 -287 231.37890625 -291 c 128,-1,70
 222.87890625 -295 222.87890625 -295 200.37890625 -296.5 c 128,-1,71
 177.87890625 -298 177.87890625 -298 170.37890625 -297 c 128,-1,72
 162.87890625 -296 162.87890625 -296 154.571289062 -296 c 2,0,-1
169.571289062 328 m 1,73,74
 170.693242654 318.486724975 170.693242654 318.486724975 170.693242654 279.226531654 c 0,75,76
 170.693242654 263.434722049 170.693242654 263.434722049 170.51171875 242.830078125 c 0,77,78
 169.87890625 171 169.87890625 171 169.87890625 118.5 c 128,-1,79
 169.87890625 66 169.87890625 66 170.87890625 66 c 128,-1,80
 171.87890625 66 171.87890625 66 194.87890625 61 c 0,81,82
 254.497858078 48.0396232763 254.497858078 48.0396232763 281.283907286 48.0396232763 c 0,83,84
 284.542642683 48.0396232763 284.542642683 48.0396232763 287.315429688 48.2314453125 c 0,85,86
 312.87890625 50 312.87890625 50 336.87890625 51 c 128,-1,87
 360.87890625 52 360.87890625 52 393.37890625 65 c 128,-1,88
 425.87890625 78 425.87890625 78 447.37890625 108.5 c 128,-1,89
 468.87890625 139 468.87890625 139 468.87890625 199.5 c 128,-1,90
 468.87890625 260 468.87890625 260 447.37890625 288.5 c 0,91,92
 395.703125 357 395.703125 357 251.571289062 357 c 0,93,94
 207.87890625 357 207.87890625 357 195.571289062 353.5 c 0,95,96
 169.571289062 345.91015625 169.571289062 345.91015625 169.571289062 328 c 1,73,74
EndSplineSet
Validated: 524289
EndChar

StartChar: q
Encoding: 113 113 47
Width: 609
Flags: W
HStem: -282 53.5<362.926 410 485.699 536.536> -166 55<299 410> -163 56<354.5 410 480 566> 395 9<518.141 520.428>
VStem: 37 57.9561<108.958 256.218> 410 67<-223.684 -163 -105 2 58 344.841>
LayerCount: 2
Fore
SplineSet
219.5 381 m 0,0,1
 288.678523986 395.776057598 288.678523986 395.776057598 358.37224156 395.776057598 c 0,2,3
 405.567991116 395.776057598 405.567991116 395.776057598 453 389 c 1,4,5
 468 392 468 392 482.5 395 c 0,6,7
 505.700195312 399.799804688 505.700195312 399.799804688 533 404 c 1,8,9
 481.737304688 367.383789062 481.737304688 367.383789062 478 259 c 0,10,11
 477 230 477 230 477 202 c 2,12,-1
 479 -105 l 1,13,-1
 566 -102 l 1,14,-1
 571 -159 l 1,15,-1
 480 -161 l 1,16,17
 482.18359375 -217.775390625 482.18359375 -217.775390625 485.591796875 -223.887695312 c 128,-1,18
 489 -230 489 -230 497 -231.5 c 128,-1,19
 505 -233 505 -233 513 -232 c 0,20,21
 534 -229.375 534 -229.375 534 -234 c 2,22,-1
 539 -265 l 2,23,24
 539 -271 539 -271 528.5 -276 c 0,25,26
 513.799804688 -283 513.799804688 -283 456.5 -283 c 2,27,-1
 363 -282 l 2,28,29
 348.555664062 -282 348.555664062 -282 360.5 -260.5 c 0,30,31
 363 -256 363 -256 363 -247.5 c 128,-1,32
 363 -239 363 -239 370.5 -234 c 128,-1,33
 378 -229 378 -229 386.5 -228.5 c 128,-1,34
 395 -228 395 -228 402.5 -228 c 128,-1,35
 410 -228 410 -228 410 -222 c 2,36,-1
 410 -163 l 1,37,-1
 294 -166 l 1,38,-1
 299 -111 l 1,39,-1
 410 -107 l 1,40,41
 410 -75 410 -75 409.5 -49 c 128,-1,42
 409 -23 409 -23 409 2 c 1,43,44
 366.883027995 -2.35698604366 366.883027995 -2.35698604366 327.06409412 -2.35698604366 c 0,45,46
 251.10026197 -2.35698604366 251.10026197 -2.35698604366 183.5 13.5 c 0,47,48
 98.083984375 33.5361328125 98.083984375 33.5361328125 59.5 90 c 0,49,50
 39 120 39 120 37 163 c 0,51,52
 37 170 37 170 37 177 c 0,53,54
 38.91015625 289.712890625 38.91015625 289.712890625 127 344.5 c 0,55,56
 168 370 168 370 219.5 381 c 0,0,1
118 107 m 0,57,58
 161.274414062 52.4365234375 161.274414062 52.4365234375 250 48 c 0,59,60
 268.609085951 47.0694370341 268.609085951 47.0694370341 285.876070622 47.0694370341 c 0,61,62
 315.160715313 47.0694370341 315.160715313 47.0694370341 340.584960938 49.74609375 c 0,63,64
 381 54 381 54 393.5 56.5 c 128,-1,65
 406 59 406 59 408 58 c 1,66,67
 407.333333333 75.3333333333 407.333333333 75.3333333333 407.333333333 90.6666666667 c 0,68,69
 407.333333333 98.3333333333 407.333333333 98.3333333333 407.5 105.5 c 0,70,71
 408 127 408 127 409 157 c 128,-1,72
 410 187 410 187 410 238 c 2,73,-1
 410 346 l 1,74,75
 264.587890625 346 264.587890625 346 174 302 c 0,76,77
 94.9560546875 262.478515625 94.9560546875 262.478515625 94.9560546875 193.28515625 c 0,78,79
 94.9560546875 136.0546875 94.9560546875 136.0546875 118 107 c 0,57,58
EndSplineSet
Validated: 524289
EndChar

StartChar: r
Encoding: 114 114 48
Width: 361
Flags: W
HStem: 0 77<44.1228 104.14> 6 46<177.753 232.403> 329 52<173.143 261.298> 376 20G<88.6429 132.825>
VStem: 100.143 73<65.1067 329>
LayerCount: 2
Fore
SplineSet
157.642578125 -1 m 2,0,-1
 58.142578125 0 l 2,1,2
 44.142578125 0 44.142578125 0 44.142578125 16 c 128,-1,3
 44.142578125 32 44.142578125 32 40.142578125 54.5 c 128,-1,4
 36.142578125 77 36.142578125 77 46.142578125 77 c 128,-1,5
 56.142578125 77 56.142578125 77 68.642578125 71.5 c 128,-1,6
 81.142578125 66 81.142578125 66 92.642578125 61 c 128,-1,7
 104.142578125 56 104.142578125 56 104.142578125 62 c 0,8,9
 104.142578125 162 104.142578125 162 102.642578125 187 c 128,-1,10
 101.142578125 212 101.142578125 212 100.642578125 238.5 c 128,-1,11
 100.142578125 265 100.142578125 265 100.142578125 280.5 c 128,-1,12
 100.142578125 296 100.142578125 296 101.142578125 297 c 1,13,-1
 100.142578125 341 l 2,14,15
 100.142578125 348 100.142578125 348 95.142578125 342 c 128,-1,16
 90.142578125 336 90.142578125 336 83.642578125 331 c 0,17,18
 78.6938814369 327.19339248 78.6938814369 327.19339248 74.6187820085 327.19339248 c 0,19,20
 63.8046893392 327.19339248 63.8046893392 327.19339248 59.142578125 354 c 0,21,22
 58.142578125 360 58.142578125 360 58.142578125 369 c 0,23,24
 58.142578125 396 58.142578125 396 119.142578125 396 c 0,25,26
 146.506835938 396 146.506835938 396 160.142578125 381 c 1,27,-1
 197.142578125 381 l 2,28,29
 223.142578125 381 223.142578125 381 253.642578125 382 c 128,-1,30
 284.142578125 383 284.142578125 383 321.142578125 384 c 1,31,32
 288.910403294 347.738690795 288.910403294 347.738690795 288.910403294 318.425644784 c 0,33,34
 288.910403294 301.697753974 288.910403294 301.697753974 298.142578125 274 c 257,35,-1
 288.142578125 270 l 1,36,37
 261.142578125 261 261.142578125 261 247.142578125 261 c 0,38,39
 230.142578125 261 230.142578125 261 248.142578125 280.5 c 0,40,41
 262.473632812 296.025390625 262.473632812 296.025390625 261.80859375 304.012695312 c 128,-1,42
 261.142578125 312 261.142578125 312 254.642578125 316 c 128,-1,43
 248.142578125 320 248.142578125 320 239.142578125 322 c 128,-1,44
 230.142578125 324 230.142578125 324 218.142578125 325.5 c 0,45,46
 190.142578125 329 190.142578125 329 173.142578125 329 c 1,47,-1
 173.142578125 289 l 1,48,49
 174.142578125 214 174.142578125 214 174.142578125 171 c 2,50,-1
 174.142578125 105.5 l 2,51,52
 174.142578125 68 174.142578125 68 177.642578125 61 c 128,-1,53
 181.142578125 54 181.142578125 54 189.642578125 52.5 c 128,-1,54
 198.142578125 51 198.142578125 51 206.642578125 52 c 0,55,56
 228.142578125 54.529296875 228.142578125 54.529296875 228.142578125 50 c 0,57,58
 229.571289062 32.857421875 229.571289062 32.857421875 235.857421875 23.4287109375 c 128,-1,59
 242.142578125 14 242.142578125 14 242.142578125 12 c 128,-1,60
 242.142578125 10 242.142578125 10 233.642578125 6 c 0,61,62
 218.767578125 -1 218.767578125 -1 157.642578125 -1 c 2,0,-1
EndSplineSet
Validated: 524289
EndChar

StartChar: t
Encoding: 116 116 49
Width: 351
Flags: W
HStem: 0 75<86.9561 147> 4 46<238.258 276.26> 426 55<41 145> 430 57<76 145 217 308>
VStem: 145 83<487.234 572.618> 147 70<60.2758 429 487 571.646>
LayerCount: 2
Fore
SplineSet
180 626 m 1,0,1
 228 621.2 228 621.2 228 580 c 0,2,3
 228 564 228 564 226 561 c 128,-1,4
 224 558 224 558 222 554 c 0,5,6
 217 544 217 544 217 502 c 2,7,-1
 217 487 l 1,8,-1
 308 490 l 1,9,-1
 312 433 l 1,10,-1
 217 430 l 1,11,-1
 217 181.5 l 2,12,13
 217 68 217 68 221 60 c 128,-1,14
 225 52 225 52 233.5 50.5 c 128,-1,15
 242 49 242 49 250.5 50 c 0,16,17
 272 52.5294117647 272 52.5294117647 272 48 c 0,18,19
 273.428571429 30.8571428571 273.428571429 30.8571428571 279.714285714 21.4285714286 c 128,-1,20
 286 12 286 12 286.5 10 c 128,-1,21
 287 8 287 8 278.5 4 c 0,22,23
 265.75 -2 265.75 -2 237.375 -2 c 2,24,-1
 200 -2 l 1,25,-1
 100 0 l 2,26,27
 87 0 87 0 87 16 c 128,-1,28
 87 32 87 32 81 60 c 0,29,30
 79 75 79 75 89 75 c 128,-1,31
 99 75 99 75 112 69.5 c 128,-1,32
 125 64 125 64 136 59 c 128,-1,33
 147 54 147 54 147 60 c 2,34,-1
 147 344 l 1,35,36
 145 410 145 410 145 429 c 1,37,-1
 36 426 l 1,38,-1
 41 481 l 1,39,-1
 146 484 l 1,40,-1
 146 511 l 2,41,42
 146 528 146 528 145 566 c 1,43,44
 114 573 114 573 108.5 584 c 128,-1,45
 103 595 103 595 112.5 604.5 c 0,46,47
 131.214285714 623.214285714 131.214285714 623.214285714 173 626 c 1,48,-1
 180 626 l 1,0,1
EndSplineSet
Validated: 524289
EndChar

StartChar: u
Encoding: 117 117 50
Width: 550
Flags: W
HStem: -2 49<181.482 336.456> 370 52<51.3128 82.6754> 401 2<211.257 216.72>
VStem: 40.2195 93<99.0562 317.998> 396.22 86<110.385 395.216>
LayerCount: 2
Fore
SplineSet
472.219726562 56 m 1,0,1
 507.673828125 38.2724609375 507.673828125 38.2724609375 508.447265625 30.63671875 c 128,-1,2
 509.219726562 23 509.219726562 23 504.219726562 12.5 c 128,-1,3
 499.219726562 2 499.219726562 2 499.219726562 0 c 1,4,-1
 485.219726562 0 l 1,5,6
 459.219726562 -2 459.219726562 -2 428.719726562 -2 c 2,7,8
 388.219726562 -2 l 2,9,10
 376.219726562 -2 376.219726562 -2 374.719726562 7 c 128,-1,11
 373.219726562 16 373.219726562 16 378.219726562 27 c 1,12,13
 306.6640625 -1 306.6640625 -1 233.44140625 -1 c 0,14,15
 105.025390625 -1 105.025390625 -1 61.2197265625 82 c 0,16,17
 40.2197265625 125.166992188 40.2197265625 125.166992188 40.2197265625 169.583007812 c 128,-1,18
 40.2197265625 214 40.2197265625 214 46.7197265625 252.5 c 0,19,20
 56.98046875 313.276367188 56.98046875 313.276367188 83.2197265625 377 c 1,21,22
 65.7197265625 370 65.7197265625 370 59.4697265625 370 c 0,23,24
 45.4013671875 370 45.4013671875 370 40.2197265625 389 c 0,25,26
 35.2197265625 402 35.2197265625 402 50.7197265625 411 c 0,27,28
 69.6640625 422 69.6640625 422 93.94140625 422 c 128,-1,29
 118.219726562 422 118.219726562 422 137.219726562 414 c 128,-1,30
 156.219726562 406 156.219726562 406 168.219726562 403 c 1,31,32
 192.469726562 403 192.469726562 403 216.719726562 403 c 0,33,34
 223.219726562 403 223.219726562 403 215.219726562 401 c 0,35,36
 183.575195312 396.252929688 183.575195312 396.252929688 150.219726562 349 c 1,37,38
 147.219726562 324 147.219726562 324 142.219726562 293 c 128,-1,39
 137.219726562 262 137.219726562 262 135.719726562 237.5 c 128,-1,40
 134.219726562 213 134.219726562 213 133.219726562 197 c 0,41,42
 133.219726562 47 133.219726562 47 257.219726562 47 c 0,43,44
 339.232421875 48.822265625 339.232421875 48.822265625 372.219726562 106 c 0,45,46
 396.219726562 147.599609375 396.219726562 147.599609375 396.219726562 217 c 0,47,48
 395.219726562 224 395.219726562 224 394.219726562 245 c 128,-1,49
 393.219726562 266 393.219726562 266 388.719726562 300 c 128,-1,50
 384.219726562 334 384.219726562 334 379.719726562 360.5 c 128,-1,51
 375.219726562 387 375.219726562 387 373.219726562 403.5 c 128,-1,52
 371.219726562 420 371.219726562 420 377.219726562 422 c 1,53,-1
 476.219726562 422 l 2,54,55
 482.219726562 422 482.219726562 422 482.219726562 291.166992188 c 128,-1,56
 482.219726562 160.333007812 482.219726562 160.333007812 472.219726562 57 c 1,57,-1
 472.219726562 56 l 1,0,1
EndSplineSet
Validated: 524289
EndChar

StartChar: v
Encoding: 118 118 51
Width: 548
Flags: W
HStem: 1 45<284.478 340.1> 375 20G<409.434 508.286>
LayerCount: 2
Fore
SplineSet
266.786132812 1 m 2,0,-1
 164.286132812 2 l 2,1,2
 157.286132812 2 157.286132812 2 157.786132812 6 c 128,-1,3
 158.286132812 10 158.286132812 10 161.286132812 16 c 0,4,5
 170.55859375 34.5458984375 170.55859375 34.5458984375 167.286132812 40 c 0,6,7
 158.286132812 54 158.286132812 54 164.786132812 56 c 128,-1,8
 171.286132812 58 171.286132812 58 181.786132812 56.5 c 128,-1,9
 192.286132812 55 192.286132812 55 202.286132812 53 c 128,-1,10
 212.286132812 51 212.286132812 51 210.286132812 56 c 0,11,12
 192.286132812 104 192.286132812 104 177.786132812 143 c 128,-1,13
 163.286132812 182 163.286132812 182 147.786132812 215 c 0,14,15
 118.887695312 276.524414062 118.887695312 276.524414062 75.2861328125 334 c 1,16,17
 75.2861328125 341 75.2861328125 341 70.7861328125 336.5 c 128,-1,18
 66.2861328125 332 66.2861328125 332 60.2861328125 328.5 c 128,-1,19
 54.2861328125 325 54.2861328125 325 47.7861328125 328.5 c 128,-1,20
 41.2861328125 332 41.2861328125 332 38.2861328125 349 c 128,-1,21
 35.2861328125 366 35.2861328125 366 39.2861328125 373 c 128,-1,22
 43.2861328125 380 43.2861328125 380 50.7861328125 384.5 c 0,23,24
 60.4287109375 390.286132812 60.4287109375 390.286132812 83.2861328125 396 c 0,25,26
 87.9832792534 396.671000442 87.9832792534 396.671000442 92.6588796155 396.671000442 c 0,27,28
 119.836493427 396.671000442 119.836493427 396.671000442 146.286132812 374 c 0,29,30
 153.286132812 368 153.286132812 368 159.286132812 365 c 0,31,32
 186.792978021 368.438163575 186.792978021 368.438163575 196.693741928 368.438163575 c 0,33,34
 199.377457373 368.438163575 199.377457373 368.438163575 200.767578125 368.185546875 c 0,35,36
 207.286132812 367 207.286132812 367 202.286132812 363 c 0,37,38
 170.623352825 340.383845654 170.623352825 340.383845654 170.623352825 313.472171677 c 0,39,40
 170.623352825 308.314959902 170.623352825 308.314959902 171.786132812 303 c 0,41,42
 175.286132812 287 175.286132812 287 186.786132812 267.5 c 128,-1,43
 198.286132812 248 198.286132812 248 213.286132812 222 c 1,44,-1
 253.286132812 132 l 1,45,-1
 422.286132812 395 l 1,46,-1
 508.286132812 394 l 1,47,-1
 284.286132812 55 l 1,48,49
 289.086132813 45.4 289.086132813 45.4 305.406132813 45.4 c 0,50,51
 309.486132812 45.4 309.486132812 45.4 314.286132812 46 c 0,52,53
 335.286132812 48.625 335.286132812 48.625 335.286132812 44 c 0,54,55
 336.836914062 25.384765625 336.836914062 25.384765625 344.061523438 19.1923828125 c 128,-1,56
 351.286132812 13 351.286132812 13 352.286132812 12 c 128,-1,57
 353.286132812 11 353.286132812 11 344.786132812 7 c 0,58,59
 332.036132812 1 332.036132812 1 266.786132812 1 c 2,0,-1
EndSplineSet
Validated: 524289
EndChar

StartChar: x
Encoding: 120 120 52
Width: 565
Flags: W
HStem: -2 21G<53.8177 105 409.75 444.5> 400 20G<414.093 526>
LayerCount: 2
Fore
SplineSet
526 420 m 1,0,-1
 299 194 l 1,1,2
 351.653061224 143.102040816 351.653061224 143.102040816 452 61 c 0,3,4
 485 33 485 33 500 16 c 128,-1,5
 515 -1 515 -1 499 -1 c 0,6,7
 456 -2 456 -2 433 -2 c 0,8,9
 386.5 -2 386.5 -2 382 4 c 0,10,11
 378 10 378 10 377 15 c 0,12,13
 372.608695652 36.9565217391 372.608695652 36.9565217391 351.804347826 61.4782608696 c 0,14,15
 308.168346774 112.911290323 308.168346774 112.911290323 264 159 c 1,16,-1
 105 0 l 1,17,-1
 35 -1 l 1,18,-1
 226 202 l 1,19,20
 216 212 216 212 172.5 260 c 128,-1,21
 129 308 129 308 104 341 c 1,22,23
 104 349 104 349 97.5 342.5 c 128,-1,24
 91 336 91 336 86.5 334 c 128,-1,25
 82 332 82 332 74.5 335.5 c 128,-1,26
 67 339 67 339 64.5 355 c 0,27,28
 63.2271760962 363.146072984 63.2271760962 363.146072984 63.2271760962 370.138510385 c 0,29,30
 63.2271760962 391.404458487 63.2271760962 391.404458487 75 402 c 0,31,32
 95.804197652 420.203672946 95.804197652 420.203672946 114.655588518 420.203672946 c 0,33,34
 125.660545091 420.203672946 125.660545091 420.203672946 136 414 c 0,35,36
 151 406 151 406 159 397 c 128,-1,37
 167 388 167 388 178 372.5 c 128,-1,38
 189 357 189 357 192 357 c 0,39,40
 215 361 215 361 226 361 c 2,41,-1
 237 361 l 1,42,43
 245 360 245 360 234.5 352.5 c 0,44,45
 217.866397306 340.618855219 217.866397306 340.618855219 217.866397306 319.940382791 c 0,46,47
 217.866397306 312.534410774 217.866397306 312.534410774 220 304 c 0,48,49
 226.366906475 279.805755396 226.366906475 279.805755396 260 237 c 1,50,-1
 433 420 l 1,51,-1
 526 420 l 1,0,-1
EndSplineSet
Validated: 524289
EndChar

StartChar: zero
Encoding: 48 48 53
Width: 545
Flags: W
HStem: 2 56<244.136 348.213>
VStem: 37 95<196.88 516.677> 422 87<248.299 516.708>
LayerCount: 2
Fore
SplineSet
116.5 649.5 m 0,0,1
 184.764705882 755 184.764705882 755 276 755 c 1,2,3
 280.688501742 755.586062718 280.688501742 755.586062718 285.641446418 755.586062718 c 0,4,5
 315.700696864 755.586062718 315.700696864 755.586062718 355.5 734 c 0,6,7
 385 718 385 718 420 667 c 128,-1,8
 455 616 455 616 469.5 579.5 c 0,9,10
 503.132279534 494.839434276 503.132279534 494.839434276 509 399 c 1,11,-1
 509 384 l 2,12,13
 509 336 509 336 486 242.5 c 0,14,15
 447.843930636 87.387283237 447.843930636 87.387283237 403 55 c 0,16,17
 335.958990536 5.44794952681 335.958990536 5.44794952681 267 2 c 0,18,19
 193.018181818 2 193.018181818 2 129.5 70.5 c 0,20,21
 40.0166389351 167.001663894 40.0166389351 167.001663894 37 348 c 1,22,-1
 37 359 l 2,23,24
 37 461.4 37 461.4 71.5 558 c 0,25,26
 89 607 89 607 116.5 649.5 c 0,0,1
175 174 m 0,27,28
 177 184 177 184 188 211.5 c 128,-1,29
 199 239 199 239 258.5 418 c 128,-1,30
 318 597 318 597 324 634 c 1,31,32
 303 683 303 683 295 687 c 128,-1,33
 287 691 287 691 274 689 c 128,-1,34
 261 687 261 687 241.5 677.5 c 128,-1,35
 222 668 222 668 191.5 623.5 c 128,-1,36
 161 579 161 579 149.5 519.5 c 0,37,38
 132 428.956521739 132 428.956521739 132 366.47826087 c 128,-1,39
 132 304 132 304 137 263.5 c 128,-1,40
 142 223 142 223 148 199.5 c 128,-1,41
 154 176 154 176 160.5 165 c 128,-1,42
 167 154 167 154 175 174 c 0,27,28
376 573 m 0,43,44
 369 556 369 556 298 357.2 c 128,-1,45
 227 158.4 227 158.4 227 122 c 0,46,47
 227 106 227 106 234.5 91 c 128,-1,48
 242 76 242 76 276 62 c 0,49,50
 287 57 287 57 298 58 c 0,51,52
 322 58 322 58 347 78 c 0,53,54
 384 108 384 108 406 234 c 0,55,56
 422 324 422 324 422 363 c 0,57,58
 422 450.75 422 450.75 396 532 c 0,59,60
 383 574 383 574 378 574 c 0,61,62
 377 574 377 574 376 573 c 0,43,44
EndSplineSet
Validated: 524289
EndChar

StartChar: one
Encoding: 49 49 54
Width: 418
Flags: W
HStem: 3 79.5<53.7584 155.85> 3 72<269.759 368.203> 3 60<269.759 373.967> 703 2.5<60.6 61.6>
VStem: 215.6 78<428.049 577.849>
LayerCount: 2
Fore
SplineSet
155.599609375 68 m 0,0,1
 155.599609375 207.099609375 155.599609375 207.099609375 171.599609375 301.5 c 0,2,3
 176.599609375 331 176.599609375 331 181.599609375 362 c 256,4,5
 186.599609375 393 186.599609375 393 192.599609375 422.5 c 128,-1,6
 198.599609375 452 198.599609375 452 203.599609375 483.5 c 0,7,8
 215.599609375 559.099609375 215.599609375 559.099609375 215.599609375 632 c 1,9,10
 209.599609375 634 209.599609375 634 201.099609375 636 c 128,-1,11
 192.599609375 638 192.599609375 638 172.599609375 646.5 c 128,-1,12
 152.599609375 655 152.599609375 655 132.599609375 655 c 0,13,14
 68.638671875 655 68.638671875 655 41.599609375 618 c 0,15,16
 35.599609375 610 35.599609375 610 35.099609375 613 c 128,-1,17
 34.599609375 616 34.599609375 616 36.599609375 625.5 c 128,-1,18
 38.599609375 635 38.599609375 635 43.099609375 648.5 c 2,19,-1
 51.599609375 674 l 2,20,21
 55.599609375 686 55.599609375 686 58.599609375 694.5 c 128,-1,22
 61.599609375 703 61.599609375 703 60.599609375 703 c 258,23,-1
 75.099609375 705.5 l 2,24,25
 119.260742188 712.623046875 119.260742188 712.623046875 155.430664062 717.311523438 c 128,-1,26
 191.599609375 722 191.599609375 722 213.599609375 725 c 0,27,28
 271.788085938 732.934570312 271.788085938 732.934570312 338.599609375 763 c 1,29,30
 337.599609375 757 337.599609375 757 336.599609375 750.5 c 0,31,32
 334.93359375 739.666992188 334.93359375 739.666992188 330.599609375 718 c 1,33,-1
 333.599609375 722 l 1,34,35
 331.599609375 705 331.599609375 705 328.099609375 677.5 c 128,-1,36
 324.599609375 650 324.599609375 650 320.599609375 617.5 c 128,-1,37
 316.599609375 585 316.599609375 585 311.599609375 549.5 c 128,-1,38
 306.599609375 514 306.599609375 514 302.599609375 481 c 0,39,40
 293.599609375 406.75 293.599609375 406.75 293.599609375 352.875 c 128,-1,41
 293.599609375 299 293.599609375 299 288.099609375 244 c 128,-1,42
 282.599609375 189 282.599609375 189 277.099609375 151.5 c 128,-1,43
 271.599609375 114 271.599609375 114 268.099609375 94 c 128,-1,44
 264.599609375 74 264.599609375 74 269.599609375 68 c 128,-1,45
 274.599609375 62 274.599609375 62 290.099609375 63 c 128,-1,46
 305.599609375 64 305.599609375 64 321.599609375 68 c 128,-1,47
 337.599609375 72 337.599609375 72 350.099609375 75 c 128,-1,48
 362.599609375 78 362.599609375 78 362.599609375 74 c 0,49,50
 363.599609375 62 363.599609375 62 370.099609375 49 c 128,-1,51
 376.599609375 36 376.599609375 36 381.099609375 26 c 0,52,53
 391.450195312 3 391.450195312 3 373.599609375 3 c 2,54,-1
 72.599609375 3 l 2,55,56
 58.599609375 3 58.599609375 3 53.599609375 7.5 c 128,-1,57
 48.599609375 12 48.599609375 12 46.599609375 20.5 c 128,-1,58
 44.599609375 29 44.599609375 29 43.599609375 41 c 128,-1,59
 42.599609375 53 42.599609375 53 38.099609375 65.5 c 128,-1,60
 33.599609375 78 33.599609375 78 41.099609375 81 c 128,-1,61
 48.599609375 84 48.599609375 84 61.599609375 82.5 c 128,-1,62
 74.599609375 81 74.599609375 81 91.099609375 77.5 c 128,-1,63
 107.599609375 74 107.599609375 74 122.099609375 70.5 c 0,64,65
 141.912466518 65.7177455357 141.912466518 65.7177455357 150.007433865 65.7177455357 c 0,66,67
 155.599609375 65.7177455357 155.599609375 65.7177455357 155.599609375 68 c 0,0,1
EndSplineSet
Validated: 524289
EndChar

StartChar: two
Encoding: 50 50 55
Width: 636
Flags: W
HStem: 1 166<457 542.528> 1 48<222 420.976> 686 67<225.797 334.129>
VStem: 421 120<391 558.46>
LayerCount: 2
Fore
SplineSet
144 0 m 2,0,-1
 79 1 l 1,1,-1
 47 1 l 2,2,3
 33 1 33 1 31 0 c 1,4,5
 35 3 35 3 58.5 19.5 c 128,-1,6
 82 36 82 36 115.5 63 c 128,-1,7
 149 90 149 90 190 125.5 c 128,-1,8
 231 161 231 161 270 202 c 0,9,10
 361.556149733 298.251336898 361.556149733 298.251336898 397 378 c 0,11,12
 421 431 421 431 421 468 c 2,13,-1
 421 479 l 2,14,15
 421 518 421 518 405.5 547 c 128,-1,16
 390 576 390 576 378 600 c 0,17,18
 350.4 655.2 350.4 655.2 329.7 670.6 c 128,-1,19
 309 686 309 686 292 686 c 2,20,-1
 289 686 l 1,21,22
 250 684 250 684 226.5 665.5 c 0,23,24
 184.883900929 632.738390093 184.883900929 632.738390093 175.5 588.5 c 1,25,-1
 172 575 l 258,26,27
 171 578 171 578 160.5 578 c 0,28,29
 127.75 578 127.75 578 95 578 c 1,30,-1
 80 577 l 257,31,32
 80 585.583333333 80 585.583333333 88.5 611.791666667 c 128,-1,33
 97 638 97 638 109 659.5 c 0,34,35
 136.230769231 708.288461538 136.230769231 708.288461538 195 734 c 0,36,37
 237 753 237 753 274 753 c 0,38,39
 277 753 277 753 280 753 c 0,40,41
 385.829787234 753 385.829787234 753 462 663.5 c 0,42,43
 482 640 482 640 495 617.5 c 0,44,45
 531.501144165 554.324942792 531.501144165 554.324942792 540 492 c 0,46,47
 541 485 541 485 541 478 c 0,48,49
 541 444 541 444 519 390.5 c 128,-1,50
 497 337 497 337 460.5 287.5 c 128,-1,51
 424 238 424 238 382 193.5 c 0,52,53
 314.119521912 121.579017264 314.119521912 121.579017264 222 49 c 1,54,55
 302.2 49 302.2 49 421 71 c 0,56,57
 467.07398568 79.5322195704 467.07398568 79.5322195704 476 98.5 c 0,58,59
 482.449438202 112.20505618 482.449438202 112.20505618 472.724719101 127.60252809 c 128,-1,60
 463 143 463 143 460 155 c 128,-1,61
 457 167 457 167 471.5 167 c 128,-1,62
 486 167 486 167 505.5 161.5 c 128,-1,63
 525 156 525 156 542 150 c 128,-1,64
 559 144 559 144 562 143 c 1,65,66
 558 141 558 141 550.5 132 c 128,-1,67
 543 123 543 123 543 110 c 0,68,69
 543 62 543 62 604 1 c 1,70,71
 468 1 468 1 332 1 c 1,72,-1
 197 0 l 2,73,74
 170.5 0 170.5 0 144 0 c 2,0,-1
EndSplineSet
Validated: 524289
EndChar

StartChar: three
Encoding: 51 51 56
Width: 554
Flags: W
HStem: 4 90<169.501 388.172> 686 56<147.021 269.949>
VStem: 34 89<586.135 664.782> 353.5 117.5<452.75 588.104> 423 95<127.468 234.558>
LayerCount: 2
Fore
SplineSet
325 444 m 0,0,1
 353.509803922 474.410457516 353.509803922 474.410457516 353.509803922 526.658373153 c 0,2,3
 353.509803922 553.974789916 353.509803922 553.974789916 329 595.571428571 c 0,4,5
 275.717171717 686 275.717171717 686 207 686 c 0,6,7
 204 686 204 686 201 686 c 0,8,9
 163 684 163 684 146.5 668 c 0,10,11
 123 645.212121212 123 645.212121212 123 611 c 0,12,13
 124 606 124 606 125 595 c 128,-1,14
 126 584 126 584 127 583 c 1,15,16
 123 586 123 586 111.5 586 c 0,17,18
 93.75 586 93.75 586 76.875 586 c 128,-1,19
 60 586 60 586 48 585 c 2,20,-1
 35 584 l 1,21,-1
 34 594 l 1,22,23
 34 686.866666667 34 686.866666667 122 725 c 0,24,25
 161.230769231 742 161.230769231 742 203.115384615 742 c 128,-1,26
 245 742 245 742 278.5 732.5 c 128,-1,27
 312 723 312 723 339 707.5 c 128,-1,28
 366 692 366 692 385 674 c 128,-1,29
 404 656 404 656 416 641.5 c 128,-1,30
 428 627 428 627 431.5 619.5 c 128,-1,31
 435 612 435 612 432 616 c 1,32,33
 468 565 468 565 471 524 c 0,34,35
 471 518 471 518 471 512 c 0,36,37
 471 441.126984127 471 441.126984127 408.5 394.5 c 0,38,39
 377 371 377 371 344 355 c 1,40,41
 347 348 347 348 349 342 c 1,42,43
 474.91959799 284.763819095 474.91959799 284.763819095 510 220 c 0,44,45
 518 204 518 204 518 191 c 128,-1,46
 518 178 518 178 516 170 c 0,47,48
 491.725714286 78.9714285714 491.725714286 78.9714285714 424.5 40 c 0,49,50
 362.4 4 362.4 4 253 4 c 2,51,-1
 230 4 l 1,52,53
 149.922584773 9.1113243762 149.922584773 9.1113243762 97.5 53 c 0,54,55
 48.6558603491 93.8927680798 48.6558603491 93.8927680798 37 158 c 2,56,-1
 35 169 l 1,57,-1
 48 168 l 1,58,59
 80.5 168 80.5 168 104.25 168 c 128,-1,60
 128 168 128 168 128 170.5 c 128,-1,61
 128 173 128 173 131 162 c 128,-1,62
 134 151 134 151 146 136.5 c 0,63,64
 178.432132964 97.3111726685 178.432132964 97.3111726685 243 94 c 0,65,66
 285 92 285 92 301 92 c 128,-1,67
 317 92 317 92 338.5 95.5 c 0,68,69
 391.703389831 104.161016949 391.703389831 104.161016949 411 141 c 0,70,71
 423 163 423 163 423 176.5 c 0,72,73
 423 211.085714286 423 211.085714286 401.5 235.042857143 c 128,-1,74
 380 259 380 259 354 273 c 128,-1,75
 328 287 328 287 304 296.5 c 128,-1,76
 280 306 280 306 261.5 311 c 128,-1,77
 243 316 243 316 240 317 c 0,78,79
 225 312 225 312 212 308.5 c 0,80,81
 195.941176471 304.176470588 195.941176471 304.176470588 168 293 c 1,82,83
 186.522517628 325.105697222 186.522517628 325.105697222 186.522517628 343.121737192 c 0,84,85
 186.522517628 349.770279447 186.522517628 349.770279447 184 354.5 c 0,86,87
 180 362 180 362 174 367 c 128,-1,88
 168 372 168 372 165.5 378 c 128,-1,89
 163 384 163 384 169 386.5 c 128,-1,90
 175 389 175 389 185 390 c 0,91,92
 205 392 205 392 236 392 c 1,93,94
 287.8 406.8 287.8 406.8 325 444 c 0,0,1
127 583 m 1026,95,-1
EndSplineSet
Validated: 524321
EndChar

StartChar: four
Encoding: 52 52 57
Width: 645
Flags: W
HStem: 1 73<236.595 346> 194 51<152 325.549> 207 94<539.662 587.487> 722 21G<43.3046 141 361.75 393.25>
VStem: 43 98<393.5 740> 52 101<155 194 245 533.75> 346 120<61.3974 199 296 564>
LayerCount: 2
Fore
SplineSet
345 199 m 1,0,1
 185.571428571 195.678571429 185.571428571 195.678571429 152 194 c 1,2,-1
 153 155 l 1,3,-1
 52 151 l 1,4,-1
 43 742 l 1,5,-1
 141 740 l 1,6,-1
 151 245 l 1,7,8
 250.228571429 253.628571429 250.228571429 253.628571429 343 270 c 1,9,-1
 340 340 l 1,10,-1
 340 373 l 1,11,12
 344 535 l 1,13,-1
 344 558 l 2,14,15
 344 654.166666667 344 654.166666667 327 708 c 0,16,17
 320 730 320 730 329 734.5 c 0,18,19
 346 743 346 743 377.5 743 c 128,-1,20
 409 743 409 743 428 732 c 0,21,22
 464.509803922 710.862745098 464.509803922 710.862745098 469 648 c 0,23,24
 470 632 470 632 471 616 c 1,25,-1
 462 486 l 1,26,27
 462 386 462 386 464 296 c 1,28,-1
 474 299 l 1,29,30
 513 301 513 301 541.5 301 c 0,31,32
 610.30037037 301 610.30037037 301 610.30037037 292.28528642 c 0,33,34
 610.30037037 284.284871795 610.30037037 284.284871795 600.5 277.5 c 0,35,36
 594 273 594 273 590.5 265.5 c 0,37,38
 588.28488746 260.753330271 588.28488746 260.753330271 588.28488746 254.373561954 c 0,39,40
 588.28488746 236.84841525 588.28488746 236.84841525 605 207 c 1,41,42
 512.307692308 240.369230769 512.307692308 240.369230769 466 245 c 1,43,44
 470.540540541 72.4594594595 470.540540541 72.4594594595 482 61 c 0,45,46
 488.128039702 53.9965260546 488.128039702 53.9965260546 503.767248859 53.9965260546 c 0,47,48
 516.986104218 53.9965260546 516.986104218 53.9965260546 537 59 c 0,49,50
 553 63 553 63 565.5 66 c 128,-1,51
 578 69 578 69 578 65 c 0,52,53
 579 53 579 53 585 43 c 2,54,-1
 595.5 25.5 l 2,55,56
 600 18 600 18 599.5 13.5 c 0,57,58
 597.888888889 -1 597.888888889 -1 475 -1 c 0,59,60
 460 0 460 0 444 0 c 2,61,-1
 262 1 l 2,62,63
 239.4 1 239.4 1 236.5 15.5 c 0,64,65
 235 23 235 23 234 34.5 c 128,-1,66
 233 46 233 46 229 58.5 c 128,-1,67
 225 71 225 71 232.5 74 c 128,-1,68
 240 77 240 77 253 75.5 c 128,-1,69
 266 74 266 74 282 70.5 c 128,-1,70
 298 67 298 67 312.5 63.5 c 0,71,72
 332.312736444 58.7176153411 332.312736444 58.7176153411 340.407725861 58.7176153411 c 0,73,74
 346 58.7176153411 346 58.7176153411 346 61 c 2,75,-1
 346 139 l 2,76,77
 346 172 346 172 345 199 c 1,0,1
EndSplineSet
Validated: 524289
EndChar

StartChar: five
Encoding: 53 53 58
Width: 567
Flags: W
HStem: -3 73<171.973 303.75> 698 50<188 350.071>
VStem: 400 99<160.415 267.754> 408 67<546.156 662.264>
LayerCount: 2
Fore
SplineSet
314 419.5 m 0,0,1
 499 307 499 307 499 198 c 0,2,3
 499 179 499 179 489 161.5 c 128,-1,4
 479 144 479 144 464 118 c 0,5,6
 427.019296254 53.9001135074 427.019296254 53.9001135074 344 16 c 0,7,8
 302 -3 302 -3 242 -3 c 2,9,-1
 231 -3 l 1,10,11
 145.875 4.09375 145.875 4.09375 95 51.5 c 0,12,13
 45.3766816143 97.7399103139 45.3766816143 97.7399103139 34 166 c 0,14,15
 32 179 32 179 31 179 c 257,16,17
 32 179 32 179 45 178.5 c 128,-1,18
 58 178 58 178 71 178 c 0,19,20
 89.5 178 89.5 178 106.75 178 c 128,-1,21
 124 178 124 178 126 181 c 2,22,-1
 127.5 166 l 2,23,24
 131.382492114 124.586750789 131.382492114 124.586750789 171.5 91 c 0,25,26
 193 73 193 73 234 70 c 0,27,28
 236 70 236 70 247 70 c 128,-1,29
 258 70 258 70 282 80.5 c 128,-1,30
 306 91 306 91 330 110 c 0,31,32
 383.91006424 152.678800857 383.91006424 152.678800857 398 203 c 0,33,34
 400 209 400 209 400 221.5 c 128,-1,35
 400 234 400 234 384 260 c 128,-1,36
 368 286 368 286 337 315.5 c 128,-1,37
 306 345 306 345 268.5 373 c 128,-1,38
 231 401 231 401 197.5 422.5 c 0,39,40
 132.263157895 464.368421053 132.263157895 464.368421053 115 473 c 1,41,-1
 120 473 l 1,42,-1
 83 751 l 1,43,-1
 182 749 l 1,44,-1
 182 748 l 1,45,46
 358.5 748 358.5 748 535 748 c 1,47,48
 511.784810127 721.46835443 511.784810127 721.46835443 496.392405063 694.734177215 c 0,49,50
 475 657.578947368 475 657.578947368 475 633 c 0,51,52
 475 600 475 600 491 556 c 1,53,-1
 495 546 l 1,54,-1
 465 535.5 l 2,55,56
 420.095435505 519.95611229 420.095435505 519.95611229 400.892401268 519.95611229 c 0,57,58
 386.544752695 519.95611229 386.544752695 519.95611229 386.544752695 528.633348084 c 0,59,60
 386.544752695 535.621471601 386.544752695 535.621471601 397 564 c 0,61,62
 408 593.857142857 408 593.857142857 408 610.928571429 c 128,-1,63
 408 628 408 628 405 641.5 c 128,-1,64
 402 655 402 655 390 662.5 c 0,65,66
 364.697674419 678.313953488 364.697674419 678.313953488 235 696 c 0,67,68
 220 698 220 698 210.5 698 c 0,69,70
 199.25 698 199.25 698 188 698 c 1,71,-1
 219 471 l 1,72,73
 222 469 222 469 249.5 455.5 c 128,-1,74
 277 442 277 442 314 419.5 c 0,0,1
EndSplineSet
Validated: 524289
EndChar

StartChar: six
Encoding: 54 54 59
Width: 550
Flags: W
HStem: -6 71<185.611 366.339> 325 69<205.361 370.546> 732 20G<294 392>
VStem: 36 93<120.182 257.187> 431 81<126.507 267.33>
LayerCount: 2
Fore
SplineSet
392 752 m 1,0,-1
 194 382 l 1,1,2
 238 394 238 394 262.5 394 c 2,3,4
 293 394 l 1,5,6
 378.492949471 391.91480611 378.492949471 391.91480611 441.5 347.5 c 0,7,8
 508.126471871 300.533798517 508.126471871 300.533798517 512 225 c 1,9,-1
 512 204 l 2,10,11
 512 170 512 170 507 133.5 c 128,-1,12
 502 97 502 97 478 65.5 c 0,13,14
 426.320767649 -2.32899246059 426.320767649 -2.32899246059 296 -6 c 0,15,16
 290 -6 290 -6 284 -6 c 0,17,18
 214 -6 214 -6 162 17 c 128,-1,19
 110 40 110 40 79 79 c 0,20,21
 36 133.096774194 36 133.096774194 36 205 c 0,22,23
 36 232 36 232 43 258 c 1,24,-1
 40 258 l 1,25,-1
 47 271 l 1,26,27
 51 283 51 283 59 296 c 1,28,-1
 294 748 l 1,29,-1
 390 752 l 1,30,-1
 392 752 l 1,0,-1
271 65 m 1,31,-1
 282 65 l 2,32,33
 342.444444444 65 342.444444444 65 384 99 c 0,34,35
 431 137.454545455 431 137.454545455 431 197 c 0,36,37
 431 224 431 224 419.5 249 c 128,-1,38
 408 274 408 274 390.5 289.5 c 0,39,40
 350.419354839 325 350.419354839 325 295 325 c 256,41,42
 233.875 325 233.875 325 185 291 c 0,43,44
 132.830220713 254.707979626 132.830220713 254.707979626 129 203 c 1,45,-1
 129 196 l 1,46,47
 130 142 130 142 161 106 c 128,-1,48
 192 70 192 70 271 65 c 1,31,-1
EndSplineSet
Validated: 524289
EndChar

StartChar: seven
Encoding: 55 55 60
Width: 509
Flags: W
HStem: -2 21G<32 130.443> 680 66<191.225 343.749>
LayerCount: 2
Fore
SplineSet
58 752 m 1,0,1
 280 746 280 746 323 746 c 2,2,-1
 377 746 l 1,3,-1
 378 748 l 1,4,-1
 474 752 l 1,5,-1
 477 752 l 1,6,-1
 121 -2 l 1,7,-1
 32 2 l 1,8,-1
 344 675 l 1,9,10
 336 680 336 680 323 680 c 2,11,-1
 306 680 l 2,12,13
 261.555555556 680 261.555555556 680 229.777777778 673.5 c 128,-1,14
 198 667 198 667 191 663 c 0,15,16
 174 651 174 651 173.5 641.5 c 128,-1,17
 173 632 173 632 180 622 c 128,-1,18
 187 612 187 612 197 601 c 128,-1,19
 207 590 207 590 210.5 577.5 c 128,-1,20
 214 565 214 565 198.5 565.5 c 128,-1,21
 183 566 183 566 162.5 571 c 128,-1,22
 142 576 142 576 123.5 583 c 128,-1,23
 105 590 105 590 101 591 c 1,24,25
 106 593 106 593 114.5 606.5 c 128,-1,26
 123 620 123 620 123 637 c 0,27,28
 123 678.333333333 123 678.333333333 58 752 c 1,0,1
EndSplineSet
Validated: 524289
EndChar

StartChar: eight
Encoding: 56 56 61
Width: 515
Flags: W
HStem: 7 79<163.497 348.049> 375 74<179.166 317.102> 697 50<168.467 329.137>
VStem: 39 74<133.181 300.383 494.477 641.217> 378 76<486.625 650.703> 402 75<136.38 285.914>
LayerCount: 2
Fore
SplineSet
39 197 m 0,0,1
 39 368 39 368 147 419 c 1,2,3
 102 429 102 429 73 453.5 c 128,-1,4
 44 478 44 478 42 529 c 1,5,-1
 42 548 l 2,6,7
 42 637.723404255 42 637.723404255 79.5 684 c 0,8,9
 130.551724138 747 130.551724138 747 262 747 c 0,10,11
 386.925373134 747 386.925373134 747 432 671.5 c 0,12,13
 452 638 452 638 454 595 c 0,14,15
 454 589 454 589 454 567.5 c 128,-1,16
 454 546 454 546 444 506 c 0,17,18
 425.8 433.2 425.8 433.2 357 416 c 1,19,20
 429.40312213 376.863177227 429.40312213 376.863177227 460 296 c 0,21,22
 477 251.071428571 477 251.071428571 477 212.535714286 c 0,23,24
 477 131.80952381 477 131.80952381 440 86 c 0,25,26
 399.068493151 32.7890410959 399.068493151 32.7890410959 326 14 c 0,27,28
 298 7 298 7 280.75 7 c 2,29,-1
 256 7 l 1,30,31
 167.772151899 9.15189873418 167.772151899 9.15189873418 108 49 c 0,32,33
 41.9217391304 93.052173913 41.9217391304 93.052173913 40 168 c 0,34,35
 39 182 39 182 39 197 c 0,0,1
190 361 m 0,36,37
 136.818181818 328.272727273 136.818181818 328.272727273 120.5 263 c 0,38,39
 113 233 113 233 113 219 c 2,40,-1
 113 199 l 1,41,42
 116 142 116 142 153.5 114 c 128,-1,43
 191 86 191 86 252 86 c 0,44,45
 348.65 86 348.65 86 387 145 c 0,46,47
 402 168.076923077 402 168.076923077 402 196.038461538 c 128,-1,48
 402 224 402 224 393.5 253.5 c 128,-1,49
 385 283 385 283 365.5 309 c 0,50,51
 320.163265306 369.448979592 320.163265306 369.448979592 248 375 c 1,52,-1
 241 375 l 2,53,54
 213 375 213 375 190 361 c 0,36,37
194 689 m 0,55,56
 141.406844106 668.771863118 141.406844106 668.771863118 122.5 616.5 c 0,57,58
 114 593 114 593 114 579 c 2,59,-1
 114 559 l 1,60,61
 116 502 116 502 154.5 475.5 c 128,-1,62
 193 449 193 449 252 449 c 128,-1,63
 311 449 311 449 343 472.5 c 128,-1,64
 375 496 375 496 378 552 c 1,65,-1
 378 563 l 2,66,67
 378 621.148148148 378 621.148148148 361 645.074074074 c 0,68,69
 328.100642398 691.376873662 328.100642398 691.376873662 255 697 c 1,70,-1
 244 697 l 2,71,72
 216 697 216 697 194 689 c 0,55,56
EndSplineSet
Validated: 524289
EndChar

StartChar: nine
Encoding: 57 57 62
Width: 546
Flags: W
HStem: 353 67<174.161 340.975> 685.111 67.8887<179.651 360.079>
VStem: 34 77<482.102 621.425> 419 92<489.813 627.407>
LayerCount: 2
Fore
SplineSet
351 365 m 1,0,1
 309.857142857 353 309.857142857 353 285.428571429 353 c 2,2,-1
 255 353 l 1,3,4
 167.822043628 355.126291619 167.822043628 355.126291619 106 399 c 0,5,6
 37.8266094421 447.38111588 37.8266094421 447.38111588 34 522 c 0,7,8
 34 532 34 532 34 554.5 c 128,-1,9
 34 577 34 577 40 613.5 c 128,-1,10
 46 650 46 650 69 681.5 c 0,11,12
 118.519351935 749.319981998 118.519351935 749.319981998 251 753 c 0,13,14
 257 753 257 753 263 753 c 0,15,16
 401.210448314 751.025565024 401.210448314 751.025565024 468 667 c 0,17,18
 511 612.903225806 511 612.903225806 511 542 c 0,19,20
 511 515 511 515 504 489 c 1,21,-1
 507 489 l 1,22,-1
 499 474 l 1,23,24
 494 461 494 461 487 451 c 1,25,-1
 253 -1 l 1,26,-1
 159 -5 l 1,27,-1
 154 -5 l 1,28,-1
 351 365 l 1,0,1
275 685 m 0,29,30
 264 685 264 685 257.611328125 685.055664062 c 128,-1,31
 251.22265625 685.111328125 251.22265625 685.111328125 242.72265625 685.111328125 c 128,-1,32
 234.22265625 685.111328125 234.22265625 685.111328125 207.611328125 676.555664062 c 0,33,34
 151.23108462 658.429157151 151.23108462 658.429157151 123 606 c 0,35,36
 111 584 111 584 111 554.5 c 128,-1,37
 111 525 111 525 122.5 500 c 128,-1,38
 134 475 134 475 152.5 457.5 c 0,39,40
 192.142857143 420 192.142857143 420 251 420 c 0,41,42
 311.818181818 420 311.818181818 420 362 454.5 c 0,43,44
 415.073170732 490.987804878 415.073170732 490.987804878 419 544 c 1,45,-1
 419 551 l 2,46,47
 419 605 419 605 388 640 c 0,48,49
 349 685 349 685 275 685 c 0,29,30
EndSplineSet
Validated: 524289
EndChar

StartChar: less
Encoding: 60 60 63
Width: 460
Flags: W
LayerCount: 2
Fore
SplineSet
423.127929688 162 m 1,0,1
 360.728515625 110 360.728515625 110 351.127929688 110 c 0,2,3
 349.127929688 110 349.127929688 110 335.127929688 120 c 128,-1,4
 321.127929688 130 321.127929688 130 298.627929688 146 c 0,5,6
 172.95703125 235.366210938 172.95703125 235.366210938 36.1279296875 340 c 1,7,8
 34.9997479679 340 34.9997479679 340 34.9997479679 340.681677872 c 0,9,10
 34.9997479679 345.122948182 34.9997479679 345.122948182 82.888671875 378.5 c 0,11,12
 138.127929688 417 138.127929688 417 178.127929688 445 c 128,-1,13
 218.127929688 473 218.127929688 473 253.627929688 497 c 0,14,15
 332.345703125 550.217773438 332.345703125 550.217773438 341.127929688 559 c 1,16,17
 342.494140625 556.268554688 342.494140625 556.268554688 368.311523438 541.133789062 c 0,18,19
 416.3046875 513 416.3046875 513 423.127929688 513 c 0,20,21
 424.127929688 513 424.127929688 513 413.627929688 506 c 128,-1,22
 403.127929688 499 403.127929688 499 385.627929688 487 c 128,-1,23
 368.127929688 475 368.127929688 475 345.127929688 460 c 128,-1,24
 322.127929688 445 322.127929688 445 282.127929688 418.5 c 128,-1,25
 242.127929688 392 242.127929688 392 169.127929688 345 c 1,26,-1
 423.127929688 162 l 1,0,1
341.127929688 559 m 1048,27,-1
EndSplineSet
Validated: 524289
EndChar

StartChar: greater
Encoding: 62 62 64
Width: 459
Flags: W
LayerCount: 2
Fore
SplineSet
107.086914062 572 m 128,-1,1
 109.086914062 572 109.086914062 572 133.586914062 554.5 c 128,-1,2
 158.086914062 537 158.086914062 537 174.086914062 525 c 128,-1,3
 190.086914062 513 190.086914062 513 205.086914062 503 c 128,-1,4
 220.086914062 493 220.086914062 493 321.586914062 419 c 148,-1,5
 423.090337288 344.997504249 423.090337288 344.997504249 423.093750916 341.322255953 c 128,-1,6
 423.093750916 337.640640554 423.093750916 337.640640554 372.09375 301.323242188 c 128,-1,7
 321.086914062 265 321.086914062 265 281.586914062 238 c 128,-1,8
 242.086914062 211 242.086914062 211 207.086914062 186.5 c 0,9,10
 122.086914062 127 122.086914062 127 117.086914062 122 c 1,11,12
 106.723632812 132.36328125 106.723632812 132.36328125 72.9052734375 150.681640625 c 128,-1,13
 39.0869140625 169 39.0869140625 169 36.0869140625 169 c 0,14,15
 35.0869140625 169 35.0869140625 169 45.5869140625 176 c 128,-1,16
 56.0869140625 183 56.0869140625 183 73.5869140625 195 c 128,-1,17
 91.0869140625 207 91.0869140625 207 114.086914062 222 c 128,-1,18
 137.086914062 237 137.086914062 237 177.086914062 263.5 c 128,-1,19
 217.086914062 290 217.086914062 290 290.086914062 337 c 1,20,-1
 36.0869140625 520 l 1,21,22
 65.1396484375 544.2109375 65.1396484375 544.2109375 85.11328125 558.10546875 c 128,-1,0
 105.086914062 572 105.086914062 572 107.086914062 572 c 128,-1,1
EndSplineSet
Validated: 524289
EndChar

StartChar: question
Encoding: 63 63 65
Width: 449
Flags: W
HStem: 3 103<116.589 238.311> 635.143 51.9482<136.018 264.121>
VStem: 34 76<552 609.919> 109 139.047<13.9392 83.9605>
LayerCount: 2
Fore
SplineSet
121 343 m 1,0,1
 212.012448133 396.780082988 212.012448133 396.780082988 276.5 453 c 0,2,3
 334.565075593 503.620835133 334.565075593 503.620835133 334.565075593 537.372315082 c 0,4,5
 334.565075593 542.913504322 334.565075593 542.913504322 333 548 c 1,6,7
 316.264367816 583.563218391 316.264367816 583.563218391 270 610 c 0,8,9
 232.286132812 635.142578125 232.286132812 635.142578125 196.877929688 635.142578125 c 0,10,11
 194.857421875 635.142578125 194.857421875 635.142578125 193 635 c 128,-1,12
 191 635 191 635 189 635 c 0,13,14
 133.976545842 628.330490405 133.976545842 628.330490405 116.5 588 c 0,15,16
 110 573 110 573 110 562 c 2,17,-1
 109 550 l 1,18,19
 107 552 107 552 95 552 c 0,20,21
 75 552 75 552 43.5 549 c 2,22,-1
 33 548 l 1,23,-1
 34 557 l 1,24,25
 34 579.411764706 34 579.411764706 46 602.705882353 c 128,-1,26
 58 626 58 626 74.5 641.5 c 0,27,28
 122.935483871 687 122.935483871 687 207 687 c 0,29,30
 210.545898438 687.090820312 210.545898438 687.090820312 229.63671875 687.090820312 c 128,-1,31
 248.727539062 687.090820312 248.727539062 687.090820312 282.363769531 676.545410156 c 128,-1,32
 316 666 316 666 341.5 647.5 c 128,-1,33
 367 629 367 629 380.5 611.5 c 128,-1,34
 394 594 394 594 404.5 581 c 128,-1,35
 415 568 415 568 414.5 554 c 128,-1,36
 414 540 414 540 412 525 c 128,-1,37
 410 510 410 510 390.5 484.5 c 128,-1,38
 371 459 371 459 342 436 c 128,-1,39
 313 413 313 413 285 395 c 0,40,41
 246.5 370.25 246.5 370.25 206 350 c 1,42,-1
 195 152 l 1,43,-1
 113 145 l 1,44,-1
 125 343 l 1,45,-1
 121 343 l 1,0,1
180.5 106 m 0,46,47
 205 106 205 106 219.5 100 c 128,-1,48
 234 94 234 94 241.5 84.5 c 0,49,50
 250.452734671 73.1598694171 250.452734671 73.1598694171 250.452734671 59.2511646933 c 0,51,52
 250.452734671 52.0410200606 250.452734671 52.0410200606 248.046875 44.140625 c 0,53,54
 235.518568535 3 235.518568535 3 189 3 c 0,55,56
 185 3 185 3 169.5 3 c 128,-1,57
 154 3 154 3 131.5 13.5 c 0,58,59
 107.608240856 24.6494876004 107.608240856 24.6494876004 107.608240856 53.5275042867 c 0,60,61
 107.608240856 60.4973849242 107.608240856 60.4973849242 109 68.5 c 0,62,63
 115.52173913 106 115.52173913 106 180.5 106 c 0,46,47
EndSplineSet
Validated: 524289
EndChar

StartChar: ampersand
Encoding: 38 38 66
Width: 730
Flags: W
HStem: 1 86<159.738 331.495> 15 71<540.353 619.384> 330 95<506.374 540.999> 680 60<249.442 366.775>
VStem: 35 95<117.474 280.673> 146 68<506.312 645.501> 541 83<248.446 329.768> 622 74<87.4551 144.298>
LayerCount: 2
Fore
SplineSet
548 425 m 2,0,-1
 550 425 l 2,1,2
 551.317382812 425.09765625 551.317382812 425.09765625 552.633789062 425.09765625 c 2,3,-1
 604 388 l 1,4,5
 624 359 624 359 624 326.5 c 128,-1,6
 624 294 624 294 607 254 c 0,7,8
 572 172 572 172 516 139 c 0,9,10
 514.515151515 139 514.515151515 139 514.515151515 137.807621671 c 0,11,12
 514.515151515 133.378787879 514.515151515 133.378787879 535 112.5 c 0,13,14
 561 86 561 86 587 86 c 2,15,-1
 592 86 l 1,16,17
 621 88 621 88 622 124 c 1,18,19
 634 161 634 161 651 161 c 0,20,21
 662 160 662 160 679 139 c 128,-1,22
 696 118 696 118 696 99.5 c 128,-1,23
 696 81 696 81 688 68 c 0,24,25
 668 33 668 33 626 19 c 0,26,27
 613 15 613 15 590.5 15 c 128,-1,28
 568 15 568 15 523 40 c 128,-1,29
 478 65 478 65 468 75 c 1,30,31
 468 72 468 72 400 45 c 128,-1,32
 332 18 332 18 242 4 c 0,33,34
 224 1 224 1 207 1 c 0,35,36
 138 1 138 1 86.5 51 c 128,-1,37
 35 101 35 101 35 176 c 0,38,39
 35 267.073394495 35 267.073394495 93 341.036697248 c 128,-1,40
 151 415 151 415 196 437 c 1,41,42
 146 535 146 535 146 589 c 128,-1,43
 146 643 146 643 174 668 c 0,44,45
 253.2 740 253.2 740 309 740 c 0,46,47
 348 740 348 740 395 714 c 0,48,49
 453 682 453 682 453 628 c 128,-1,50
 453 574 453 574 293 423 c 1,51,52
 282 423 282 423 290 402.5 c 128,-1,53
 298 382 298 382 367 289.5 c 128,-1,54
 436 197 436 197 464 196 c 0,55,56
 470 196 470 196 474 200 c 0,57,58
 534 250 534 250 540 298 c 0,59,60
 541 309 541 309 541 319.5 c 128,-1,61
 541 330 541 330 537 330 c 128,-1,62
 533 330 533 330 525.5 320.5 c 128,-1,63
 518 311 518 311 506 311 c 128,-1,64
 494 311 494 311 477 327.5 c 128,-1,65
 460 344 460 344 460 356 c 128,-1,66
 460 368 460 368 466 376 c 0,67,68
 481 396 481 396 509.5 410.5 c 128,-1,69
 538 425 538 425 548 425 c 2,0,-1
388 135 m 1,70,-1
 381 143 l 1,71,72
 234.651245552 323.284697509 234.651245552 323.284697509 217 363 c 0,73,74
 216.7890625 363.017578125 216.7890625 363.017578125 216.569335938 363.017578125 c 0,75,76
 204.24609375 363.017578125 204.24609375 363.017578125 167.123046875 315.008789062 c 128,-1,77
 130 267 130 267 130 208 c 0,78,79
 130 186 130 186 134 162 c 0,80,81
 147 87 147 87 222 87 c 0,82,83
 236 87 236 87 252 90 c 0,84,85
 354 107 354 107 374 121 c 128,-1,86
 394 135 394 135 388 135 c 1,70,-1
256 466 m 1,87,88
 288 498 288 498 354 560 c 0,89,90
 389.012585341 593.011866179 389.012585341 593.011866179 389.012585341 619.783729878 c 0,91,92
 389.012585341 643.298979379 389.012585341 643.298979379 362 662 c 0,93,94
 336 680 336 680 306.5 680 c 128,-1,95
 277 680 277 680 245.5 655 c 128,-1,96
 214 630 214 630 214 585.5 c 128,-1,97
 214 541 214 541 256 466 c 1,87,88
EndSplineSet
Validated: 524289
EndChar

StartChar: exclam
Encoding: 33 33 67
Width: 213
Flags: W
HStem: 5 103<43.7652 167.384>
VStem: 35.3456 140<16.4227 85.9321> 63.3456 75<235 752>
LayerCount: 2
Fore
SplineSet
63 231 m 1,0,-1
 63 754 l 1,1,-1
 135 752 l 1,2,-1
 138 235 l 1,3,-1
 63 231 l 1,0,-1
108 108 m 0,4,5
 132 108 132 108 147 102 c 128,-1,6
 162 96 162 96 170 86 c 0,7,8
 178.52173913 75.652173913 178.52173913 75.652173913 178.52173913 61.5992438563 c 0,9,10
 178.52173913 52.5652173913 178.52173913 52.5652173913 175 42 c 0,11,12
 163 5 163 5 115 5 c 2,13,-1
 108 5 l 2,14,15
 80 5 80 5 58 16 c 0,16,17
 33.9008420062 27.2462737305 33.9008420062 27.2462737305 33.9008420062 55.5929802657 c 0,18,19
 33.9008420062 62.5338632917 33.9008420062 62.5338632917 35.345703125 70.5 c 0,20,21
 42.1472800926 108 42.1472800926 108 108 108 c 0,4,5
EndSplineSet
Validated: 524289
EndChar

StartChar: slash
Encoding: 47 47 68
Width: 509
Flags: W
HStem: 0 21G<38.2727 111.259> 730 20G<392.808 477>
LayerCount: 2
Fore
SplineSet
101 0 m 1,0,-1
 32 22 l 1,1,-1
 403 750 l 1,2,-1
 477 733 l 1,3,-1
 101 0 l 1,0,-1
EndSplineSet
Validated: 1
EndChar

StartChar: y
Encoding: 121 121 70
Width: 753
Flags: W
HStem: -293 53<121.796 233.714> 401 20G<617.889 714>
VStem: 47 87<-204.234 -168.827>
LayerCount: 2
Fore
SplineSet
134 -171 m 5,0,1
 116.482681484 -189.68513975 116.482681484 -189.68513975 116.482681484 -204.113186464 c 0,2,3
 116.482681484 -215.02380741 116.482681484 -215.02380741 126.5 -223.5 c 4,4,5
 139.347058824 -234.370588235 139.347058824 -234.370588235 175 -240 c 5,6,7
 234.597560976 -240 234.597560976 -240 307.5 -142 c 4,8,9
 351.725 -82.55 351.725 -82.55 407 28 c 5,10,11
 388.31147541 63.5081967213 388.31147541 63.5081967213 363.155737705 116.254098361 c 132,-1,12
 338 169 338 169 321.5 203.5 c 132,-1,13
 305 238 305 238 288.5 269.5 c 4,14,15
 250.379310345 342.275862069 250.379310345 342.275862069 229 369 c 5,16,17
 229 376 229 376 224.5 371.5 c 132,-1,18
 220 367 220 367 214 363.5 c 132,-1,19
 208 360 208 360 202 363.5 c 132,-1,20
 196 367 196 367 193.5 380.5 c 132,-1,21
 191 394 191 394 191 404.5 c 132,-1,22
 191 415 191 415 204 427.5 c 132,-1,23
 217 440 217 440 232 442.5 c 132,-1,24
 247 445 247 445 259 437.5 c 132,-1,25
 271 430 271 430 281.5 419 c 132,-1,26
 292 408 292 408 300 397.5 c 132,-1,27
 308 387 308 387 314 384 c 4,28,29
 341.067669173 387.383458647 341.067669173 387.383458647 351.039968342 387.383458647 c 0,30,31
 353.69924812 387.383458647 353.69924812 387.383458647 355.142857143 387.142857143 c 4,32,33
 362 386 362 386 357 382 c 4,34,35
 344 372 344 372 344 359 c 132,-1,36
 344 346 344 346 348 324 c 132,-1,37
 352 302 352 302 370 261 c 4,38,39
 394.545454545 205.090909091 394.545454545 205.090909091 454 106 c 5,40,-1
 629 421 l 5,41,-1
 714 421 l 5,42,-1
 493 40 l 5,43,-1
 492 40 l 5,44,45
 491 36 491 36 477 7.5 c 132,-1,46
 463 -21 463 -21 438.5 -61 c 132,-1,47
 414 -101 414 -101 381 -146 c 4,48,49
 308.461373391 -244.916309013 308.461373391 -244.916309013 223 -281 c 4,50,51
 194 -293 194 -293 168 -293 c 132,-1,52
 142 -293 142 -293 131 -290 c 4,53,54
 82 -277 82 -277 61.5 -258.5 c 132,-1,55
 41 -240 41 -240 38 -226.5 c 132,-1,56
 35 -213 35 -213 35 -204.5 c 132,-1,57
 35 -196 35 -196 40 -184 c 132,-1,58
 45 -172 45 -172 47 -164 c 5,59,60
 62 -165 62 -165 77 -165.5 c 132,-1,61
 92 -166 92 -166 106 -168 c 132,-1,62
 120 -170 120 -170 134 -171 c 5,0,1
EndSplineSet
Validated: 524289
EndChar

StartChar: z
Encoding: 122 122 71
Width: 526
Flags: W
HStem: -1 23<146 338.993> 397 23<176.18 367.205>
LayerCount: 2
Fore
SplineSet
370 392 m 1,0,1
 280 397 280 397 262 397 c 0,2,3
 158.533333333 397 158.533333333 397 116.5 348.5 c 0,4,5
 112.24137931 343.586206897 112.24137931 343.586206897 105 332 c 257,6,7
 105 333 105 333 99 340 c 128,-1,8
 93 347 93 347 85.5 357.5 c 128,-1,9
 78 368 78 368 71 379.5 c 128,-1,10
 64 391 64 391 62 400.5 c 128,-1,11
 60 410 60 410 64.5 416 c 128,-1,12
 69 422 69 422 78 421 c 128,-1,13
 87 420 87 420 109 420 c 0,14,15
 260 420 260 420 411 420 c 1,16,-1
 485 419 l 1,17,-1
 487 419 l 1,18,-1
 146 27 l 1,19,-1
 229 22 l 1,20,-1
 244 22 l 2,21,22
 341.157894737 22 341.157894737 22 380.5 54.5 c 0,23,24
 398.202247191 69.1235955056 398.202247191 69.1235955056 410 88 c 257,25,26
 410 87 410 87 423 72.5 c 0,27,28
 459.594029851 31.6835820896 459.594029851 31.6835820896 461 12 c 0,29,30
 461 -1 461 -1 435 -1 c 2,31,-1
 265 -1 l 2,32,33
 193 -1 193 -1 103 0 c 1,34,-1
 36 0 l 1,35,-1
 370 392 l 1,0,1
EndSplineSet
Validated: 524289
EndChar

StartChar: period
Encoding: 46 46 72
Width: 259
Flags: W
HStem: 0 140<68.9985 189.877>
VStem: 47.387 160.38<14.9622 118.215>
LayerCount: 2
Fore
SplineSet
86.38671875 131 m 0,0,1
 103.38671875 140 103.38671875 140 131.38671875 140 c 128,-1,2
 159.38671875 140 159.38671875 140 175.88671875 129.5 c 128,-1,3
 192.38671875 119 192.38671875 119 200.38671875 104 c 0,4,5
 211.132454083 83.8515897169 211.132454083 83.8515897169 211.132454083 66.2263216077 c 0,6,7
 211.132454083 56.3620458713 211.132454083 56.3620458713 207.766601562 47.2880859375 c 0,8,9
 190.2265625 0 190.2265625 0 140.38671875 0 c 0,10,11
 136.38671875 0 136.38671875 0 118.38671875 0 c 128,-1,12
 100.38671875 0 100.38671875 0 74.38671875 12 c 128,-1,13
 48.38671875 24 48.38671875 24 47.38671875 48 c 0,14,15
 46.9997488244 53.4181954334 46.9997488244 53.4181954334 46.9997488244 58.5341629391 c 0,16,17
 46.9997488244 110.147917952 46.9997488244 110.147917952 86.38671875 131 c 0,0,1
EndSplineSet
Validated: 524289
EndChar

StartChar: colon
Encoding: 58 58 73
Width: 270
Flags: W
HStem: 0 140<63.9989 184.877> 234 140<83.8989 204.777>
VStem: 42.3873 160.38<14.9622 118.215> 62.2874 160.38<248.962 352.215>
LayerCount: 2
Fore
SplineSet
101.287109375 365 m 4
 118.287109375 374 118.287109375 374 146.287109375 374 c 4
 174.287109375 374 174.287109375 374 190.787109375 363.5 c 4
 207.287109375 353 207.287109375 353 215.287109375 338 c 4
 226.032844708 317.851589717 226.032844708 317.851589717 226.032844708 300.226321608 c 0
 226.032844708 290.362045871 226.032844708 290.362045871 222.666992188 281.288085938 c 4
 205.126953125 234 205.126953125 234 155.287109375 234 c 4
 151.287109375 234 151.287109375 234 133.287109375 234 c 4
 115.287109375 234 115.287109375 234 89.287109375 246 c 4
 63.287109375 258 63.287109375 258 62.287109375 282 c 4
 61.9001394494 287.418195433 61.9001394494 287.418195433 61.9001394494 292.534162939 c 0
 61.9001394494 344.147917952 61.9001394494 344.147917952 101.287109375 365 c 4
EndSplineSet
Refer: 72 46 N 1 0 0 1 -4.99939 0 2
Validated: 622593
EndChar

StartChar: semicolon
Encoding: 59 59 74
Width: 261
Flags: W
HStem: -160.269 296.563 263 140<78.6125 199.491>
VStem: 57.001 162<277.782 381.215> 104.751 73.8916<-65.1879 -9.4905>
LayerCount: 2
Fore
SplineSet
210.000976562 367 m 4
 219.143833705 349.857142857 219.143833705 349.857142857 219.143833705 331.37755102 c 0
 219.143833705 317.357142857 219.143833705 317.357142857 214.000976562 301.5 c 4
 208.000976562 283 208.000976562 283 191.000976562 273 c 4
 174.000976562 263 174.000976562 263 161.000976562 263 c 6
 142.000976562 263 l 6
 110.000976562 263 110.000976562 263 84.0009765625 275 c 4
 58.0009765625 287 58.0009765625 287 57.0009765625 311 c 4
 56.6140066369 316.418195433 56.6140066369 316.418195433 56.6140066369 321.534162939 c 0
 56.6140066369 373.147917952 56.6140066369 373.147917952 96.0009765625 394 c 4
 113.000976562 403 113.000976562 403 141.000976562 403 c 4
 169.000976562 403 169.000976562 403 185.500976562 392.5 c 4
 202.000976562 382 202.000976562 382 210.000976562 367 c 4
EndSplineSet
Refer: 75 44 N 1 0 0 1 -4.99986 0 2
Validated: 622593
EndChar

StartChar: comma
Encoding: 44 44 75
Width: 232
Flags: W
HStem: -160.269 296.563
VStem: 109.751 73.8916<-65.1879 -9.4905>
LayerCount: 2
Fore
SplineSet
109.750976562 -18.5 m 5,0,1
 85.1201171875 -13.9033203125 85.1201171875 -13.9033203125 59.0390625 16.75 c 4,2,3
 46 32.841796875 46 32.841796875 46 55.4482421875 c 132,-1,4
 46 78.0546875 46 78.0546875 59.0395507812 107.174804688 c 132,-1,5
 72.0791015625 136.294921875 72.0791015625 136.294921875 102.505859375 136.294921875 c 6,6,-1
 103.954101562 136.294921875 l 6,7,8
 125.6875 136.294921875 125.6875 136.294921875 156.114257812 120.201171875 c 5,9,10
 183.642578125 87.25 183.642578125 87.25 183.642578125 48.16796875 c 4,11,12
 183.642578125 8.3203125 183.642578125 8.3203125 169.154296875 -39.19140625 c 5,13,14
 148.145507812 -138.045898438 148.145507812 -138.045898438 59.0390625 -160.268554688 c 5,15,16
 109.026367188 -66.7783203125 109.026367188 -66.7783203125 109.750976562 -18.5 c 5,0,1
EndSplineSet
Validated: 524289
EndChar

StartChar: quotedbl
Encoding: 34 34 76
Width: 480
Flags: W
HStem: 512 231
VStem: 44 179<639.263 713.553> 256 178<635.932 710.584>
LayerCount: 2
Fore
SplineSet
126 614 m 1,0,1
 111 619 111 619 92 625.5 c 128,-1,2
 73 632 73 632 58.5 645 c 128,-1,3
 44 658 44 658 44 676 c 128,-1,4
 44 694 44 694 63 718 c 0,5,6
 85.2222222222 743 85.2222222222 743 133 743 c 0,7,8
 137.92803838 743.492803838 137.92803838 743.492803838 142.561865513 743.492803838 c 0,9,10
 166.808635394 743.492803838 166.808635394 743.492803838 183 730 c 0,11,12
 211.8 710.8 211.8 710.8 221 674 c 0,13,14
 223 667 223 667 223 658.5 c 0,15,16
 223 629.538461538 223 629.538461538 204 612 c 0,17,18
 112.430769231 516 112.430769231 516 78 516 c 0,19,20
 66 516 66 516 61 529 c 0,21,22
 55 542 55 542 55 550 c 128,-1,23
 55 558 55 558 61 565 c 128,-1,24
 67 572 67 572 79.5 577.5 c 128,-1,25
 92 583 92 583 106.5 590 c 128,-1,26
 121 597 121 597 126 614 c 1,0,1
337 610 m 1,27,28
 323 615 323 615 304.5 621.5 c 128,-1,29
 286 628 286 628 271 641 c 128,-1,30
 256 654 256 654 256 671.5 c 128,-1,31
 256 689 256 689 276 714 c 0,32,33
 292.666666667 739 292.666666667 739 345 739 c 1,34,-1
 364 738 l 1,35,36
 398.648305085 733.923728814 398.648305085 733.923728814 419.5 701 c 0,37,38
 434.32420519 677.593360226 434.32420519 677.593360226 434.32420519 659.299090512 c 0,39,40
 434.32420519 656.59364152 434.32420519 656.59364152 434 654 c 0,41,42
 434 626 434 626 416 608 c 0,43,44
 322.953846154 512 322.953846154 512 290 512 c 0,45,46
 278 512 278 512 274 525 c 0,47,48
 268 539 268 539 268 546.5 c 128,-1,49
 268 554 268 554 273 561 c 128,-1,50
 278 568 278 568 290.5 573.5 c 128,-1,51
 303 579 303 579 317.5 586 c 128,-1,52
 332 593 332 593 337 610 c 1,27,28
EndSplineSet
Validated: 524289
EndChar

